{
copyright = "Copyright \U00A9 2015 by Rosetta Type Foundry. All rights reserved.";
customParameters = (
{
name = glyphOrder;
value = (
    ".notdef",
    NULL,
    CR,
    space,
    nbspace,
    enspace,
    emspace,
    thinspace,
    A,
    B,
    C,
    D,
    E,
    F,
    G,
    H,
    I,
    J,
    K,
    L,
    M,
    N,
    O,
    P,
    Q,
    R,
    S,
    T,
    U,
    V,
    W,
    X,
    Y,
    Z,
    a,
    b,
    c,
    d,
    e,
    f,
    g,
    h,
    i,
    j,
    k,
    l,
    m,
    n,
    o,
    p,
    q,
    r,
    s,
    t,
    u,
    v,
    w,
    x,
    y,
    z,
    quotesingle,
    quotedbl,
    numbersign,
    ampersand,
    asterisk,
    comma,
    hyphen,
    softhyphen,
    period,
    colon,
    semicolon,
    question,
    exclam,
    questiondown,
    exclamdown,
    at,
    parenleft,
    parenright,
    bracketleft,
    bracketright,
    braceleft,
    braceright,
    backslash,
    slash,
    brokenbar,
    bar,
    asciicircum,
    underscore,
    asciitilde,
    section,
    copyright,
    registered,
    trademark,
    ordfeminine,
    ordmasculine,
    guilsinglleft,
    guilsinglright,
    guillemetleft,
    guillemetright,
    quoteleft,
    quoteright,
    quotesinglbase,
    quotedblleft,
    quotedblright,
    quotedblbase,
    dagger,
    daggerdbl,
    ellipsis,
    paragraph,
    periodcentered,
    endash,
    emdash,
    circumflex,
    caron,
    macron,
    firsttonechinese,
    breve,
    dieresis,
    acute,
    grave,
    cedilla,
    dotaccent,
    ring,
    ogonek,
    tilde,
    hungarumlaut,
    circumflexcomb,
    "circumflexcomb.case",
    caroncomb,
    "caroncomb.case",
    "caroncomb.calt",
    macroncomb,
    "macroncomb.case",
    brevecomb,
    "brevecomb.case",
    dieresiscomb,
    "dieresiscomb.case",
    acutecomb,
    "acutecomb.case",
    gravecomb,
    "gravecomb.case",
    cedillacomb,
    dotaccentcomb,
    "dotaccentcomb.case",
    ringcomb,
    "ringcomb.case",
    ogonekcomb,

glyphs = (
{
color = 4;
glyphname = .notdef;
lastChange = "2015-09-14 13:06:16 +0000";
layers = (
{
background = {
paths = (
{
closed = 1;
nodes = (
"440 387 LINE",
"783 705 LINE",
"439 1043 LINE",
"553 1159 LINE",
"886 807 LINE",
"1214 1158 LINE",
"1333 1042 LINE",
"985 708 LINE",
"1333 365 LINE",
"1220 252 LINE",
"883 605 LINE",
"559 252 LINE"
);
},
{
closed = 1;
nodes = (
"177 0 LINE",
"1593 0 LINE",
"1593 1416 LINE",
"177 1416 LINE"
);
}
);
};
layerId = "6AFE116F-39E0-4FF2-A27B-879B4E5E3272";
name = Bold;
paths = (
{
closed = 1;
nodes = (
"440 387 LINE",
"783 705 LINE",
"439 1043 LINE",
"553 1159 LINE",
"886 807 LINE",
"1214 1158 LINE",
"1333 1042 LINE",
"985 708 LINE",
"1333 365 LINE",
"1220 252 LINE",
"883 605 LINE",
"559 252 LINE"
);
},
{
closed = 1;
nodes = (
"177 0 LINE",
"1593 0 LINE",
"1593 1416 LINE",
"177 1416 LINE"
);
}
);
width = 1770;
},
{
background = {
paths = (
{
closed = 1;
nodes = (
"440 387 LINE",
"783 705 LINE",
"439 1043 LINE",
"553 1159 LINE",
"886 807 LINE",
"1214 1158 LINE",
"1333 1042 LINE",
"985 708 LINE",
"1333 365 LINE",
"1220 252 LINE",
"883 605 LINE",
"559 252 LINE"
);
},
{
closed = 1;
nodes = (
"177 0 LINE",
"1593 0 LINE",
"1593 1416 LINE",
"177 1416 LINE"
);
}
);
};
layerId = "6D8A9A52-7D7D-4498-B039-FDF10F245A16";
name = Light;
paths = (
{
closed = 1;
nodes = (
"440 387 LINE",
"783 705 LINE",
"439 1043 LINE",
"553 1159 LINE",
"886 807 LINE",
"1214 1158 LINE",
"1333 1042 LINE",
"985 708 LINE",
"1333 365 LINE",
"1220 252 LINE",
"883 605 LINE",
"559 252 LINE"
);
},
{
closed = 1;
nodes = (
"177 0 LINE",
"1593 0 LINE",
"1593 1416 LINE",
"177 1416 LINE"
);
}
);
width = 1770;
}
);
},
{
color = 9;
glyphname = A;
lastChange = "2015-10-01 09:44:49 +0000";
layers = (
{
anchors = (
{
name = btm;
position = "{698, -170}";
},
{
name = top;
position = "{851, 1700}";
}
);
background = {
anchors = (
{
name = btm;
position = "{698, -170}";
},
{
name = top;
position = "{851, 1700}";
}
);
paths = (
{
closed = 1;
nodes = (
"83 0 LINE",
"657 0 LINE",
"657 152 LINE",
"470 174 LINE",
"485 87 LINE",
"751 1153 LINE",
"775 1279 LINE",
"797 1153 LINE",
"1077 91 LINE",
"1102 183 LINE",
"922 152 LINE",
"922 0 LINE",
"1619 0 LINE",
"1619 152 LINE",
"1463 186 LINE",
"1539 92 LINE",
"1074 1525 LINE",
"632 1525 LINE",
"170 99 LINE",
"251 188 LINE",
"80 152 LINE"
);
},
{
closed = 1;
nodes = (
"429 392 LINE",
"1140 392 LINE",
"1081 565 LINE",
"478 565 LINE"
);
}
);
};
layerId = "6AFE116F-39E0-4FF2-A27B-879B4E5E3272";
name = Bold;
paths = (
{
closed = 1;
nodes = (
"424 462 LINE",
"1150 462 LINE",
"1091 635 LINE",
"473 635 LINE"
);
},
{
closed = 1;
nodes = (
"1062 1567 LINE",
"675 1567 LINE",
"225 228 LINE SMOOTH",
"216 202 OFFCURVE",
"200 189 OFFCURVE",
"174 182 CURVE SMOOTH",
"55 152 LINE",
"55 0 LINE",
"634 0 LINE",
"634 152 LINE",
"444 187 LINE",
"806 1371 LINE",
"720 1371 LINE",
"1093 187 LINE",
"903 152 LINE",
"903 0 LINE",
"1670 0 LINE",
"1670 152 LINE",
"1562 182 LINE SMOOTH",
"1537 189 OFFCURVE",
"1520 202 OFFCURVE",
"1511 228 CURVE SMOOTH"
);
}
);
width = 1720;
},
{
anchors = (
{
name = btm;
position = "{757, -170}";
},
{
name = top;
position = "{786, 1700}";
}
);
background = {
anchors = (
{
name = btm;
position = "{757, -170}";
},
{
name = top;
position = "{786, 1700}";
}
);
paths = (
{
closed = 1;
nodes = (
"60 0 LINE",
"521 0 LINE",
"521 88 LINE",
"317 111 LINE",
"325 64 LINE",
"707 1214 LINE",
"763 1415 LINE",
"820 1220 LINE",
"1209 68 LINE",
"1226 111 LINE",
"1015 88 LINE",
"1015 0 LINE",
"1515 0 LINE",
"1515 88 LINE",
"1354 111 LINE",
"1397 62 LINE",
"870 1537 LINE",
"702 1537 LINE",
"178 68 LINE",
"221 112 LINE",
"60 88 LINE"
);
},
{
closed = 1;
nodes = (
"384 433 LINE",
"1126 433 LINE",
"1084 539 LINE",
"418 539 LINE"
);
}
);
};
layerId = "6D8A9A52-7D7D-4498-B039-FDF10F245A16";
name = Light;
paths = (
{
closed = 1;
nodes = (
"374 483 LINE",
"1136 483 LINE",
"1094 589 LINE",
"408 589 LINE"
);
},
{
closed = 1;
nodes = (
"862 1567 LINE",
"694 1567 LINE",
"210 170 LINE SMOOTH",
"200 140 OFFCURVE",
"179 123 OFFCURVE",
"148 116 CURVE SMOOTH",
"30 88 LINE",
"30 0 LINE",
"529 0 LINE",
"529 88 LINE",
"329 126 LINE",
"787 1494 LINE",
"716 1494 LINE",
"1206 126 LINE",
"1006 88 LINE",
"1006 0 LINE",
"1545 0 LINE",
"1545 88 LINE",
"1434 116 LINE SMOOTH",
"1402 124 OFFCURVE",
"1383 139 OFFCURVE",
"1372 170 CURVE SMOOTH"
);
}
);
width = 1575;
}
);
unicode = 0041;
},
{
color = 9;
glyphname = B;
lastChange = "2015-09-29 15:31:25 +0000";
layers = (
{
anchors = (
{
name = btm;
position = "{802, -170}";
},
{
name = top;
position = "{802, 1700}";
}
);
background = {
anchors = (
{
name = btm;
position = "{802, -170}";
},
{
name = top;
position = "{802, 1700}";
}
);
paths = (
{
closed = 1;
nodes = (
"105 0 LINE",
"462 0 LINE",
"587 0 OFFCURVE",
"646 -12 OFFCURVE",
"815 -12 CURVE SMOOTH",
"1346 -12 OFFCURVE",
"1496 190 OFFCURVE",
"1496 463 CURVE SMOOTH",
"1496 695 OFFCURVE",
"1314 811 OFFCURVE",
"1043 813 CURVE",
"1230 835 OFFCURVE",
"1392 964 OFFCURVE",
"1392 1185 CURVE SMOOTH",
"1392 1399 OFFCURVE",
"1284 1533 OFFCURVE",
"790 1533 CURVE SMOOTH",
"685 1533 OFFCURVE",
"585 1522 OFFCURVE",
"454 1522 CURVE",
"106 1522 LINE",
"106 1360 LINE",
"285 1324 LINE",
"254 1377 LINE",
"254 142 LINE",
"284 181 LINE",
"105 152 LINE"
);
},
{
closed = 1;
nodes = (
"663 691 LINE",
"692 693 OFFCURVE",
"756 696 OFFCURVE",
"810 696 CURVE SMOOTH",
"961 696 OFFCURVE",
"1038 634 OFFCURVE",
"1038 446 CURVE SMOOTH",
"1038 260 OFFCURVE",
"974 143 OFFCURVE",
"801 143 CURVE SMOOTH",
"750 143 OFFCURVE",
"687 149 OFFCURVE",
"663 161 CURVE"
);
},
{
closed = 1;
nodes = (
"664 1376 LINE",
"684 1381 OFFCURVE",
"774 1385 OFFCURVE",
"781 1385 CURVE SMOOTH",
"918 1385 OFFCURVE",
"982 1314 OFFCURVE",
"982 1152 CURVE SMOOTH",
"982 980 OFFCURVE",
"936 866 OFFCURVE",
"798 866 CURVE SMOOTH",
"752 866 OFFCURVE",
"693 867 OFFCURVE",
"664 871 CURVE"
);
}
);
};
layerId = "6AFE116F-39E0-4FF2-A27B-879B4E5E3272";
name = Bold;
paths = (
{
closed = 1;
nodes = (
"1234 826 OFFCURVE",
"1398 952 OFFCURVE",
"1398 1205 CURVE SMOOTH",
"1398 1449 OFFCURVE",
"1284 1573 OFFCURVE",
"830 1573 CURVE SMOOTH",
"685 1573 OFFCURVE",
"585 1562 OFFCURVE",
"454 1562 CURVE SMOOTH",
"50 1562 LINE",
"50 1400 LINE",
"211 1369 LINE SMOOTH",
"234 1364 OFFCURVE",
"250 1345 OFFCURVE",
"250 1321 CURVE SMOOTH",
"250 231 LINE SMOOTH",
"250 207 OFFCURVE",
"234 188 OFFCURVE",
"211 184 CURVE SMOOTH",
"50 154 LINE",
"50 0 LINE",
"462 0 LINE SMOOTH",
"587 0 OFFCURVE",
"666 -12 OFFCURVE",
"825 -12 CURVE SMOOTH",
"1346 -12 OFFCURVE",
"1502 190 OFFCURVE",
"1502 463 CURVE SMOOTH",
"1502 736 OFFCURVE",
"1277 852 OFFCURVE",
"1005 833 CURVE",
"1005 817 LINE"
);
},
{
closed = 1;
nodes = (
"595 710 LINE",
"678 712 OFFCURVE",
"750 716 OFFCURVE",
"810 716 CURVE SMOOTH",
"961 716 OFFCURVE",
"1044 654 OFFCURVE",
"1044 456 CURVE SMOOTH",
"1044 260 OFFCURVE",
"974 143 OFFCURVE",
"801 143 CURVE SMOOTH",
"750 143 OFFCURVE",
"697 149 OFFCURVE",
"664 156 CURVE",
"664 1416 LINE",
"684 1421 OFFCURVE",
"774 1425 OFFCURVE",
"781 1425 CURVE SMOOTH",
"918 1425 OFFCURVE",
"988 1354 OFFCURVE",
"988 1172 CURVE SMOOTH",
"988 990 OFFCURVE",
"936 886 OFFCURVE",
"798 886 CURVE SMOOTH",
"747 886 OFFCURVE",
"679 887 OFFCURVE",
"595 893 CURVE"
);
}
);
width = 1546;
},
{
anchors = (
{
name = btm;
position = "{737, -170}";
},
{
name = top;
position = "{737, 1700}";
}
);
background = {
anchors = (
{
name = btm;
position = "{737, -170}";
},
{
name = top;
position = "{737, 1700}";
}
);
paths = (
{
closed = 1;
nodes = (
"103 0 LINE",
"355 0 LINE",
"511 0 OFFCURVE",
"580 -12 OFFCURVE",
"679 -12 CURVE SMOOTH",
"1154 -12 OFFCURVE",
"1296 215 OFFCURVE",
"1296 455 CURVE SMOOTH",
"1296 671 OFFCURVE",
"1144 820 OFFCURVE",
"885 810 CURVE",
"1084 850 OFFCURVE",
"1187 1009 OFFCURVE",
"1187 1194 CURVE SMOOTH",
"1187 1410 OFFCURVE",
"1048 1538 OFFCURVE",
"681 1538 CURVE SMOOTH",
"580 1538 OFFCURVE",
"485 1522 OFFCURVE",
"363 1522 CURVE",
"107 1522 LINE",
"107 1434 LINE",
"299 1409 LINE",
"278 1450 LINE",
"278 65 LINE",
"317 111 LINE",
"103 88 LINE"
);
},
{
closed = 1;
nodes = (
"447 736 LINE",
"508 739 OFFCURVE",
"666 738 OFFCURVE",
"740 738 CURVE SMOOTH",
"1004 738 OFFCURVE",
"1113 642 OFFCURVE",
"1113 423 CURVE SMOOTH",
"1113 216 OFFCURVE",
"996 85 OFFCURVE",
"678 85 CURVE SMOOTH",
"608 85 OFFCURVE",
"499 87 OFFCURVE",
"447 103 CURVE"
);
},
{
closed = 1;
nodes = (
"447 1431 LINE",
"487 1432 OFFCURVE",
"560 1444 OFFCURVE",
"660 1444 CURVE SMOOTH",
"931 1444 OFFCURVE",
"1018 1346 OFFCURVE",
"1018 1156 CURVE SMOOTH",
"1018 955 OFFCURVE",
"906 843 OFFCURVE",
"699 843 CURVE SMOOTH",
"645 843 OFFCURVE",
"509 842 OFFCURVE",
"447 846 CURVE"
);
}
);
};
layerId = "6D8A9A52-7D7D-4498-B039-FDF10F245A16";
name = Light;
paths = (
{
closed = 1;
nodes = (
"1078 844 OFFCURVE",
"1193 1008 OFFCURVE",
"1193 1214 CURVE SMOOTH",
"1193 1448 OFFCURVE",
"1048 1578 OFFCURVE",
"691 1578 CURVE SMOOTH",
"580 1578 OFFCURVE",
"485 1562 OFFCURVE",
"363 1562 CURVE SMOOTH",
"63 1562 LINE",
"63 1474 LINE",
"232 1440 LINE SMOOTH",
"260 1434 OFFCURVE",
"278 1412 OFFCURVE",
"278 1384 CURVE SMOOTH",
"278 175 LINE SMOOTH",
"278 146 OFFCURVE",
"258 123 OFFCURVE",
"230 118 CURVE SMOOTH",
"63 88 LINE",
"63 0 LINE",
"355 0 LINE SMOOTH",
"511 0 OFFCURVE",
"580 -12 OFFCURVE",
"679 -12 CURVE SMOOTH",
"1154 -12 OFFCURVE",
"1302 195 OFFCURVE",
"1302 458 CURVE SMOOTH",
"1302 702 OFFCURVE",
"1129 854 OFFCURVE",
"847 827 CURVE",
"847 818 LINE"
);
},
{
closed = 1;
nodes = (
"388 753 LINE",
"490 757 OFFCURVE",
"662 758 OFFCURVE",
"740 758 CURVE SMOOTH",
"1004 758 OFFCURVE",
"1119 662 OFFCURVE",
"1119 429 CURVE SMOOTH",
"1119 196 OFFCURVE",
"996 84 OFFCURVE",
"678 84 CURVE SMOOTH",
"608 84 OFFCURVE",
"506 93 OFFCURVE",
"446 101 CURVE",
"446 1471 LINE",
"487 1472 OFFCURVE",
"560 1484 OFFCURVE",
"660 1484 CURVE SMOOTH",
"931 1484 OFFCURVE",
"1024 1386 OFFCURVE",
"1024 1187 CURVE SMOOTH",
"1024 965 OFFCURVE",
"906 863 OFFCURVE",
"699 863 CURVE SMOOTH",
"642 863 OFFCURVE",
"491 862 OFFCURVE",
"386 867 CURVE"
);
}
);
width = 1376;
}
);
unicode = 0042;
},
{
color = 9;
glyphname = C;
lastChange = "2015-10-01 17:06:25 +0000";
layers = (
{
anchors = (
{
name = btm;
position = "{745, -170}";
},
{
name = top;
position = "{799, 1700}";
}
);
background = {
anchors = (
{
name = btm;
position = "{745, -170}";
},
{
name = top;
position = "{799, 1700}";
}
);
paths = (
{
closed = 1;
nodes = (
"782 -23 CURVE SMOOTH",
"1043 -23 OFFCURVE",
"1129 40 OFFCURVE",
"1277 56 CURVE",
"1310 410 LINE",
"1076 430 LINE",
"978 200 LINE",
"950 169 OFFCURVE",
"914 141 OFFCURVE",
"809 141 CURVE SMOOTH",
"615 141 OFFCURVE",
"517 391 OFFCURVE",
"517 772 CURVE SMOOTH",
"517 1186 OFFCURVE",
"627 1376 OFFCURVE",
"803 1376 CURVE SMOOTH",
"894 1376 OFFCURVE",
"932 1353 OFFCURVE",
"950 1334 CURVE",
"1028 991 LINE",
"1287 991 LINE",
"1314 1493 LINE",
"1229 1493 OFFCURVE",
"1027 1538 OFFCURVE",
"820 1538 CURVE SMOOTH",
"375 1538 OFFCURVE",
"50 1250 OFFCURVE",
"50 740 CURVE SMOOTH",
"50 279 OFFCURVE",
"284 -23 OFFCURVE"
);
}
);
};
layerId = "6AFE116F-39E0-4FF2-A27B-879B4E5E3272";
name = Bold;
paths = (
{
closed = 1;
nodes = (
"47 236 OFFCURVE",
"279 -38 OFFCURVE",
"763 -38 CURVE SMOOTH",
"943 -38 OFFCURVE",
"1161 0 OFFCURVE",
"1311 49 CURVE",
"1333 207 OFFCURVE",
"1333 354 OFFCURVE",
"1325 469 CURVE",
"1086 489 LINE",
"1012 249 LINE SMOOTH",
"999 208 OFFCURVE",
"988 186 OFFCURVE",
"965 169 CURVE SMOOTH",
"930 143 OFFCURVE",
"873 125 OFFCURVE",
"805 125 CURVE SMOOTH",
"605 125 OFFCURVE",
"514 347 OFFCURVE",
"514 788 CURVE SMOOTH",
"514 1257 OFFCURVE",
"617 1433 OFFCURVE",
"803 1433 CURVE SMOOTH",
"855 1433 OFFCURVE",
"906 1418 OFFCURVE",
"944 1392 CURVE SMOOTH",
"978 1369 OFFCURVE",
"991 1340 OFFCURVE",
"998 1310 CURVE SMOOTH",
"1059 1039 LINE",
"1304 1039 LINE",
"1331 1216 OFFCURVE",
"1337 1370 OFFCURVE",
"1326 1507 CURVE",
"1178 1561 OFFCURVE",
"991 1593 OFFCURVE",
"826 1593 CURVE SMOOTH",
"356 1593 OFFCURVE",
"47 1332 OFFCURVE",
"47 745 CURVE SMOOTH"
);
}
);
width = 1451;
},
{
anchors = (
{
name = btm;
position = "{765, -170}";
},
{
name = top;
position = "{784, 1700}";
}
);
background = {
anchors = (
{
name = btm;
position = "{765, -170}";
},
{
name = top;
position = "{784, 1700}";
}
);
paths = (
{
closed = 1;
nodes = (
"772 -23 CURVE SMOOTH",
"1017 -23 OFFCURVE",
"1093 51 OFFCURVE",
"1201 56 CURVE",
"1251 329 LINE",
"1151 344 LINE",
"1069 151 LINE",
"1015 108 OFFCURVE",
"946 75 OFFCURVE",
"776 75 CURVE SMOOTH",
"426 75 OFFCURVE",
"267 416 OFFCURVE",
"267 786 CURVE SMOOTH",
"267 1207 OFFCURVE",
"484 1439 OFFCURVE",
"762 1439 CURVE SMOOTH",
"924 1439 OFFCURVE",
"1031 1410 OFFCURVE",
"1068 1376 CURVE",
"1112 1139 LINE",
"1218 1139 LINE",
"1235 1473 LINE",
"1164 1489 OFFCURVE",
"986 1538 OFFCURVE",
"803 1538 CURVE SMOOTH",
"391 1538 OFFCURVE",
"74 1224 OFFCURVE",
"74 768 CURVE SMOOTH",
"74 293 OFFCURVE",
"325 -23 OFFCURVE"
);
}
);
};
layerId = "6D8A9A52-7D7D-4498-B039-FDF10F245A16";
name = Light;
paths = (
{
closed = 1;
nodes = (
"74 264 OFFCURVE",
"305 -33 OFFCURVE",
"780 -33 CURVE SMOOTH",
"944 -33 OFFCURVE",
"1106 -2 OFFCURVE",
"1214 45 CURVE",
"1233 153 OFFCURVE",
"1245 278 OFFCURVE",
"1243 384 CURVE",
"1143 394 LINE",
"1082 184 LINE SMOOTH",
"1076 162 OFFCURVE",
"1056 140 OFFCURVE",
"1032 124 CURVE SMOOTH",
"980 91 OFFCURVE",
"875 66 OFFCURVE",
"757 66 CURVE SMOOTH",
"417 66 OFFCURVE",
"267 376 OFFCURVE",
"267 797 CURVE SMOOTH",
"267 1277 OFFCURVE",
"463 1490 OFFCURVE",
"757 1490 CURVE SMOOTH",
"868 1490 OFFCURVE",
"976 1464 OFFCURVE",
"1025 1436 CURVE SMOOTH",
"1054 1420 OFFCURVE",
"1067 1401 OFFCURVE",
"1074 1370 CURVE SMOOTH",
"1118 1158 LINE",
"1218 1158 LINE",
"1234 1275 OFFCURVE",
"1243 1407 OFFCURVE",
"1239 1518 CURVE",
"1109 1568 OFFCURVE",
"951 1590 OFFCURVE",
"810 1590 CURVE SMOOTH",
"367 1590 OFFCURVE",
"74 1305 OFFCURVE",
"74 754 CURVE SMOOTH"
);
}
);
width = 1330;
}
);
unicode = 0043;
},
{
color = 9;
glyphname = D;
lastChange = "2015-09-29 18:32:48 +0000";
layers = (
{
anchors = (
{
name = btm;
position = "{861, -170}";
},
{
name = top;
position = "{829, 1700}";
}
);
background = {
anchors = (
{
name = btm;
position = "{861, -170}";
},
{
name = top;
position = "{829, 1700}";
}
);
paths = (
{
closed = 1;
nodes = (
"101 0 LINE",
"128 0 OFFCURVE",
"428 0 OFFCURVE",
"455 0 CURVE SMOOTH",
"520 0 OFFCURVE",
"665 -13 OFFCURVE",
"777 -16 CURVE SMOOTH",
"1275 -27 OFFCURVE",
"1560 340 OFFCURVE",
"1560 817 CURVE SMOOTH",
"1560 1280 OFFCURVE",
"1308 1533 OFFCURVE",
"808 1533 CURVE SMOOTH",
"678 1533 OFFCURVE",
"585 1522 OFFCURVE",
"451 1522 CURVE SMOOTH",
"105 1522 LINE",
"105 1360 LINE",
"291 1322 LINE",
"250 1372 LINE",
"250 130 LINE",
"282 181 LINE",
"101 152 LINE"
);
},
{
closed = 1;
nodes = (
"659 1359 LINE",
"672 1362 OFFCURVE",
"706 1376 OFFCURVE",
"768 1376 CURVE SMOOTH",
"1024 1376 OFFCURVE",
"1105 1108 OFFCURVE",
"1105 762 CURVE SMOOTH",
"1105 322 OFFCURVE",
"987 151 OFFCURVE",
"784 150 CURVE SMOOTH",
"735 150 OFFCURVE",
"688 156 OFFCURVE",
"659 171 CURVE"
);
}
);
};
layerId = "6AFE116F-39E0-4FF2-A27B-879B4E5E3272";
name = Bold;
paths = (
{
closed = 1;
nodes = (
"694 1573 OFFCURVE",
"588 1562 OFFCURVE",
"451 1562 CURVE SMOOTH",
"50 1562 LINE",
"50 1400 LINE",
"211 1369 LINE SMOOTH",
"234 1364 OFFCURVE",
"250 1345 OFFCURVE",
"250 1321 CURVE SMOOTH",
"250 232 LINE SMOOTH",
"250 208 OFFCURVE",
"234 188 OFFCURVE",
"210 184 CURVE SMOOTH",
"50 154 LINE",
"50 0 LINE",
"455 0 LINE SMOOTH",
"527 0 OFFCURVE",
"692 -14 OFFCURVE",
"784 -16 CURVE SMOOTH",
"1284 -26 OFFCURVE",
"1572 282 OFFCURVE",
"1572 834 CURVE SMOOTH",
"1572 1355 OFFCURVE",
"1315 1573 OFFCURVE",
"808 1573 CURVE SMOOTH"
);
},
{
closed = 1;
nodes = (
"744 150 OFFCURVE",
"695 156 OFFCURVE",
"666 171 CURVE",
"666 1399 LINE",
"670 1400 OFFCURVE",
"721 1417 OFFCURVE",
"785 1417 CURVE SMOOTH",
"1031 1417 OFFCURVE",
"1117 1168 OFFCURVE",
"1117 773 CURVE SMOOTH",
"1117 292 OFFCURVE",
"992 150 OFFCURVE",
"786 150 CURVE SMOOTH"
);
}
);
width = 1609;
},
{
anchors = (
{
name = btm;
position = "{805, -170}";
},
{
name = top;
position = "{806, 1700}";
}
);
background = {
anchors = (
{
name = btm;
position = "{805, -170}";
},
{
name = top;
position = "{806, 1700}";
}
);
paths = (
{
closed = 1;
nodes = (
"102 0 LINE",
"194 0 OFFCURVE",
"274 0 OFFCURVE",
"365 0 CURVE SMOOTH",
"483 0 OFFCURVE",
"600 -14 OFFCURVE",
"698 -16 CURVE SMOOTH",
"1154 -27 OFFCURVE",
"1475 305 OFFCURVE",
"1475 806 CURVE SMOOTH",
"1475 1246 OFFCURVE",
"1256 1538 OFFCURVE",
"724 1538 CURVE SMOOTH",
"603 1538 OFFCURVE",
"488 1522 OFFCURVE",
"362 1522 CURVE SMOOTH",
"114 1522 LINE",
"114 1434 LINE",
"302 1408 LINE",
"278 1445 LINE",
"278 67 LINE",
"318 112 LINE",
"102 88 LINE"
);
},
{
closed = 1;
nodes = (
"447 1427 LINE",
"503 1430 OFFCURVE",
"579 1440 OFFCURVE",
"672 1440 CURVE SMOOTH",
"1087 1440 OFFCURVE",
"1294 1217 OFFCURVE",
"1294 771 CURVE SMOOTH",
"1294 326 OFFCURVE",
"1053 89 OFFCURVE",
"723 83 CURVE SMOOTH",
"629 81 OFFCURVE",
"545 82 OFFCURVE",
"447 100 CURVE"
);
}
);
};
layerId = "6D8A9A52-7D7D-4498-B039-FDF10F245A16";
name = Light;
paths = (
{
closed = 1;
nodes = (
"601 1578 OFFCURVE",
"490 1562 OFFCURVE",
"362 1562 CURVE SMOOTH",
"63 1562 LINE",
"63 1474 LINE",
"232 1440 LINE SMOOTH",
"260 1434 OFFCURVE",
"278 1412 OFFCURVE",
"278 1384 CURVE SMOOTH",
"278 179 LINE SMOOTH",
"278 146 OFFCURVE",
"259 123 OFFCURVE",
"224 117 CURVE SMOOTH",
"63 88 LINE",
"63 0 LINE",
"365 0 LINE SMOOTH",
"484 0 OFFCURVE",
"610 -13 OFFCURVE",
"699 -15 CURVE SMOOTH",
"1170 -25 OFFCURVE",
"1476 265 OFFCURVE",
"1476 824 CURVE SMOOTH",
"1476 1306 OFFCURVE",
"1248 1578 OFFCURVE",
"728 1578 CURVE SMOOTH"
);
},
{
closed = 1;
nodes = (
"640 82 OFFCURVE",
"514 90 OFFCURVE",
"448 101 CURVE",
"448 1465 LINE",
"503 1468 OFFCURVE",
"581 1478 OFFCURVE",
"673 1478 CURVE SMOOTH",
"1088 1478 OFFCURVE",
"1295 1277 OFFCURVE",
"1295 793 CURVE SMOOTH",
"1295 311 OFFCURVE",
"1089 97 OFFCURVE",
"724 85 CURVE SMOOTH"
);
}
);
width = 1548;
}
);
unicode = 0044;
},
{
color = 9;
glyphname = E;
lastChange = "2015-09-30 17:52:54 +0000";
layers = (
{
anchors = (
{
name = btm;
position = "{759, -170}";
},
{
name = top;
position = "{742, 1700}";
}
);
background = {
anchors = (
{
name = btm;
position = "{759, -170}";
},
{
name = top;
position = "{742, 1700}";
}
);
paths = (
{
closed = 1;
nodes = (
"101 0 LINE",
"1339 0 LINE",
"1383 399 LINE",
"1182 454 LINE",
"1050 187 LINE",
"666 156 LINE",
"666 684 LINE",
"873 679 LINE",
"910 500 LINE",
"1064 500 LINE",
"1064 1034 LINE",
"910 1034 LINE",
"871 868 LINE",
"666 863 LINE",
"666 1373 LINE",
"1017 1348 LINE",
"1094 1138 LINE",
"1279 1138 LINE",
"1251 1522 LINE",
"95 1522 LINE",
"95 1360 LINE",
"289 1322 LINE",
"250 1418 LINE",
"250 131 LINE",
"285 181 LINE",
"101 152 LINE"
);
}
);
};
layerId = "6AFE116F-39E0-4FF2-A27B-879B4E5E3272";
name = Bold;
paths = (
{
closed = 1;
nodes = (
"1301 1125 LINE",
"1305 1273 OFFCURVE",
"1297 1417 OFFCURVE",
"1273 1562 CURVE",
"50 1562 LINE",
"50 1400 LINE",
"205 1370 LINE SMOOTH",
"235 1364 OFFCURVE",
"250 1345 OFFCURVE",
"250 1315 CURVE SMOOTH",
"250 237 LINE SMOOTH",
"250 207 OFFCURVE",
"235 189 OFFCURVE",
"205 183 CURVE SMOOTH",
"50 154 LINE",
"50 0 LINE",
"1325 0 LINE",
"1350 169 OFFCURVE",
"1362 327 OFFCURVE",
"1362 495 CURVE",
"1169 525 LINE",
"1073 260 LINE SMOOTH",
"1058 223 OFFCURVE",
"1049 206 OFFCURVE",
"1020 194 CURVE SMOOTH",
"988 181 OFFCURVE",
"909 172 OFFCURVE",
"848 172 CURVE SMOOTH",
"666 172 LINE",
"666 700 LINE",
"803 700 LINE SMOOTH",
"832 700 OFFCURVE",
"851 688 OFFCURVE",
"860 660 CURVE SMOOTH",
"909 510 LINE",
"1063 510 LINE",
"1063 1059 LINE",
"909 1059 LINE",
"859 925 LINE SMOOTH",
"849 899 OFFCURVE",
"829 886 OFFCURVE",
"801 886 CURVE SMOOTH",
"666 886 LINE",
"666 1397 LINE",
"816 1397 LINE SMOOTH",
"877 1397 OFFCURVE",
"941 1388 OFFCURVE",
"973 1375 CURVE SMOOTH",
"1002 1363 OFFCURVE",
"1018 1344 OFFCURVE",
"1032 1309 CURVE SMOOTH",
"1108 1125 LINE"
);
}
);
width = 1392;
},
{
anchors = (
{
name = btm;
position = "{698, -170}";
},
{
name = top;
position = "{696, 1700}";
}
);
background = {
anchors = (
{
name = btm;
position = "{698, -170}";
},
{
name = top;
position = "{696, 1700}";
}
);
paths = (
{
closed = 1;
nodes = (
"103 0 LINE",
"1212 0 LINE",
"1275 346 LINE",
"1178 377 LINE",
"1074 121 LINE",
"447 104 LINE",
"447 735 LINE",
"824 730 LINE",
"849 555 LINE",
"953 555 LINE",
"953 1007 LINE",
"849 1007 LINE",
"824 837 LINE",
"447 831 LINE",
"447 1427 LINE",
"995 1418 LINE",
"1051 1221 LINE",
"1148 1221 LINE",
"1120 1522 LINE",
"107 1522 LINE",
"107 1434 LINE",
"299 1409 LINE",
"278 1453 LINE",
"278 66 LINE",
"325 113 LINE",
"103 88 LINE"
);
}
);
};
layerId = "6D8A9A52-7D7D-4498-B039-FDF10F245A16";
name = Light;
paths = (
{
closed = 1;
nodes = (
"1176 1192 LINE",
"1178 1325 OFFCURVE",
"1169 1442 OFFCURVE",
"1151 1562 CURVE",
"62 1562 LINE",
"62 1474 LINE",
"223 1442 LINE SMOOTH",
"258 1435 OFFCURVE",
"277 1412 OFFCURVE",
"277 1377 CURVE SMOOTH",
"277 182 LINE SMOOTH",
"277 146 OFFCURVE",
"259 124 OFFCURVE",
"223 117 CURVE SMOOTH",
"62 88 LINE",
"62 0 LINE",
"1192 0 LINE",
"1217 119 OFFCURVE",
"1237 265 OFFCURVE",
"1240 384 CURVE",
"1152 397 LINE",
"1076 189 LINE SMOOTH",
"1066 161 OFFCURVE",
"1050 143 OFFCURVE",
"1019 132 CURVE SMOOTH",
"968 114 OFFCURVE",
"883 108 OFFCURVE",
"786 108 CURVE SMOOTH",
"447 108 LINE",
"447 749 LINE",
"763 749 LINE SMOOTH",
"800 749 OFFCURVE",
"816 728 OFFCURVE",
"827 694 CURVE SMOOTH",
"868 565 LINE",
"956 565 LINE",
"956 1037 LINE",
"868 1037 LINE",
"827 910 LINE SMOOTH",
"816 876 OFFCURVE",
"800 855 OFFCURVE",
"763 855 CURVE SMOOTH",
"447 855 LINE",
"447 1464 LINE",
"724 1464 LINE SMOOTH",
"821 1464 OFFCURVE",
"906 1458 OFFCURVE",
"957 1440 CURVE SMOOTH",
"988 1429 OFFCURVE",
"1003 1411 OFFCURVE",
"1014 1383 CURVE SMOOTH",
"1087 1192 LINE"
);
}
);
width = 1330;
}
);
unicode = 0045;
},
{
color = 9;
glyphname = F;
lastChange = "2015-09-29 15:32:12 +0000";
layers = (
{
anchors = (
{
name = btm;
position = "{705, -170}";
},
{
name = top;
position = "{705, 1700}";
}
);
background = {
anchors = (
{
name = btm;
position = "{705, -170}";
},
{
name = top;
position = "{705, 1700}";
}
);
paths = (
{
closed = 1;
nodes = (
"100 0 LINE",
"975 0 LINE",
"975 152 LINE",
"625 179 LINE",
"666 116 LINE",
"666 639 LINE",
"882 631 LINE",
"928 436 LINE",
"1088 436 LINE",
"1088 1015 LINE",
"926 1015 LINE",
"882 825 LINE",
"666 820 LINE",
"666 1373 LINE",
"993 1341 LINE",
"1085 1122 LINE",
"1295 1122 LINE",
"1271 1522 LINE",
"93 1522 LINE",
"93 1360 LINE",
"295 1322 LINE",
"250 1382 LINE",
"250 131 LINE",
"283 181 LINE",
"100 152 LINE"
);
}
);
};
layerId = "6AFE116F-39E0-4FF2-A27B-879B4E5E3272";
name = Bold;
paths = (
{
closed = 1;
nodes = (
"666 670 LINE",
"801 670 LINE SMOOTH",
"830 670 OFFCURVE",
"849 658 OFFCURVE",
"858 630 CURVE SMOOTH",
"907 480 LINE",
"1061 480 LINE",
"1061 1029 LINE",
"907 1029 LINE",
"857 895 LINE SMOOTH",
"847 869 OFFCURVE",
"827 856 OFFCURVE",
"799 856 CURVE SMOOTH",
"666 856 LINE",
"666 1397 LINE",
"808 1397 LINE SMOOTH",
"869 1397 OFFCURVE",
"933 1388 OFFCURVE",
"965 1375 CURVE SMOOTH",
"994 1363 OFFCURVE",
"1010 1344 OFFCURVE",
"1024 1309 CURVE SMOOTH",
"1100 1125 LINE",
"1293 1125 LINE",
"1299 1273 OFFCURVE",
"1294 1417 OFFCURVE",
"1265 1562 CURVE",
"50 1562 LINE",
"50 1400 LINE",
"205 1370 LINE SMOOTH",
"235 1364 OFFCURVE",
"250 1345 OFFCURVE",
"250 1315 CURVE SMOOTH",
"250 232 LINE SMOOTH",
"250 208 OFFCURVE",
"233 189 OFFCURVE",
"209 184 CURVE SMOOTH",
"50 154 LINE",
"50 0 LINE",
"967 0 LINE",
"967 154 LINE",
"710 184 LINE SMOOTH",
"684 187 OFFCURVE",
"666 206 OFFCURVE",
"666 232 CURVE SMOOTH"
);
}
);
width = 1335;
},
{
anchors = (
{
name = btm;
position = "{644, -170}";
},
{
name = top;
position = "{644, 1700}";
}
);
background = {
anchors = (
{
name = btm;
position = "{644, -170}";
},
{
name = top;
position = "{644, 1700}";
}
);
paths = (
{
closed = 1;
nodes = (
"111 0 LINE",
"767 0 LINE",
"767 88 LINE",
"406 110 LINE",
"447 66 LINE",
"447 722 LINE",
"856 714 LINE",
"890 541 LINE",
"985 541 LINE",
"985 994 LINE",
"890 994 LINE",
"856 827 LINE",
"447 821 LINE",
"447 1427 LINE",
"1024 1418 LINE",
"1080 1185 LINE",
"1192 1185 LINE",
"1171 1522 LINE",
"99 1522 LINE",
"99 1434 LINE",
"321 1406 LINE",
"278 1450 LINE",
"278 66 LINE",
"322 111 LINE",
"111 88 LINE"
);
}
);
};
layerId = "6D8A9A52-7D7D-4498-B039-FDF10F245A16";
name = Light;
paths = (
{
closed = 1;
nodes = (
"447 729 LINE",
"748 729 LINE SMOOTH",
"785 729 OFFCURVE",
"801 708 OFFCURVE",
"812 674 CURVE SMOOTH",
"853 545 LINE",
"941 545 LINE",
"941 1017 LINE",
"853 1017 LINE",
"812 890 LINE SMOOTH",
"801 856 OFFCURVE",
"785 835 OFFCURVE",
"748 835 CURVE SMOOTH",
"447 835 LINE",
"447 1464 LINE",
"724 1464 LINE SMOOTH",
"821 1464 OFFCURVE",
"906 1458 OFFCURVE",
"957 1440 CURVE SMOOTH",
"988 1429 OFFCURVE",
"1003 1411 OFFCURVE",
"1014 1383 CURVE SMOOTH",
"1087 1192 LINE",
"1176 1192 LINE",
"1181 1325 OFFCURVE",
"1173 1439 OFFCURVE",
"1150 1562 CURVE",
"62 1562 LINE",
"62 1474 LINE",
"223 1442 LINE SMOOTH",
"258 1435 OFFCURVE",
"277 1412 OFFCURVE",
"277 1377 CURVE SMOOTH",
"277 182 LINE SMOOTH",
"277 146 OFFCURVE",
"259 124 OFFCURVE",
"223 117 CURVE SMOOTH",
"62 88 LINE",
"62 0 LINE",
"751 0 LINE",
"751 88 LINE",
"498 121 LINE SMOOTH",
"468 125 OFFCURVE",
"447 149 OFFCURVE",
"447 179 CURVE SMOOTH"
);
}
);
width = 1264;
}
);
unicode = 0046;
},
{
color = 9;
glyphname = G;
lastChange = "2015-10-01 15:31:46 +0000";
layers = (
{
anchors = (
{
name = btm;
position = "{773, -170}";
},
{
name = top;
position = "{869, 1700}";
}
);
background = {
anchors = (
{
name = btm;
position = "{773, -170}";
},
{
name = top;
position = "{869, 1700}";
}
);
paths = (
{
closed = 1;
nodes = (
"780 -23 CURVE SMOOTH",
"1058 -23 OFFCURVE",
"1294 77 OFFCURVE",
"1403 82 CURVE",
"1403 627 LINE",
"1251 589 LINE",
"1497 630 LINE",
"1497 793 LINE",
"839 793 LINE",
"839 630 LINE",
"1179 584 LINE",
"997 631 LINE",
"997 194 LINE",
"968 161 OFFCURVE",
"901 135 OFFCURVE",
"819 135 CURVE SMOOTH",
"604 135 OFFCURVE",
"531 382 OFFCURVE",
"531 772 CURVE SMOOTH",
"531 1175 OFFCURVE",
"634 1391 OFFCURVE",
"849 1391 CURVE SMOOTH",
"947 1391 OFFCURVE",
"992 1363 OFFCURVE",
"1005 1346 CURVE",
"1068 1062 LINE",
"1363 1062 LINE",
"1390 1479 LINE",
"1317 1496 OFFCURVE",
"1073 1543 OFFCURVE",
"853 1543 CURVE SMOOTH",
"339 1543 OFFCURVE",
"48 1265 OFFCURVE",
"48 752 CURVE SMOOTH",
"48 316 OFFCURVE",
"301 -23 OFFCURVE"
);
}
);
};
layerId = "6AFE116F-39E0-4FF2-A27B-879B4E5E3272";
name = Bold;
paths = (
{
closed = 1;
nodes = (
"940 -28 OFFCURVE",
"1102 86 OFFCURVE",
"1173 214 CURVE",
"1106 326 LINE",
"1050 242 OFFCURVE",
"958 180 OFFCURVE",
"816 180 CURVE SMOOTH",
"589 180 OFFCURVE",
"531 366 OFFCURVE",
"531 750 CURVE SMOOTH",
"531 1233 OFFCURVE",
"624 1433 OFFCURVE",
"840 1433 CURVE SMOOTH",
"906 1433 OFFCURVE",
"951 1412 OFFCURVE",
"982 1386 CURVE SMOOTH",
"1006 1366 OFFCURVE",
"1019 1351 OFFCURVE",
"1030 1308 CURVE SMOOTH",
"1088 1073 LINE",
"1340 1073 LINE",
"1362 1219 OFFCURVE",
"1371 1367 OFFCURVE",
"1361 1501 CURVE",
"1225 1552 OFFCURVE",
"1034 1593 OFFCURVE",
"846 1593 CURVE SMOOTH",
"329 1593 OFFCURVE",
"48 1335 OFFCURVE",
"48 765 CURVE SMOOTH",
"48 257 OFFCURVE",
"274 -28 OFFCURVE",
"686 -28 CURVE SMOOTH"
);
},
{
closed = 1;
nodes = (
"1400 26 LINE",
"1400 634 LINE",
"1497 650 LINE",
"1497 813 LINE",
"839 813 LINE",
"839 650 LINE",
"1009 629 LINE",
"1009 141 LINE",
"1101 141 LINE",
"1325 -18 LINE"
);
}
);
width = 1536;
},
{
anchors = (
{
name = btm;
position = "{784, -170}";
},
{
name = top;
position = "{820, 1700}";
}
);
background = {
anchors = (
{
name = btm;
position = "{784, -170}";
},
{
name = top;
position = "{820, 1700}";
}
);
paths = (
{
closed = 1;
nodes = (
"803 -23 CURVE SMOOTH",
"1077 -23 OFFCURVE",
"1237 77 OFFCURVE",
"1345 82 CURVE",
"1345 669 LINE",
"1292 627 LINE",
"1471 657 LINE",
"1471 765 LINE",
"889 765 LINE",
"889 657 LINE",
"1233 632 LINE",
"1173 671 LINE",
"1173 170 LINE",
"1100 113 OFFCURVE",
"961 76 OFFCURVE",
"816 76 CURVE SMOOTH",
"458 76 OFFCURVE",
"291 428 OFFCURVE",
"291 789 CURVE SMOOTH",
"291 1220 OFFCURVE",
"531 1440 OFFCURVE",
"847 1440 CURVE SMOOTH",
"1040 1440 OFFCURVE",
"1130 1394 OFFCURVE",
"1161 1371 CURVE",
"1206 1134 LINE",
"1313 1134 LINE",
"1329 1474 LINE",
"1259 1491 OFFCURVE",
"1077 1538 OFFCURVE",
"866 1538 CURVE SMOOTH",
"439 1538 OFFCURVE",
"99 1250 OFFCURVE",
"99 736 CURVE SMOOTH",
"99 304 OFFCURVE",
"359 -23 OFFCURVE"
);
}
);
};
layerId = "6D8A9A52-7D7D-4498-B039-FDF10F245A16";
name = Light;
paths = (
{
closed = 1;
nodes = (
"1006 -23 OFFCURVE",
"1163 55 OFFCURVE",
"1275 218 CURVE",
"1252 314 LINE",
"1160 150 OFFCURVE",
"1003 102 OFFCURVE",
"842 102 CURVE SMOOTH",
"455 102 OFFCURVE",
"301 410 OFFCURVE",
"301 793 CURVE SMOOTH",
"301 1260 OFFCURVE",
"530 1480 OFFCURVE",
"833 1480 CURVE SMOOTH",
"954 1480 OFFCURVE",
"1058 1453 OFFCURVE",
"1118 1418 CURVE SMOOTH",
"1149 1400 OFFCURVE",
"1161 1380 OFFCURVE",
"1170 1341 CURVE SMOOTH",
"1213 1148 LINE",
"1313 1148 LINE",
"1328 1261 OFFCURVE",
"1339 1365 OFFCURVE",
"1334 1478 CURVE",
"1199 1551 OFFCURVE",
"1040 1578 OFFCURVE",
"880 1578 CURVE SMOOTH",
"429 1578 OFFCURVE",
"109 1300 OFFCURVE",
"109 760 CURVE SMOOTH",
"109 300 OFFCURVE",
"342 -23 OFFCURVE",
"790 -23 CURVE SMOOTH"
);
},
{
closed = 1;
nodes = (
"1345 10 LINE",
"1345 656 LINE",
"1471 677 LINE",
"1471 785 LINE",
"869 785 LINE",
"869 677 LINE",
"1173 656 LINE",
"1173 128 LINE",
"1184 128 LINE",
"1299 -7 LINE"
);
}
);
width = 1511;
}
);
unicode = 0047;
},
{
color = 9;
glyphname = H;
lastChange = "2015-10-01 09:38:01 +0000";
layers = (
{
anchors = (
{
name = btm;
position = "{840, -170}";
},
{
name = top;
position = "{931, 1700}";
}
);
background = {
anchors = (
{
name = btm;
position = "{840, -170}";
},
{
name = top;
position = "{931, 1700}";
}
);
paths = (
{
closed = 1;
nodes = (
"131 0 LINE",
"849 0 LINE",
"849 152 LINE",
"636 183 LINE",
"686 138 LINE",
"686 674 LINE",
"1169 674 LINE",
"1169 140 LINE",
"1230 186 LINE",
"1020 152 LINE",
"1020 0 LINE",
"1729 0 LINE",
"1729 152 LINE",
"1515 186 LINE",
"1583 140 LINE",
"1583 1371 LINE",
"1541 1323 LINE",
"1729 1360 LINE",
"1729 1522 LINE",
"1019 1522 LINE",
"1019 1360 LINE",
"1201 1324 LINE",
"1169 1369 LINE",
"1169 870 LINE",
"686 870 LINE",
"686 1368 LINE",
"648 1324 LINE",
"849 1360 LINE",
"849 1522 LINE",
"133 1522 LINE",
"133 1360 LINE",
"315 1322 LINE",
"272 1365 LINE",
"272 139 LINE",
"308 181 LINE",
"131 152 LINE"
);
}
);
};
layerId = "6AFE116F-39E0-4FF2-A27B-879B4E5E3272";
name = Bold;
paths = (
{
closed = 1;
nodes = (
"1785 1562 LINE",
"1019 1562 LINE",
"1019 1400 LINE",
"1126 1370 LINE SMOOTH",
"1154 1362 OFFCURVE",
"1169 1343 OFFCURVE",
"1169 1314 CURVE SMOOTH",
"1169 890 LINE",
"666 890 LINE",
"666 1314 LINE SMOOTH",
"666 1346 OFFCURVE",
"680 1363 OFFCURVE",
"709 1370 CURVE SMOOTH",
"829 1400 LINE",
"829 1562 LINE",
"50 1562 LINE",
"50 1400 LINE",
"206 1370 LINE SMOOTH",
"235 1364 OFFCURVE",
"250 1346 OFFCURVE",
"250 1314 CURVE SMOOTH",
"250 236 LINE SMOOTH",
"250 206 OFFCURVE",
"235 187 OFFCURVE",
"205 182 CURVE SMOOTH",
"50 154 LINE",
"50 0 LINE",
"829 0 LINE",
"829 154 LINE",
"710 182 LINE SMOOTH",
"681 189 OFFCURVE",
"666 206 OFFCURVE",
"666 236 CURVE SMOOTH",
"666 694 LINE",
"1169 694 LINE",
"1169 236 LINE SMOOTH",
"1169 206 OFFCURVE",
"1154 190 OFFCURVE",
"1125 182 CURVE SMOOTH",
"1020 154 LINE",
"1020 0 LINE",
"1785 0 LINE",
"1785 154 LINE",
"1630 182 LINE SMOOTH",
"1600 187 OFFCURVE",
"1585 206 OFFCURVE",
"1585 236 CURVE SMOOTH",
"1585 1314 LINE SMOOTH",
"1585 1342 OFFCURVE",
"1600 1364 OFFCURVE",
"1629 1370 CURVE SMOOTH",
"1785 1400 LINE"
);
}
);
width = 1835;
},
{
anchors = (
{
name = btm;
position = "{890, -170}";
},
{
name = top;
position = "{895, 1700}";
}
);
background = {
anchors = (
{
name = btm;
position = "{890, -170}";
},
{
name = top;
position = "{895, 1700}";
}
);
paths = (
{
closed = 1;
nodes = (
"161 0 LINE",
"683 0 LINE",
"683 88 LINE",
"460 111 LINE",
"504 86 LINE",
"504 728 LINE",
"1285 728 LINE",
"1285 76 LINE",
"1341 113 LINE",
"1114 88 LINE",
"1114 0 LINE",
"1623 0 LINE",
"1623 88 LINE",
"1400 113 LINE",
"1455 76 LINE",
"1455 1449 LINE",
"1421 1407 LINE",
"1623 1434 LINE",
"1623 1522 LINE",
"1115 1522 LINE",
"1115 1434 LINE",
"1320 1407 LINE",
"1285 1448 LINE",
"1285 836 LINE",
"504 836 LINE",
"504 1446 LINE",
"473 1408 LINE",
"682 1434 LINE",
"682 1522 LINE",
"167 1522 LINE",
"167 1434 LINE",
"369 1407 LINE",
"335 1444 LINE",
"335 92 LINE",
"384 113 LINE",
"161 88 LINE"
);
}
);
};
layerId = "6D8A9A52-7D7D-4498-B039-FDF10F245A16";
name = Light;
paths = (
{
closed = 1;
nodes = (
"1690 1562 LINE",
"1105 1562 LINE",
"1105 1474 LINE",
"1252 1442 LINE SMOOTH",
"1287 1434 OFFCURVE",
"1305 1413 OFFCURVE",
"1305 1377 CURVE SMOOTH",
"1305 856 LINE",
"505 856 LINE",
"505 1377 LINE SMOOTH",
"505 1413 OFFCURVE",
"523 1435 OFFCURVE",
"558 1442 CURVE SMOOTH",
"713 1474 LINE",
"713 1562 LINE",
"120 1562 LINE",
"120 1474 LINE",
"281 1442 LINE SMOOTH",
"316 1435 OFFCURVE",
"335 1412 OFFCURVE",
"335 1376 CURVE SMOOTH",
"335 183 LINE SMOOTH",
"335 147 OFFCURVE",
"317 125 OFFCURVE",
"281 118 CURVE SMOOTH",
"120 88 LINE",
"120 0 LINE",
"714 0 LINE",
"714 88 LINE",
"559 117 LINE SMOOTH",
"523 124 OFFCURVE",
"505 146 OFFCURVE",
"505 182 CURVE SMOOTH",
"505 748 LINE",
"1305 748 LINE",
"1305 183 LINE SMOOTH",
"1305 147 OFFCURVE",
"1286 124 OFFCURVE",
"1251 117 CURVE SMOOTH",
"1104 88 LINE",
"1104 0 LINE",
"1690 0 LINE",
"1690 88 LINE",
"1529 118 LINE SMOOTH",
"1493 125 OFFCURVE",
"1475 147 OFFCURVE",
"1475 183 CURVE SMOOTH",
"1475 1376 LINE SMOOTH",
"1475 1412 OFFCURVE",
"1494 1435 OFFCURVE",
"1529 1442 CURVE SMOOTH",
"1690 1474 LINE"
);
}
);
width = 1810;
}
);
rightMetricsKey = "=|";
unicode = 0048;
},
{
color = 9;
glyphname = I;
lastChange = "2015-09-29 15:31:17 +0000";
layers = (
{
anchors = (
{
name = btm;
position = "{491, -170}";
},
{
name = top;
position = "{454, 1700}";
}
);
background = {
anchors = (
{
name = btm;
position = "{491, -170}";
},
{
name = top;
position = "{454, 1700}";
}
);
paths = (
{
closed = 1;
nodes = (
"97 0 LINE",
"828 0 LINE",
"828 150 LINE",
"619 183 LINE",
"666 128 LINE",
"666 1371 LINE",
"629 1324 LINE",
"828 1360 LINE",
"828 1522 LINE",
"94 1522 LINE",
"94 1360 LINE",
"295 1322 LINE",
"250 1368 LINE",
"250 125 LINE",
"281 181 LINE",
"97 152 LINE"
);
}
);
};
layerId = "6AFE116F-39E0-4FF2-A27B-879B4E5E3272";
name = Bold;
paths = (
{
closed = 1;
nodes = (
"866 1562 LINE",
"50 1562 LINE",
"50 1400 LINE",
"205 1370 LINE SMOOTH",
"235 1364 OFFCURVE",
"250 1345 OFFCURVE",
"250 1315 CURVE SMOOTH",
"250 237 LINE SMOOTH",
"250 207 OFFCURVE",
"235 189 OFFCURVE",
"205 183 CURVE SMOOTH",
"50 154 LINE",
"50 0 LINE",
"866 0 LINE",
"866 154 LINE",
"711 184 LINE SMOOTH",
"681 190 OFFCURVE",
"666 208 OFFCURVE",
"666 238 CURVE SMOOTH",
"666 1315 LINE SMOOTH",
"666 1345 OFFCURVE",
"681 1364 OFFCURVE",
"711 1370 CURVE SMOOTH",
"866 1400 LINE"
);
}
);
width = 916;
},
{
anchors = (
{
name = btm;
position = "{423, -170}";
},
{
name = top;
position = "{423, 1700}";
}
);
background = {
anchors = (
{
name = btm;
position = "{423, -170}";
},
{
name = top;
position = "{423, 1700}";
}
);
paths = (
{
closed = 1;
nodes = (
"135 0 LINE",
"704 0 LINE",
"704 87 LINE",
"468 111 LINE",
"505 59 LINE",
"505 1452 LINE",
"474 1409 LINE",
"704 1434 LINE",
"704 1522 LINE",
"135 1522 LINE",
"135 1434 LINE",
"374 1407 LINE",
"335 1452 LINE",
"335 59 LINE",
"371 111 LINE",
"135 88 LINE"
);
}
);
};
layerId = "6D8A9A52-7D7D-4498-B039-FDF10F245A16";
name = Light;
paths = (
{
closed = 1;
nodes = (
"720 1562 LINE",
"120 1562 LINE",
"120 1474 LINE",
"281 1442 LINE SMOOTH",
"316 1435 OFFCURVE",
"335 1412 OFFCURVE",
"335 1377 CURVE SMOOTH",
"335 182 LINE SMOOTH",
"335 146 OFFCURVE",
"317 124 OFFCURVE",
"281 117 CURVE SMOOTH",
"120 88 LINE",
"120 0 LINE",
"720 0 LINE",
"720 88 LINE",
"559 117 LINE SMOOTH",
"523 124 OFFCURVE",
"505 145 OFFCURVE",
"505 182 CURVE SMOOTH",
"505 1377 LINE SMOOTH",
"505 1413 OFFCURVE",
"524 1435 OFFCURVE",
"559 1442 CURVE SMOOTH",
"720 1474 LINE"
);
}
);
width = 840;
}
);
rightMetricsKey = "=|";
unicode = 0049;
},
{
color = 9;
glyphname = J;
lastChange = "2015-10-01 09:19:58 +0000";
layers = (
{
anchors = (
{
name = btm;
position = "{346, -170}";
},
{
name = top;
position = "{442, 1700}";
}
);
background = {
anchors = (
{
name = btm;
position = "{346, -170}";
},
{
name = top;
position = "{442, 1700}";
}
);
paths = (
{
closed = 1;
nodes = (
"40 -411 LINE",
"370 -360 OFFCURVE",
"550 -187 OFFCURVE",
"616 25 CURVE SMOOTH",
"640 108 OFFCURVE",
"649 295 OFFCURVE",
"649 563 CURVE SMOOTH",
"649 1386 LINE",
"593 1320 LINE",
"800 1360 LINE",
"800 1522 LINE",
"73 1522 LINE",
"73 1360 LINE",
"276 1323 LINE",
"237 1383 LINE",
"237 347 LINE",
"237 161 OFFCURVE",
"219 59 OFFCURVE",
"195 -10 CURVE SMOOTH",
"143 -160 OFFCURVE",
"37 -244 OFFCURVE",
"-49 -277 CURVE"
);
}
);
};
layerId = "6AFE116F-39E0-4FF2-A27B-879B4E5E3272";
name = Bold;
paths = (
{
closed = 1;
nodes = (
"653 1345 OFFCURVE",
"668 1363 OFFCURVE",
"698 1370 CURVE SMOOTH",
"833 1400 LINE",
"833 1562 LINE",
"37 1562 LINE",
"37 1400 LINE",
"192 1370 LINE SMOOTH",
"222 1364 OFFCURVE",
"237 1345 OFFCURVE",
"237 1315 CURVE SMOOTH",
"237 286 LINE SMOOTH",
"237 -36 OFFCURVE",
"199 -140 OFFCURVE",
"-72 -269 CURVE",
"-5 -433 LINE",
"523 -314 OFFCURVE",
"653 -131 OFFCURVE",
"653 334 CURVE SMOOTH",
"653 1315 LINE SMOOTH"
);
}
);
width = 830;
},
{
anchors = (
{
name = btm;
position = "{294, -170}";
},
{
name = top;
position = "{390, 1700}";
}
);
background = {
anchors = (
{
name = btm;
position = "{294, -170}";
},
{
name = top;
position = "{390, 1700}";
}
);
paths = (
{
closed = 1;
nodes = (
"42 -354 LINE",
"219 -321 OFFCURVE",
"413 -192 OFFCURVE",
"460 43 CURVE SMOOTH",
"485 169 OFFCURVE",
"482 336 OFFCURVE",
"482 563 CURVE SMOOTH",
"482 1457 LINE",
"427 1404 LINE",
"677 1434 LINE",
"677 1522 LINE",
"107 1522 LINE",
"107 1434 LINE",
"369 1404 LINE",
"312 1457 LINE",
"312 518 LINE",
"312 212 OFFCURVE",
"307 99 OFFCURVE",
"270 -18 CURVE SMOOTH",
"227 -156 OFFCURVE",
"119 -248 OFFCURVE",
"-3 -281 CURVE"
);
}
);
};
layerId = "6D8A9A52-7D7D-4498-B039-FDF10F245A16";
name = Light;
paths = (
{
closed = 1;
nodes = (
"482 1413 OFFCURVE",
"501 1434 OFFCURVE",
"536 1442 CURVE SMOOTH",
"677 1474 LINE",
"677 1562 LINE",
"97 1562 LINE",
"97 1474 LINE",
"258 1442 LINE SMOOTH",
"293 1435 OFFCURVE",
"312 1412 OFFCURVE",
"312 1377 CURVE SMOOTH",
"312 411 LINE SMOOTH",
"312 37 OFFCURVE",
"253 -88 OFFCURVE",
"7 -281 CURVE",
"54 -364 LINE",
"444 -166 OFFCURVE",
"482 -5 OFFCURVE",
"482 449 CURVE SMOOTH",
"482 1377 LINE SMOOTH"
);
}
);
width = 767;
}
);
unicode = 004A;
},
{
color = 9;
glyphname = K;
lastChange = "2015-09-30 12:18:32 +0000";
layers = (
{
anchors = (
{
name = btm;
position = "{843, -170}";
},
{
name = top;
position = "{815, 1700}";
}
);
background = {
anchors = (
{
name = btm;
position = "{843, -170}";
},
{
name = top;
position = "{815, 1700}";
}
);
paths = (
{
closed = 1;
nodes = (
"98 0 LINE",
"826 0 LINE",
"826 151 LINE",
"622 181 LINE",
"664 136 LINE",
"664 643 LINE",
"609 432 LINE",
"830 695 LINE",
"997 894 LINE",
"1486 1451 LINE",
"1337 1324 LINE",
"1570 1361 LINE",
"1570 1522 LINE",
"948 1522 LINE",
"949 1360 LINE",
"1142 1325 LINE",
"1205 1452 LINE",
"664 730 LINE",
"664 1376 LINE",
"625 1321 LINE",
"804 1360 LINE",
"804 1522 LINE",
"98 1522 LINE",
"98 1360 LINE",
"282 1324 LINE",
"250 1367 LINE",
"250 130 LINE",
"266 179 LINE",
"98 152 LINE"
);
},
{
closed = 1;
nodes = (
"1640 0 LINE",
"1640 152 LINE",
"1543 175 LINE",
"1463 235 OFFCURVE",
"1215 826 OFFCURVE",
"1027 973 CURVE",
"889 891 LINE",
"757 727 LINE",
"900 595 OFFCURVE",
"1088 0 OFFCURVE",
"1167 0 CURVE"
);
}
);
};
layerId = "6AFE116F-39E0-4FF2-A27B-879B4E5E3272";
name = Bold;
paths = (
{
closed = 1;
nodes = (
"862 0 LINE",
"862 152 LINE",
"710 179 LINE SMOOTH",
"680 184 OFFCURVE",
"664 201 OFFCURVE",
"664 232 CURVE SMOOTH",
"664 1315 LINE SMOOTH",
"664 1345 OFFCURVE",
"679 1364 OFFCURVE",
"709 1370 CURVE SMOOTH",
"864 1400 LINE",
"864 1562 LINE",
"50 1562 LINE",
"50 1400 LINE",
"205 1370 LINE SMOOTH",
"235 1364 OFFCURVE",
"250 1345 OFFCURVE",
"250 1315 CURVE SMOOTH",
"250 236 LINE SMOOTH",
"250 206 OFFCURVE",
"234 189 OFFCURVE",
"204 183 CURVE SMOOTH",
"50 154 LINE",
"50 0 LINE"
);
},
{
closed = 1;
nodes = (
"911 810 LINE",
"1388 1339 LINE SMOOTH",
"1404 1357 OFFCURVE",
"1422 1365 OFFCURVE",
"1446 1370 CURVE SMOOTH",
"1610 1401 LINE",
"1610 1562 LINE",
"978 1562 LINE",
"979 1400 LINE",
"1162 1371 LINE",
"614 700 LINE",
"614 459 LINE"
);
},
{
closed = 1;
nodes = (
"1652 0 LINE",
"1652 152 LINE",
"1560 177 LINE SMOOTH",
"1515 189 OFFCURVE",
"1499 221 OFFCURVE",
"1488 243 CURVE SMOOTH",
"1274 656 LINE SMOOTH",
"1186 826 OFFCURVE",
"1134 919 OFFCURVE",
"1016 1043 CURVE",
"762 746 LINE",
"813 681 OFFCURVE",
"848 615 OFFCURVE",
"914 464 CURVE SMOOTH",
"1033 192 LINE SMOOTH",
"1083 78 OFFCURVE",
"1125 0 OFFCURVE",
"1185 0 CURVE SMOOTH"
);
}
);
width = 1700;
},
{
anchors = (
{
name = btm;
position = "{788, -170}";
},
{
name = top;
position = "{760, 1700}";
}
);
background = {
anchors = (
{
name = btm;
position = "{788, -170}";
},
{
name = top;
position = "{760, 1700}";
}
);
paths = (
{
closed = 1;
nodes = (
"109 0 LINE",
"646 0 LINE",
"646 85 LINE",
"419 111 LINE",
"453 68 LINE",
"453 630 LINE",
"398 458 LINE",
"706 808 LINE",
"750 858 LINE",
"1289 1460 LINE",
"1217 1408 LINE",
"1394 1434 LINE",
"1394 1522 LINE",
"920 1522 LINE",
"920 1434 LINE",
"1120 1409 LINE",
"1134 1460 LINE",
"453 666 LINE",
"453 1457 LINE",
"426 1408 LINE",
"629 1434 LINE",
"629 1522 LINE",
"113 1522 LINE",
"113 1434 LINE",
"304 1409 LINE",
"284 1457 LINE",
"284 74 LINE",
"314 111 LINE",
"109 88 LINE"
);
},
{
closed = 1;
nodes = (
"1460 0 LINE",
"1460 85 LINE",
"1364 108 LINE",
"1277 119 OFFCURVE",
"967 733 OFFCURVE",
"761 897 CURVE",
"702 856 LINE",
"647 799 LINE",
"842 636 OFFCURVE",
"1103 0 OFFCURVE",
"1215 0 CURVE"
);
}
);
};
layerId = "6D8A9A52-7D7D-4498-B039-FDF10F245A16";
name = Light;
paths = (
{
closed = 1;
nodes = (
"678 0 LINE",
"678 88 LINE",
"505 119 LINE SMOOTH",
"468 126 OFFCURVE",
"448 144 OFFCURVE",
"448 181 CURVE SMOOTH",
"448 1377 LINE SMOOTH",
"448 1413 OFFCURVE",
"467 1435 OFFCURVE",
"502 1442 CURVE SMOOTH",
"663 1474 LINE",
"663 1562 LINE",
"63 1562 LINE",
"63 1474 LINE",
"222 1442 LINE SMOOTH",
"257 1435 OFFCURVE",
"278 1415 OFFCURVE",
"278 1378 CURVE SMOOTH",
"278 181 LINE SMOOTH",
"278 144 OFFCURVE",
"257 125 OFFCURVE",
"221 118 CURVE SMOOTH",
"63 88 LINE",
"63 0 LINE"
);
},
{
closed = 1;
nodes = (
"733 853 LINE",
"1238 1404 LINE SMOOTH",
"1259 1426 OFFCURVE",
"1279 1435 OFFCURVE",
"1308 1442 CURVE SMOOTH",
"1444 1474 LINE",
"1444 1562 LINE",
"925 1562 LINE",
"925 1474 LINE",
"1108 1436 LINE",
"398 636 LINE",
"397 486 LINE"
);
},
{
closed = 1;
nodes = (
"1491 0 LINE",
"1491 88 LINE",
"1375 115 LINE SMOOTH",
"1327 126 OFFCURVE",
"1308 139 OFFCURVE",
"1271 197 CURVE SMOOTH",
"1009 610 LINE SMOOTH",
"904 777 OFFCURVE",
"839 876 OFFCURVE",
"763 953 CURVE",
"653 836 LINE",
"711 757 OFFCURVE",
"769 666 OFFCURVE",
"838 549 CURVE SMOOTH",
"1025 229 LINE SMOOTH",
"1110 85 OFFCURVE",
"1171 0 OFFCURVE",
"1213 0 CURVE SMOOTH"
);
}
);
width = 1544;
}
);
unicode = 004B;
},
{
color = 9;
glyphname = L;
lastChange = "2015-10-01 15:31:19 +0000";
layers = (
{
anchors = (
{
name = btm;
position = "{750, -170}";
},
{
name = top;
position = "{632, 1700}";
}
);
background = {
anchors = (
{
name = btm;
position = "{750, -170}";
},
{
name = top;
position = "{632, 1700}";
}
);
paths = (
{
closed = 1;
nodes = (
"101 0 LINE",
"1292 0 LINE",
"1345 608 LINE",
"1120 636 LINE",
"980 201 LINE",
"626 177 LINE",
"666 54 LINE",
"666 1371 LINE",
"613 1322 LINE",
"856 1360 LINE",
"856 1522 LINE",
"102 1522 LINE",
"102 1360 LINE",
"288 1322 LINE",
"250 1371 LINE",
"250 128 LINE",
"283 181 LINE",
"101 152 LINE"
);
}
);
};
layerId = "6AFE116F-39E0-4FF2-A27B-879B4E5E3272";
name = Bold;
paths = (
{
closed = 1;
nodes = (
"1039 263 LINE SMOOTH",
"1025 227 OFFCURVE",
"1009 209 OFFCURVE",
"980 197 CURVE SMOOTH",
"948 184 OFFCURVE",
"889 175 OFFCURVE",
"808 175 CURVE SMOOTH",
"666 175 LINE",
"666 1314 LINE SMOOTH",
"666 1344 OFFCURVE",
"682 1362 OFFCURVE",
"712 1367 CURVE SMOOTH",
"916 1400 LINE",
"916 1562 LINE",
"50 1562 LINE",
"50 1400 LINE",
"205 1370 LINE SMOOTH",
"234 1364 OFFCURVE",
"250 1346 OFFCURVE",
"250 1316 CURVE SMOOTH",
"250 237 LINE SMOOTH",
"250 207 OFFCURVE",
"234 189 OFFCURVE",
"204 183 CURVE SMOOTH",
"50 154 LINE",
"50 0 LINE",
"1332 0 LINE",
"1374 202 OFFCURVE",
"1382 407 OFFCURVE",
"1382 583 CURVE",
"1170 611 LINE"
);
}
);
width = 1432;
},
{
anchors = (
{
name = btm;
position = "{695, -170}";
},
{
name = top;
position = "{577, 1700}";
}
);
background = {
anchors = (
{
name = btm;
position = "{695, -170}";
},
{
name = top;
position = "{577, 1700}";
}
);
paths = (
{
closed = 1;
nodes = (
"109 0 LINE",
"1174 0 LINE",
"1249 426 LINE",
"1151 443 LINE",
"1036 122 LINE",
"407 106 LINE",
"453 50 LINE",
"453 1459 LINE",
"434 1410 LINE",
"657 1434 LINE",
"657 1522 LINE",
"113 1522 LINE",
"113 1434 LINE",
"304 1409 LINE",
"284 1459 LINE",
"284 58 LINE",
"327 112 LINE",
"109 88 LINE"
);
}
);
};
layerId = "6D8A9A52-7D7D-4498-B039-FDF10F245A16";
name = Light;
paths = (
{
closed = 1;
nodes = (
"1064 189 LINE SMOOTH",
"1054 160 OFFCURVE",
"1038 143 OFFCURVE",
"1007 132 CURVE SMOOTH",
"956 114 OFFCURVE",
"871 108 OFFCURVE",
"774 108 CURVE SMOOTH",
"453 108 LINE",
"453 1377 LINE SMOOTH",
"453 1414 OFFCURVE",
"472 1436 OFFCURVE",
"508 1442 CURVE SMOOTH",
"717 1474 LINE",
"717 1562 LINE",
"69 1562 LINE",
"69 1474 LINE",
"230 1443 LINE SMOOTH",
"266 1436 OFFCURVE",
"284 1414 OFFCURVE",
"284 1378 CURVE SMOOTH",
"284 180 LINE SMOOTH",
"284 144 OFFCURVE",
"266 122 OFFCURVE",
"230 116 CURVE SMOOTH",
"69 88 LINE",
"69 0 LINE",
"1197 0 LINE",
"1223 126 OFFCURVE",
"1242 308 OFFCURVE",
"1240 436 CURVE",
"1152 449 LINE"
);
}
);
width = 1293;
}
);
unicode = 004C;
},
{
color = 9;
glyphname = M;
lastChange = "2015-10-01 16:35:58 +0000";
layers = (
{
anchors = (
{
name = btm;
position = "{993, -170}";
},
{
name = top;
position = "{1156, 1700}";
}
);
background = {
anchors = (
{
name = btm;
position = "{993, -170}";
},
{
name = top;
position = "{1156, 1700}";
}
);
paths = (
{
closed = 1;
nodes = (
"75 0 LINE",
"694 0 LINE",
"694 152 LINE",
"443 181 LINE",
"477 78 LINE",
"539 1041 LINE",
"565 1479 LINE",
"540 1479 LINE",
"633 1043 LINE",
"922 53 LINE",
"1261 53 LINE",
"1485 1079 LINE",
"1561 1485 LINE",
"1531 1485 LINE",
"1581 1040 LINE",
"1681 65 LINE",
"1703 181 LINE",
"1502 152 LINE",
"1502 0 LINE",
"2259 0 LINE",
"2259 152 LINE",
"2066 181 LINE",
"2115 66 LINE",
"1923 1330 LINE",
"2142 1360 LINE",
"2142 1522 LINE",
"1378 1522 LINE",
"1210 700 LINE",
"1144 244 LINE",
"1222 244 LINE",
"1144 700 LINE",
"933 1522 LINE",
"182 1522 LINE",
"182 1360 LINE",
"377 1330 LINE",
"232 77 LINE",
"288 182 LINE",
"75 152 LINE"
);
}
);
};
layerId = "6AFE116F-39E0-4FF2-A27B-879B4E5E3272";
name = Bold;
paths = (
{
closed = 1;
nodes = (
"1945 1312 LINE SMOOTH",
"1940 1343 OFFCURVE",
"1955 1365 OFFCURVE",
"1986 1370 CURVE SMOOTH",
"2167 1400 LINE",
"2167 1562 LINE",
"1396 1562 LINE",
"1137 342 LINE",
"1226 342 LINE",
"928 1562 LINE",
"161 1562 LINE",
"161 1400 LINE",
"329 1370 LINE SMOOTH",
"359 1365 OFFCURVE",
"375 1343 OFFCURVE",
"371 1312 CURVE SMOOTH",
"243 234 LINE SMOOTH",
"239 204 OFFCURVE",
"224 187 OFFCURVE",
"196 182 CURVE SMOOTH",
"40 154 LINE",
"40 0 LINE",
"679 0 LINE",
"679 154 LINE",
"458 187 LINE",
"600 1472 LINE",
"535 1471 LINE",
"922 53 LINE",
"1261 53 LINE",
"1577 1469 LINE",
"1522 1470 LINE",
"1690 187 LINE",
"1512 154 LINE",
"1512 0 LINE",
"2299 0 LINE",
"2299 154 LINE",
"2150 182 LINE SMOOTH",
"2122 187 OFFCURVE",
"2106 205 OFFCURVE",
"2102 233 CURVE SMOOTH"
);
}
);
width = 2329;
},
{
anchors = (
{
name = btm;
position = "{1069, -170}";
},
{
name = top;
position = "{1078, 1700}";
}
);
background = {
anchors = (
{
name = btm;
position = "{1069, -170}";
},
{
name = top;
position = "{1078, 1700}";
}
);
paths = (
{
closed = 1;
nodes = (
"78 0 LINE",
"595 0 LINE",
"595 88 LINE",
"348 111 LINE",
"388 57 LINE",
"486 1041 LINE",
"534 1498 LINE",
"514 1498 LINE",
"657 1053 LINE",
"1041 74 LINE",
"1113 74 LINE",
"1450 1167 LINE",
"1542 1477 LINE",
"1531 1477 LINE",
"1587 1040 LINE",
"1744 47 LINE",
"1772 111 LINE",
"1545 88 LINE",
"1545 0 LINE",
"2091 0 LINE",
"2091 88 LINE",
"1883 111 LINE",
"1918 48 LINE",
"1689 1411 LINE",
"1924 1434 LINE",
"1924 1522 LINE",
"1448 1522 LINE",
"1151 576 LINE",
"1061 179 LINE",
"1124 179 LINE",
"1011 576 LINE",
"666 1522 LINE",
"187 1522 LINE",
"187 1434 LINE",
"419 1412 LINE",
"251 56 LINE",
"294 111 LINE",
"78 88 LINE"
);
}
);
};
layerId = "6D8A9A52-7D7D-4498-B039-FDF10F245A16";
name = Light;
paths = (
{
closed = 1;
nodes = (
"1695 1372 LINE SMOOTH",
"1689 1411 OFFCURVE",
"1705 1435 OFFCURVE",
"1743 1442 CURVE SMOOTH",
"1927 1474 LINE",
"1927 1562 LINE",
"1443 1562 LINE",
"1044 226 LINE",
"1125 226 LINE",
"669 1562 LINE",
"187 1562 LINE",
"187 1474 LINE",
"371 1442 LINE SMOOTH",
"408 1436 OFFCURVE",
"426 1412 OFFCURVE",
"421 1374 CURVE SMOOTH",
"276 178 LINE SMOOTH",
"272 144 OFFCURVE",
"253 122 OFFCURVE",
"219 116 CURVE SMOOTH",
"70 88 LINE",
"70 0 LINE",
"605 0 LINE",
"605 88 LINE",
"403 122 LINE",
"565 1505 LINE",
"506 1505 LINE",
"1011 69 LINE",
"1123 69 LINE",
"1557 1504 LINE",
"1496 1505 LINE",
"1724 122 LINE",
"1535 88 LINE",
"1535 0 LINE",
"2095 0 LINE",
"2095 88 LINE",
"1946 116 LINE SMOOTH",
"1913 122 OFFCURVE",
"1893 143 OFFCURVE",
"1888 176 CURVE SMOOTH"
);
}
);
width = 2161;
}
);
unicode = 004D;
},
{
color = 9;
glyphname = N;
lastChange = "2015-09-29 17:26:04 +0000";
layers = (
{
anchors = (
{
name = btm;
position = "{897, -170}";
},
{
name = top;
position = "{876, 1700}";
}
);
background = {
anchors = (
{
name = btm;
position = "{897, -170}";
},
{
name = top;
position = "{876, 1700}";
}
);
paths = (
{
closed = 1;
nodes = (
"55 0 LINE",
"662 0 LINE",
"662 152 LINE",
"374 183 LINE",
"435 121 LINE",
"435 1388 LINE",
"333 1388 LINE",
"558 893 LINE",
"1111 0 LINE",
"1480 0 LINE",
"1480 1441 LINE",
"1455 1326 LINE",
"1631 1360 LINE",
"1631 1522 LINE",
"1087 1522 LINE",
"1087 1360 LINE",
"1300 1325 LINE",
"1260 1441 LINE",
"1260 285 LINE",
"1335 285 LINE",
"1144 712 LINE",
"634 1522 LINE",
"55 1522 LINE",
"55 1360 LINE",
"259 1323 LINE",
"215 1434 LINE",
"215 121 LINE",
"258 182 LINE",
"55 152 LINE"
);
}
);
};
layerId = "6AFE116F-39E0-4FF2-A27B-879B4E5E3272";
name = Bold;
paths = (
{
closed = 1;
nodes = (
"1490 1345 OFFCURVE",
"1505 1364 OFFCURVE",
"1535 1370 CURVE SMOOTH",
"1680 1400 LINE",
"1680 1562 LINE",
"1055 1562 LINE",
"1055 1400 LINE",
"1220 1370 LINE SMOOTH",
"1250 1365 OFFCURVE",
"1265 1345 OFFCURVE",
"1265 1315 CURVE SMOOTH",
"1265 398 LINE",
"1343 404 LINE",
"644 1562 LINE",
"15 1562 LINE",
"15 1400 LINE",
"170 1370 LINE SMOOTH",
"200 1364 OFFCURVE",
"215 1345 OFFCURVE",
"215 1315 CURVE SMOOTH",
"215 237 LINE SMOOTH",
"215 207 OFFCURVE",
"200 189 OFFCURVE",
"170 183 CURVE SMOOTH",
"15 154 LINE",
"15 0 LINE",
"667 0 LINE",
"667 154 LINE",
"485 184 LINE SMOOTH",
"455 189 OFFCURVE",
"440 208 OFFCURVE",
"440 238 CURVE SMOOTH",
"440 1259 LINE",
"362 1253 LINE",
"1111 0 LINE",
"1490 0 LINE",
"1490 1315 LINE SMOOTH"
);
}
);
width = 1691;
},
{
anchors = (
{
name = btm;
position = "{835, -170}";
},
{
name = top;
position = "{835, 1700}";
}
);
background = {
anchors = (
{
name = btm;
position = "{835, -170}";
},
{
name = top;
position = "{835, 1700}";
}
);
paths = (
{
closed = 1;
nodes = (
"115 0 LINE",
"584 0 LINE",
"584 88 LINE",
"380 109 LINE",
"397 74 LINE",
"397 1388 LINE",
"360 1388 LINE",
"566 1054 LINE",
"1299 0 LINE",
"1405 0 LINE",
"1405 1446 LINE",
"1380 1408 LINE",
"1572 1434 LINE",
"1572 1522 LINE",
"1106 1522 LINE",
"1106 1434 LINE",
"1317 1407 LINE",
"1286 1446 LINE",
"1286 113 LINE",
"1373 113 LINE",
"1170 471 LINE",
"445 1522 LINE",
"115 1522 LINE",
"115 1434 LINE",
"320 1405 LINE",
"278 1441 LINE",
"278 74 LINE",
"295 110 LINE",
"115 88 LINE"
);
}
);
};
layerId = "6D8A9A52-7D7D-4498-B039-FDF10F245A16";
name = Light;
paths = (
{
closed = 1;
nodes = (
"1415 1413 OFFCURVE",
"1434 1434 OFFCURVE",
"1469 1442 CURVE SMOOTH",
"1610 1474 LINE",
"1610 1562 LINE",
"1067 1562 LINE",
"1067 1474 LINE",
"1238 1442 LINE SMOOTH",
"1273 1435 OFFCURVE",
"1292 1412 OFFCURVE",
"1292 1377 CURVE SMOOTH",
"1292 192 LINE",
"1350 206 LINE",
"445 1562 LINE",
"63 1562 LINE",
"63 1474 LINE",
"224 1442 LINE SMOOTH",
"259 1435 OFFCURVE",
"278 1412 OFFCURVE",
"278 1377 CURVE SMOOTH",
"278 182 LINE SMOOTH",
"278 146 OFFCURVE",
"260 124 OFFCURVE",
"224 117 CURVE SMOOTH",
"63 88 LINE",
"63 0 LINE",
"636 0 LINE",
"636 88 LINE",
"455 117 LINE SMOOTH",
"419 123 OFFCURVE",
"401 145 OFFCURVE",
"401 182 CURVE SMOOTH",
"401 1412 LINE",
"343 1403 LINE",
"1282 0 LINE",
"1415 0 LINE",
"1415 1377 LINE SMOOTH"
);
}
);
width = 1632;
}
);
unicode = 004E;
},
{
color = 9;
glyphname = O;
lastChange = "2015-10-01 15:22:02 +0000";
layers = (
{
anchors = (
{
name = btm;
position = "{757, -170}";
},
{
name = top;
position = "{764, 1700}";
}
);
background = {
anchors = (
{
name = btm;
position = "{757, -170}";
},
{
name = top;
position = "{764, 1700}";
}
);
paths = (
{
closed = 1;
nodes = (
"754 -23 CURVE SMOOTH",
"1197 -21 OFFCURVE",
"1467 313 OFFCURVE",
"1467 790 CURVE SMOOTH",
"1467 1251 OFFCURVE",
"1277 1541 OFFCURVE",
"770 1543 CURVE SMOOTH",
"326 1544 OFFCURVE",
"57 1237 OFFCURVE",
"57 761 CURVE SMOOTH",
"57 292 OFFCURVE",
"248 -25 OFFCURVE"
);
},
{
closed = 1;
nodes = (
"763 1392 CURVE SMOOTH",
"916 1392 OFFCURVE",
"1011 1257 OFFCURVE",
"1011 789 CURVE SMOOTH",
"1011 359 OFFCURVE",
"921 128 OFFCURVE",
"760 128 CURVE SMOOTH",
"607 128 OFFCURVE",
"512 294 OFFCURVE",
"512 763 CURVE SMOOTH",
"512 1192 OFFCURVE",
"601 1392 OFFCURVE"
);
}
);
};
layerId = "6AFE116F-39E0-4FF2-A27B-879B4E5E3272";
name = Bold;
paths = (
{
closed = 1;
nodes = (
"50 265 OFFCURVE",
"256 -33 OFFCURVE",
"736 -33 CURVE SMOOTH",
"1226 -33 OFFCURVE",
"1474 277 OFFCURVE",
"1474 808 CURVE SMOOTH",
"1474 1294 OFFCURVE",
"1267 1593 OFFCURVE",
"787 1593 CURVE SMOOTH",
"297 1593 OFFCURVE",
"50 1281 OFFCURVE",
"50 750 CURVE SMOOTH"
);
},
{
closed = 1;
nodes = (
"505 1256 OFFCURVE",
"591 1442 OFFCURVE",
"767 1442 CURVE SMOOTH",
"936 1442 OFFCURVE",
"1018 1272 OFFCURVE",
"1018 796 CURVE SMOOTH",
"1018 306 OFFCURVE",
"931 118 OFFCURVE",
"756 118 CURVE SMOOTH",
"587 118 OFFCURVE",
"505 292 OFFCURVE",
"505 768 CURVE SMOOTH"
);
}
);
width = 1524;
},
{
anchors = (
{
name = btm;
position = "{727, -170}";
},
{
name = top;
position = "{741, 1700}";
}
);
background = {
anchors = (
{
name = btm;
position = "{727, -170}";
},
{
name = top;
position = "{741, 1700}";
}
);
paths = (
{
closed = 1;
nodes = (
"722 -23 CURVE SMOOTH",
"1100 -16 OFFCURVE",
"1398 292 OFFCURVE",
"1398 775 CURVE SMOOTH",
"1398 1234 OFFCURVE",
"1172 1538 OFFCURVE",
"757 1538 CURVE SMOOTH",
"377 1538 OFFCURVE",
"75 1232 OFFCURVE",
"75 749 CURVE SMOOTH",
"75 289 OFFCURVE",
"307 -30 OFFCURVE"
);
},
{
closed = 1;
nodes = (
"740 1442 CURVE SMOOTH",
"1040 1442 OFFCURVE",
"1209 1167 OFFCURVE",
"1209 774 CURVE SMOOTH",
"1209 310 OFFCURVE",
"1015 74 OFFCURVE",
"734 74 CURVE SMOOTH",
"432 74 OFFCURVE",
"262 358 OFFCURVE",
"262 750 CURVE SMOOTH",
"262 1214 OFFCURVE",
"456 1442 OFFCURVE"
);
}
);
};
layerId = "6D8A9A52-7D7D-4498-B039-FDF10F245A16";
name = Light;
paths = (
{
closed = 1;
nodes = (
"70 276 OFFCURVE",
"292 -23 OFFCURVE",
"710 -23 CURVE SMOOTH",
"1122 -23 OFFCURVE",
"1403 277 OFFCURVE",
"1403 804 CURVE SMOOTH",
"1403 1281 OFFCURVE",
"1183 1578 OFFCURVE",
"764 1578 CURVE SMOOTH",
"356 1578 OFFCURVE",
"70 1286 OFFCURVE",
"70 754 CURVE SMOOTH"
);
},
{
closed = 1;
nodes = (
"257 1246 OFFCURVE",
"435 1482 OFFCURVE",
"738 1482 CURVE SMOOTH",
"1058 1482 OFFCURVE",
"1214 1228 OFFCURVE",
"1214 781 CURVE SMOOTH",
"1214 312 OFFCURVE",
"1035 74 OFFCURVE",
"733 74 CURVE SMOOTH",
"414 74 OFFCURVE",
"257 330 OFFCURVE",
"257 779 CURVE SMOOTH"
);
}
);
width = 1473;
}
);
unicode = 004F;
},
{
color = 9;
glyphname = P;
lastChange = "2015-09-29 15:31:25 +0000";
layers = (
{
anchors = (
{
name = btm;
position = "{730, -170}";
},
{
name = top;
position = "{730, 1700}";
}
);
background = {
anchors = (
{
name = btm;
position = "{730, -170}";
},
{
name = top;
position = "{730, 1700}";
}
);
paths = (
{
closed = 1;
nodes = (
"101 0 LINE",
"930 0 LINE",
"930 152 LINE",
"616 180 LINE",
"665 131 LINE",
"665 510 LINE",
"681 507 OFFCURVE",
"730 504 OFFCURVE",
"781 504 CURVE SMOOTH",
"1201 504 OFFCURVE",
"1405 715 OFFCURVE",
"1405 1068 CURVE SMOOTH",
"1405 1366 OFFCURVE",
"1272 1530 OFFCURVE",
"804 1532 CURVE SMOOTH",
"656 1533 OFFCURVE",
"545 1522 OFFCURVE",
"466 1522 CURVE SMOOTH",
"105 1522 LINE",
"105 1360 LINE",
"292 1322 LINE",
"250 1363 LINE",
"250 130 LINE",
"283 180 LINE",
"101 152 LINE"
);
},
{
closed = 1;
nodes = (
"664 666 CURVE",
"664 1371 LINE",
"686 1376 OFFCURVE",
"699 1383 OFFCURVE",
"765 1383 CURVE SMOOTH",
"907 1383 OFFCURVE",
"985 1282 OFFCURVE",
"985 1056 CURVE SMOOTH",
"985 750 OFFCURVE",
"896 655 OFFCURVE",
"769 655 CURVE SMOOTH",
"712 655 OFFCURVE",
"683 660 OFFCURVE"
);
}
);
};
layerId = "6AFE116F-39E0-4FF2-A27B-879B4E5E3272";
name = Bold;
paths = (
{
closed = 1;
nodes = (
"666 1411 LINE",
"688 1416 OFFCURVE",
"700 1423 OFFCURVE",
"766 1423 CURVE SMOOTH",
"908 1423 OFFCURVE",
"986 1322 OFFCURVE",
"986 1096 CURVE SMOOTH",
"986 790 OFFCURVE",
"897 695 OFFCURVE",
"770 695 CURVE SMOOTH",
"704 695 OFFCURVE",
"676 702 OFFCURVE",
"617 709 CURVE",
"621 551 LINE",
"669 548 OFFCURVE",
"724 544 OFFCURVE",
"782 544 CURVE SMOOTH",
"1202 544 OFFCURVE",
"1406 755 OFFCURVE",
"1406 1108 CURVE SMOOTH",
"1406 1406 OFFCURVE",
"1273 1570 OFFCURVE",
"805 1572 CURVE SMOOTH",
"657 1573 OFFCURVE",
"546 1562 OFFCURVE",
"466 1562 CURVE SMOOTH",
"50 1562 LINE",
"50 1400 LINE",
"211 1368 LINE SMOOTH",
"234 1363 OFFCURVE",
"250 1344 OFFCURVE",
"250 1321 CURVE SMOOTH",
"250 232 LINE SMOOTH",
"250 208 OFFCURVE",
"233 189 OFFCURVE",
"209 184 CURVE SMOOTH",
"50 154 LINE",
"50 0 LINE",
"957 0 LINE",
"957 154 LINE",
"710 184 LINE SMOOTH",
"684 187 OFFCURVE",
"666 206 OFFCURVE",
"666 232 CURVE SMOOTH"
);
}
);
width = 1430;
},
{
anchors = (
{
name = btm;
position = "{675, -170}";
},
{
name = top;
position = "{675, 1700}";
}
);
background = {
anchors = (
{
name = btm;
position = "{675, -170}";
},
{
name = top;
position = "{675, 1700}";
}
);
paths = (
{
closed = 1;
nodes = (
"109 0 LINE",
"737 0 LINE",
"737 88 LINE",
"408 111 LINE",
"453 63 LINE",
"453 590 LINE",
"472 586 OFFCURVE",
"589 581 OFFCURVE",
"670 581 CURVE SMOOTH",
"996 581 OFFCURVE",
"1255 774 OFFCURVE",
"1255 1105 CURVE SMOOTH",
"1255 1376 OFFCURVE",
"1128 1537 OFFCURVE",
"728 1537 CURVE SMOOTH",
"549 1537 OFFCURVE",
"504 1522 OFFCURVE",
"369 1522 CURVE SMOOTH",
"121 1522 LINE",
"121 1434 LINE",
"316 1407 LINE",
"284 1445 LINE",
"284 64 LINE",
"317 111 LINE",
"109 88 LINE"
);
},
{
closed = 1;
nodes = (
"453 691 CURVE",
"453 1425 LINE",
"509 1425 OFFCURVE",
"577 1438 OFFCURVE",
"675 1438 CURVE SMOOTH",
"946 1438 OFFCURVE",
"1075 1349 OFFCURVE",
"1075 1105 CURVE SMOOTH",
"1075 781 OFFCURVE",
"880 682 OFFCURVE",
"673 682 CURVE SMOOTH",
"572 682 OFFCURVE",
"491 684 OFFCURVE"
);
}
);
};
layerId = "6D8A9A52-7D7D-4498-B039-FDF10F245A16";
name = Light;
paths = (
{
closed = 1;
nodes = (
"454 1465 LINE",
"510 1465 OFFCURVE",
"578 1478 OFFCURVE",
"676 1478 CURVE SMOOTH",
"947 1478 OFFCURVE",
"1076 1389 OFFCURVE",
"1076 1141 CURVE SMOOTH",
"1076 813 OFFCURVE",
"881 715 OFFCURVE",
"674 715 CURVE SMOOTH",
"566 715 OFFCURVE",
"503 720 OFFCURVE",
"401 725 CURVE",
"403 623 LINE",
"494 619 OFFCURVE",
"584 613 OFFCURVE",
"671 613 CURVE SMOOTH",
"997 613 OFFCURVE",
"1256 806 OFFCURVE",
"1256 1141 CURVE SMOOTH",
"1256 1416 OFFCURVE",
"1129 1577 OFFCURVE",
"729 1577 CURVE SMOOTH",
"550 1577 OFFCURVE",
"505 1562 OFFCURVE",
"369 1562 CURVE SMOOTH",
"69 1562 LINE",
"69 1474 LINE",
"238 1440 LINE SMOOTH",
"266 1434 OFFCURVE",
"284 1408 OFFCURVE",
"284 1380 CURVE SMOOTH",
"284 178 LINE SMOOTH",
"284 146 OFFCURVE",
"265 123 OFFCURVE",
"231 117 CURVE SMOOTH",
"69 88 LINE",
"69 0 LINE",
"748 0 LINE",
"748 88 LINE",
"505 121 LINE SMOOTH",
"475 125 OFFCURVE",
"454 149 OFFCURVE",
"454 179 CURVE SMOOTH"
);
}
);
width = 1313;
}
);
unicode = 0050;
},
{
color = 9;
glyphname = Q;
lastChange = "2015-09-30 09:39:26 +0000";
layers = (
{
anchors = (
{
name = btm;
position = "{757, -170}";
},
{
name = top;
position = "{764, 1700}";
}
);
background = {
anchors = (
{
name = btm;
position = "{748, -170}";
},
{
name = top;
position = "{748, 1700}";
}
);
paths = (
{
closed = 1;
nodes = (
"1620 -373 CURVE",
"1631 -373 LINE",
"1825 -373 OFFCURVE",
"1889 -263 OFFCURVE",
"1912 -229 CURVE",
"1879 -129 LINE",
"1858 -137 OFFCURVE",
"1823 -143 OFFCURVE",
"1750 -143 CURVE SMOOTH",
"1748 -143 LINE",
"1514 -143 OFFCURVE",
"1190 125 OFFCURVE",
"963 83 CURVE",
"884 79 LINE",
"720 22 LINE",
"1018 51 OFFCURVE",
"1244 -373 OFFCURVE"
);
},
{
closed = 1;
nodes = (
"745 -23 CURVE SMOOTH",
"1188 -21 OFFCURVE",
"1458 313 OFFCURVE",
"1458 790 CURVE SMOOTH",
"1458 1251 OFFCURVE",
"1268 1541 OFFCURVE",
"761 1543 CURVE SMOOTH",
"317 1544 OFFCURVE",
"48 1237 OFFCURVE",
"48 761 CURVE SMOOTH",
"48 292 OFFCURVE",
"239 -25 OFFCURVE"
);
},
{
closed = 1;
nodes = (
"754 1392 CURVE SMOOTH",
"907 1392 OFFCURVE",
"1002 1257 OFFCURVE",
"1002 789 CURVE SMOOTH",
"1002 359 OFFCURVE",
"912 128 OFFCURVE",
"751 128 CURVE SMOOTH",
"598 128 OFFCURVE",
"503 294 OFFCURVE",
"503 763 CURVE SMOOTH",
"503 1192 OFFCURVE",
"592 1392 OFFCURVE"
);
}
);
};
layerId = "6AFE116F-39E0-4FF2-A27B-879B4E5E3272";
name = Bold;
paths = (
{
closed = 1;
nodes = (
"911 -10 OFFCURVE",
"923 -425 OFFCURVE",
"1311 -425 CURVE SMOOTH",
"1456 -425 OFFCURVE",
"1593 -341 OFFCURVE",
"1652 -268 CURVE",
"1615 -143 LINE",
"1579 -150 OFFCURVE",
"1540 -156 OFFCURVE",
"1490 -156 CURVE SMOOTH",
"1398 -156 OFFCURVE",
"1309 -136 OFFCURVE",
"1200 -80 CURVE SMOOTH",
"1049 -2 OFFCURVE",
"955 49 OFFCURVE",
"685 49 CURVE",
"480 42 LINE"
);
},
{
closed = 1;
nodes = (
"42 275 OFFCURVE",
"248 -23 OFFCURVE",
"728 -23 CURVE SMOOTH",
"1198 -23 OFFCURVE",
"1466 287 OFFCURVE",
"1466 808 CURVE SMOOTH",
"1466 1284 OFFCURVE",
"1259 1583 OFFCURVE",
"779 1583 CURVE SMOOTH",
"289 1583 OFFCURVE",
"42 1271 OFFCURVE",
"42 750 CURVE SMOOTH"
);
},
{
closed = 1;
nodes = (
"497 1246 OFFCURVE",
"583 1432 OFFCURVE",
"759 1432 CURVE SMOOTH",
"928 1432 OFFCURVE",
"1010 1262 OFFCURVE",
"1010 796 CURVE SMOOTH",
"1010 316 OFFCURVE",
"923 128 OFFCURVE",
"748 128 CURVE SMOOTH",
"579 128 OFFCURVE",
"497 302 OFFCURVE",
"497 768 CURVE SMOOTH"
);
}
);
width = 1506;
},
{
anchors = (
{
name = btm;
position = "{727, -170}";
},
{
name = top;
position = "{741, 1700}";
}
);
background = {
anchors = (
{
name = btm;
position = "{733, -170}";
},
{
name = top;
position = "{733, 1700}";
}
);
paths = (
{
closed = 1;
nodes = (
"1668 -413 CURVE",
"1679 -413 LINE",
"1749 -413 OFFCURVE",
"1815 -371 OFFCURVE",
"1834 -353 CURVE",
"1814 -268 LINE",
"1801 -269 OFFCURVE",
"1789 -270 OFFCURVE",
"1770 -270 CURVE SMOOTH",
"1768 -270 LINE",
"1491 -270 OFFCURVE",
"1266 34 OFFCURVE",
"951 34 CURVE",
"865 28 LINE",
"809 -3 LINE",
"1102 -3 OFFCURVE",
"1292 -413 OFFCURVE"
);
},
{
closed = 1;
nodes = (
"728 -23 CURVE SMOOTH",
"1106 -16 OFFCURVE",
"1404 292 OFFCURVE",
"1404 775 CURVE SMOOTH",
"1404 1234 OFFCURVE",
"1178 1538 OFFCURVE",
"763 1538 CURVE SMOOTH",
"383 1538 OFFCURVE",
"81 1232 OFFCURVE",
"81 749 CURVE SMOOTH",
"81 289 OFFCURVE",
"313 -30 OFFCURVE"
);
},
{
closed = 1;
nodes = (
"746 1442 CURVE SMOOTH",
"1046 1442 OFFCURVE",
"1215 1167 OFFCURVE",
"1215 774 CURVE SMOOTH",
"1215 310 OFFCURVE",
"1021 74 OFFCURVE",
"740 74 CURVE SMOOTH",
"438 74 OFFCURVE",
"268 358 OFFCURVE",
"268 750 CURVE SMOOTH",
"268 1214 OFFCURVE",
"462 1442 OFFCURVE"
);
}
);
};
layerId = "6D8A9A52-7D7D-4498-B039-FDF10F245A16";
name = Light;
paths = (
{
closed = 1;
nodes = (
"903 -3 OFFCURVE",
"1005 -413 OFFCURVE",
"1329 -413 CURVE SMOOTH",
"1428 -413 OFFCURVE",
"1517 -376 OFFCURVE",
"1554 -353 CURVE",
"1534 -266 LINE",
"1512 -269 OFFCURVE",
"1479 -270 OFFCURVE",
"1450 -270 CURVE SMOOTH",
"1308 -270 OFFCURVE",
"1216 -194 OFFCURVE",
"1118 -115 CURVE SMOOTH",
"1007 -25 OFFCURVE",
"884 57 OFFCURVE",
"674 57 CURVE",
"609 -3 LINE"
);
},
{
closed = 1;
nodes = (
"75 276 OFFCURVE",
"297 -23 OFFCURVE",
"715 -23 CURVE SMOOTH",
"1127 -23 OFFCURVE",
"1408 277 OFFCURVE",
"1408 804 CURVE SMOOTH",
"1408 1281 OFFCURVE",
"1188 1578 OFFCURVE",
"769 1578 CURVE SMOOTH",
"361 1578 OFFCURVE",
"75 1286 OFFCURVE",
"75 754 CURVE SMOOTH"
);
},
{
closed = 1;
nodes = (
"262 1246 OFFCURVE",
"440 1482 OFFCURVE",
"743 1482 CURVE SMOOTH",
"1063 1482 OFFCURVE",
"1219 1228 OFFCURVE",
"1219 781 CURVE SMOOTH",
"1219 312 OFFCURVE",
"1040 74 OFFCURVE",
"738 74 CURVE SMOOTH",
"419 74 OFFCURVE",
"262 330 OFFCURVE",
"262 779 CURVE SMOOTH"
);
}
);
width = 1485;
}
);
unicode = 0051;
},
{
color = 9;
glyphname = R;
lastChange = "2015-09-30 12:08:56 +0000";
layers = (
{
anchors = (
{
name = btm;
position = "{831, -170}";
},
{
name = top;
position = "{788, 1700}";
}
);
background = {
anchors = (
{
name = btm;
position = "{831, -170}";
},
{
name = top;
position = "{788, 1700}";
}
);
paths = (
{
closed = 1;
nodes = (
"1151 0 OFFCURVE",
"1523 0 OFFCURVE",
"1594 0 CURVE",
"1594 152 LINE",
"1544 169 LINE",
"1443 196 OFFCURVE",
"1402 654 OFFCURVE",
"1109 711 CURVE",
"881 724 LINE",
"816 638 LINE",
"973 606 OFFCURVE",
"1050 0 OFFCURVE",
"1151 0 CURVE SMOOTH"
);
},
{
closed = 1;
nodes = (
"111 0 LINE",
"848 0 LINE",
"848 152 LINE",
"627 181 LINE",
"675 129 LINE",
"675 636 LINE",
"688 636 OFFCURVE",
"911 636 OFFCURVE",
"922 636 CURVE",
"944 636 OFFCURVE",
"1008 680 OFFCURVE",
"1020 681 CURVE",
"1318 698 OFFCURVE",
"1426 940 OFFCURVE",
"1426 1125 CURVE SMOOTH",
"1426 1419 OFFCURVE",
"1261 1533 OFFCURVE",
"813 1533 CURVE SMOOTH",
"656 1533 OFFCURVE",
"578 1522 OFFCURVE",
"455 1522 CURVE SMOOTH",
"115 1522 LINE",
"115 1360 LINE",
"302 1322 LINE",
"260 1414 LINE",
"260 129 LINE",
"290 180 LINE",
"111 152 LINE"
);
},
{
closed = 1;
nodes = (
"765 782 OFFCURVE",
"691 781 OFFCURVE",
"675 789 CURVE",
"675 1376 LINE",
"689 1381 OFFCURVE",
"721 1385 OFFCURVE",
"778 1385 CURVE SMOOTH",
"925 1385 OFFCURVE",
"989 1308 OFFCURVE",
"989 1112 CURVE SMOOTH",
"989 883 OFFCURVE",
"916 782 OFFCURVE",
"791 782 CURVE SMOOTH"
);
}
);
};
layerId = "6AFE116F-39E0-4FF2-A27B-879B4E5E3272";
name = Bold;
paths = (
{
closed = 1;
nodes = (
"862 0 LINE",
"862 152 LINE",
"710 179 LINE SMOOTH",
"680 184 OFFCURVE",
"664 201 OFFCURVE",
"664 232 CURVE SMOOTH",
"664 1416 LINE",
"698 1421 OFFCURVE",
"734 1425 OFFCURVE",
"771 1425 CURVE SMOOTH",
"926 1425 OFFCURVE",
"1010 1355 OFFCURVE",
"1010 1136 CURVE SMOOTH",
"1010 901 OFFCURVE",
"914 803 OFFCURVE",
"792 802 CURVE SMOOTH",
"753 802 OFFCURVE",
"669 799 OFFCURVE",
"615 817 CURVE",
"615 656 LINE",
"734 656 OFFCURVE",
"836 656 OFFCURVE",
"923 656 CURVE SMOOTH",
"945 656 OFFCURVE",
"1003 697 OFFCURVE",
"1021 701 CURVE SMOOTH",
"1209 746 OFFCURVE",
"1447 804 OFFCURVE",
"1447 1153 CURVE SMOOTH",
"1447 1461 OFFCURVE",
"1262 1573 OFFCURVE",
"802 1573 CURVE SMOOTH",
"658 1573 OFFCURVE",
"561 1562 OFFCURVE",
"444 1562 CURVE SMOOTH",
"50 1562 LINE",
"50 1400 LINE",
"205 1370 LINE SMOOTH",
"234 1364 OFFCURVE",
"250 1346 OFFCURVE",
"250 1316 CURVE SMOOTH",
"250 236 LINE SMOOTH",
"250 206 OFFCURVE",
"234 189 OFFCURVE",
"204 183 CURVE SMOOTH",
"50 154 LINE",
"50 0 LINE"
);
},
{
closed = 1;
nodes = (
"1619 0 LINE",
"1619 152 LINE",
"1528 177 LINE SMOOTH",
"1495 186 OFFCURVE",
"1480 198 OFFCURVE",
"1460 243 CURVE SMOOTH",
"1361 475 LINE SMOOTH",
"1283 658 OFFCURVE",
"1173 724 OFFCURVE",
"977 767 CURVE",
"747 708 LINE",
"816 681 OFFCURVE",
"866 606 OFFCURVE",
"918 466 CURVE SMOOTH",
"1019 193 LINE SMOOTH",
"1062 78 OFFCURVE",
"1104 0 OFFCURVE",
"1162 0 CURVE SMOOTH"
);
}
);
width = 1617;
},
{
anchors = (
{
name = btm;
position = "{817, -170}";
},
{
name = top;
position = "{774, 1700}";
}
);
background = {
anchors = (
{
name = btm;
position = "{817, -170}";
},
{
name = top;
position = "{774, 1700}";
}
);
paths = (
{
closed = 1;
nodes = (
"1236 0 OFFCURVE",
"1276 0 OFFCURVE",
"1474 0 CURVE",
"1474 85 LINE",
"1388 108 LINE",
"1283 133 OFFCURVE",
"1100 643 OFFCURVE",
"941 716 CURVE",
"805 722 LINE",
"774 683 LINE",
"932 637 OFFCURVE",
"1128 0 OFFCURVE",
"1235 0 CURVE SMOOTH"
);
},
{
closed = 1;
nodes = (
"160 0 LINE",
"714 0 LINE",
"714 88 LINE",
"463 110 LINE",
"504 63 LINE",
"504 677 LINE",
"547 676 OFFCURVE",
"780 675 OFFCURVE",
"817 675 CURVE",
"895 675 OFFCURVE",
"847 686 OFFCURVE",
"885 690 CURVE",
"1125 715 OFFCURVE",
"1268 921 OFFCURVE",
"1268 1137 CURVE SMOOTH",
"1268 1402 OFFCURVE",
"1125 1538 OFFCURVE",
"725 1538 CURVE SMOOTH",
"624 1538 OFFCURVE",
"531 1522 OFFCURVE",
"422 1522 CURVE SMOOTH",
"171 1522 LINE",
"171 1437 LINE",
"367 1410 LINE",
"335 1447 LINE",
"335 63 LINE",
"366 110 LINE",
"160 88 LINE"
);
},
{
closed = 1;
nodes = (
"730 776 OFFCURVE",
"576 774 OFFCURVE",
"504 779 CURVE",
"504 1425 LINE",
"551 1425 OFFCURVE",
"603 1437 OFFCURVE",
"709 1437 CURVE SMOOTH",
"1005 1437 OFFCURVE",
"1086 1305 OFFCURVE",
"1086 1123 CURVE SMOOTH",
"1086 889 OFFCURVE",
"962 776 OFFCURVE",
"780 776 CURVE SMOOTH"
);
}
);
};
layerId = "6D8A9A52-7D7D-4498-B039-FDF10F245A16";
name = Light;
paths = (
{
closed = 1;
nodes = (
"735 0 LINE",
"735 88 LINE",
"562 119 LINE SMOOTH",
"525 126 OFFCURVE",
"505 144 OFFCURVE",
"505 181 CURVE SMOOTH",
"505 1463 LINE",
"541 1466 OFFCURVE",
"631 1477 OFFCURVE",
"721 1477 CURVE SMOOTH",
"1026 1477 OFFCURVE",
"1107 1350 OFFCURVE",
"1107 1152 CURVE SMOOTH",
"1107 908 OFFCURVE",
"984 797 OFFCURVE",
"801 796 CURVE SMOOTH",
"748 796 OFFCURVE",
"558 794 OFFCURVE",
"467 800 CURVE",
"467 697 LINE",
"519 697 OFFCURVE",
"654 695 OFFCURVE",
"796 695 CURVE SMOOTH",
"896 695 OFFCURVE",
"859 696 OFFCURVE",
"906 710 CURVE SMOOTH",
"1063 755 OFFCURVE",
"1291 823 OFFCURVE",
"1291 1165 CURVE SMOOTH",
"1291 1438 OFFCURVE",
"1146 1578 OFFCURVE",
"760 1578 CURVE SMOOTH",
"629 1578 OFFCURVE",
"539 1562 OFFCURVE",
"423 1562 CURVE SMOOTH",
"120 1562 LINE",
"120 1474 LINE",
"279 1442 LINE SMOOTH",
"314 1435 OFFCURVE",
"335 1415 OFFCURVE",
"335 1378 CURVE SMOOTH",
"335 181 LINE SMOOTH",
"335 144 OFFCURVE",
"314 125 OFFCURVE",
"278 118 CURVE SMOOTH",
"120 88 LINE",
"120 0 LINE"
);
},
{
closed = 1;
nodes = (
"1495 0 LINE",
"1495 88 LINE",
"1379 113 LINE SMOOTH",
"1331 123 OFFCURVE",
"1311 136 OFFCURVE",
"1284 187 CURVE SMOOTH",
"1120 491 LINE SMOOTH",
"1048 624 OFFCURVE",
"993 703 OFFCURVE",
"899 756 CURVE",
"744 730 LINE",
"806 704 OFFCURVE",
"873 587 OFFCURVE",
"941 452 CURVE SMOOTH",
"1040 255 LINE SMOOTH",
"1118 100 OFFCURVE",
"1165 0 OFFCURVE",
"1227 0 CURVE SMOOTH"
);
}
);
width = 1494;
},
{
anchors = (
{
name = btm;
position = "{817, -170}";
},
{
name = top;
position = "{774, 1700}";
}
);
associatedMasterId = "6D8A9A52-7D7D-4498-B039-FDF10F245A16";
background = {
anchors = (
{
name = btm;
position = "{817, -170}";
},
{
name = top;
position = "{774, 1700}";
}
);
paths = (
{
closed = 1;
nodes = (
"1236 0 OFFCURVE",
"1276 0 OFFCURVE",
"1474 0 CURVE",
"1474 85 LINE",
"1388 108 LINE",
"1283 133 OFFCURVE",
"1100 643 OFFCURVE",
"941 716 CURVE",
"805 722 LINE",
"774 683 LINE",
"932 637 OFFCURVE",
"1128 0 OFFCURVE",
"1235 0 CURVE SMOOTH"
);
},
{
closed = 1;
nodes = (
"160 0 LINE",
"714 0 LINE",
"714 88 LINE",
"463 110 LINE",
"504 63 LINE",
"504 677 LINE",
"547 676 OFFCURVE",
"780 675 OFFCURVE",
"817 675 CURVE",
"895 675 OFFCURVE",
"847 686 OFFCURVE",
"885 690 CURVE",
"1125 715 OFFCURVE",
"1268 921 OFFCURVE",
"1268 1137 CURVE SMOOTH",
"1268 1402 OFFCURVE",
"1125 1538 OFFCURVE",
"725 1538 CURVE SMOOTH",
"624 1538 OFFCURVE",
"531 1522 OFFCURVE",
"422 1522 CURVE SMOOTH",
"171 1522 LINE",
"171 1437 LINE",
"367 1410 LINE",
"335 1447 LINE",
"335 63 LINE",
"366 110 LINE",
"160 88 LINE"
);
},
{
closed = 1;
nodes = (
"730 776 OFFCURVE",
"576 774 OFFCURVE",
"504 779 CURVE",
"504 1425 LINE",
"551 1425 OFFCURVE",
"603 1437 OFFCURVE",
"709 1437 CURVE SMOOTH",
"1005 1437 OFFCURVE",
"1086 1305 OFFCURVE",
"1086 1123 CURVE SMOOTH",
"1086 889 OFFCURVE",
"962 776 OFFCURVE",
"780 776 CURVE SMOOTH"
);
}
);
};
layerId = "0388B149-27CF-431B-83B6-92DF0DED5937";
name = "Light Sep 30 15, 11:17";
paths = (
{
closed = 1;
nodes = (
"505 1465 LINE",
"552 1465 OFFCURVE",
"624 1477 OFFCURVE",
"730 1477 CURVE SMOOTH",
"1026 1477 OFFCURVE",
"1107 1345 OFFCURVE",
"1107 1153 CURVE SMOOTH",
"1107 908 OFFCURVE",
"983 796 OFFCURVE",
"801 796 CURVE SMOOTH",
"748 796 OFFCURVE",
"558 794 OFFCURVE",
"467 800 CURVE",
"467 697 LINE",
"523 696 OFFCURVE",
"799 695 OFFCURVE",
"838 695 CURVE SMOOTH",
"916 695 OFFCURVE",
"868 706 OFFCURVE",
"906 710 CURVE SMOOTH",
"1146 735 OFFCURVE",
"1291 940 OFFCURVE",
"1291 1167 CURVE SMOOTH",
"1291 1443 OFFCURVE",
"1146 1578 OFFCURVE",
"746 1578 CURVE SMOOTH",
"645 1578 OFFCURVE",
"532 1562 OFFCURVE",
"423 1562 CURVE SMOOTH",
"120 1562 LINE",
"120 1474 LINE",
"279 1442 LINE SMOOTH",
"314 1435 OFFCURVE",
"335 1415 OFFCURVE",
"335 1378 CURVE SMOOTH",
"335 181 LINE SMOOTH",
"335 144 OFFCURVE",
"314 125 OFFCURVE",
"278 118 CURVE SMOOTH",
"120 88 LINE",
"120 0 LINE",
"735 0 LINE",
"735 88 LINE",
"562 119 LINE SMOOTH",
"525 126 OFFCURVE",
"505 144 OFFCURVE",
"505 181 CURVE SMOOTH"
);
},
{
closed = 1;
nodes = (
"1495 0 LINE",
"1495 88 LINE",
"1364 118 LINE SMOOTH",
"1259 142 OFFCURVE",
"1101 663 OFFCURVE",
"942 736 CURVE",
"806 742 LINE",
"775 703 LINE",
"933 657 OFFCURVE",
"1109 0 OFFCURVE",
"1216 0 CURVE SMOOTH"
);
}
);
width = 1494;
},
{
anchors = (
{
name = btm;
position = "{831, -170}";
},
{
name = top;
position = "{788, 1700}";
}
);
associatedMasterId = "6AFE116F-39E0-4FF2-A27B-879B4E5E3272";
background = {
anchors = (
{
name = btm;
position = "{831, -170}";
},
{
name = top;
position = "{788, 1700}";
}
);
paths = (
{
closed = 1;
nodes = (
"1151 0 OFFCURVE",
"1523 0 OFFCURVE",
"1594 0 CURVE",
"1594 152 LINE",
"1544 169 LINE",
"1443 196 OFFCURVE",
"1402 654 OFFCURVE",
"1109 711 CURVE",
"881 724 LINE",
"816 638 LINE",
"973 606 OFFCURVE",
"1050 0 OFFCURVE",
"1151 0 CURVE SMOOTH"
);
},
{
closed = 1;
nodes = (
"111 0 LINE",
"848 0 LINE",
"848 152 LINE",
"627 181 LINE",
"675 129 LINE",
"675 636 LINE",
"688 636 OFFCURVE",
"911 636 OFFCURVE",
"922 636 CURVE",
"944 636 OFFCURVE",
"1008 680 OFFCURVE",
"1020 681 CURVE",
"1318 698 OFFCURVE",
"1426 940 OFFCURVE",
"1426 1125 CURVE SMOOTH",
"1426 1419 OFFCURVE",
"1261 1533 OFFCURVE",
"813 1533 CURVE SMOOTH",
"656 1533 OFFCURVE",
"578 1522 OFFCURVE",
"455 1522 CURVE SMOOTH",
"115 1522 LINE",
"115 1360 LINE",
"302 1322 LINE",
"260 1414 LINE",
"260 129 LINE",
"290 180 LINE",
"111 152 LINE"
);
},
{
closed = 1;
nodes = (
"765 782 OFFCURVE",
"691 781 OFFCURVE",
"675 789 CURVE",
"675 1376 LINE",
"689 1381 OFFCURVE",
"721 1385 OFFCURVE",
"778 1385 CURVE SMOOTH",
"925 1385 OFFCURVE",
"989 1308 OFFCURVE",
"989 1112 CURVE SMOOTH",
"989 883 OFFCURVE",
"916 782 OFFCURVE",
"791 782 CURVE SMOOTH"
);
}
);
};
layerId = "1164D395-95D7-4D06-AC90-8722181BA5ED";
name = "Bold Sep 30 15, 11:26";
paths = (
{
closed = 1;
nodes = (
"664 1416 LINE",
"678 1421 OFFCURVE",
"710 1425 OFFCURVE",
"779 1425 CURVE SMOOTH",
"926 1425 OFFCURVE",
"1010 1348 OFFCURVE",
"1010 1142 CURVE SMOOTH",
"1010 903 OFFCURVE",
"917 802 OFFCURVE",
"792 802 CURVE SMOOTH",
"755 802 OFFCURVE",
"669 799 OFFCURVE",
"615 817 CURVE",
"615 656 LINE",
"734 656 OFFCURVE",
"836 656 OFFCURVE",
"923 656 CURVE SMOOTH",
"945 656 OFFCURVE",
"1009 700 OFFCURVE",
"1021 701 CURVE SMOOTH",
"1319 718 OFFCURVE",
"1447 960 OFFCURVE",
"1447 1155 CURVE SMOOTH",
"1447 1459 OFFCURVE",
"1262 1573 OFFCURVE",
"814 1573 CURVE SMOOTH",
"645 1573 OFFCURVE",
"567 1562 OFFCURVE",
"444 1562 CURVE SMOOTH",
"50 1562 LINE",
"50 1400 LINE",
"205 1370 LINE SMOOTH",
"234 1364 OFFCURVE",
"250 1346 OFFCURVE",
"250 1316 CURVE SMOOTH",
"250 236 LINE SMOOTH",
"250 206 OFFCURVE",
"234 189 OFFCURVE",
"204 183 CURVE SMOOTH",
"50 154 LINE",
"50 0 LINE",
"862 0 LINE",
"862 152 LINE",
"710 179 LINE SMOOTH",
"680 184 OFFCURVE",
"664 201 OFFCURVE",
"664 232 CURVE SMOOTH"
);
},
{
closed = 1;
nodes = (
"1618 0 LINE",
"1618 152 LINE",
"1518 179 LINE",
"1417 206 OFFCURVE",
"1403 674 OFFCURVE",
"1110 731 CURVE",
"882 744 LINE",
"817 658 LINE",
"974 626 OFFCURVE",
"1031 0 OFFCURVE",
"1132 0 CURVE SMOOTH"
);
}
);
width = 1617;
}
);
unicode = 0052;
},
{
color = 9;
glyphname = S;
lastChange = "2015-10-01 17:19:54 +0000";
layers = (
{
anchors = (
{
name = btm;
position = "{625, -170}";
},
{
name = top;
position = "{670, 1700}";
}
);
background = {
anchors = (
{
name = btm;
position = "{625, -170}";
},
{
name = top;
position = "{670, 1700}";
}
);
paths = (
{
closed = 1;
nodes = (
"627 -23 CURVE SMOOTH",
"1126 -23 OFFCURVE",
"1229 252 OFFCURVE",
"1229 449 CURVE SMOOTH",
"1229 701 OFFCURVE",
"1014 825 OFFCURVE",
"865 898 CURVE SMOOTH",
"678 991 OFFCURVE",
"498 1072 OFFCURVE",
"498 1220 CURVE SMOOTH",
"498 1303 OFFCURVE",
"546 1390 OFFCURVE",
"692 1390 CURVE SMOOTH",
"775 1390 OFFCURVE",
"833 1366 OFFCURVE",
"846 1346 CURVE",
"895 1095 LINE",
"1112 1095 LINE",
"1125 1470 LINE",
"1065 1473 OFFCURVE",
"924 1543 OFFCURVE",
"668 1543 CURVE SMOOTH",
"260 1543 OFFCURVE",
"106 1327 OFFCURVE",
"106 1112 CURVE SMOOTH",
"106 822 OFFCURVE",
"330 681 OFFCURVE",
"481 610 CURVE SMOOTH",
"693 510 OFFCURVE",
"817 441 OFFCURVE",
"817 315 CURVE SMOOTH",
"817 206 OFFCURVE",
"752 136 OFFCURVE",
"601 136 CURVE SMOOTH",
"487 136 OFFCURVE",
"420 168 OFFCURVE",
"399 197 CURVE",
"342 454 LINE",
"120 454 LINE",
"103 66 LINE",
"172 61 OFFCURVE",
"368 -23 OFFCURVE"
);
}
);
};
layerId = "6AFE116F-39E0-4FF2-A27B-879B4E5E3272";
name = Bold;
paths = (
{
closed = 1;
nodes = (
"1074 -33 OFFCURVE",
"1234 221 OFFCURVE",
"1234 448 CURVE SMOOTH",
"1234 695 OFFCURVE",
"1045 834 OFFCURVE",
"812 955 CURVE SMOOTH",
"611 1059 OFFCURVE",
"488 1123 OFFCURVE",
"488 1269 CURVE SMOOTH",
"488 1375 OFFCURVE",
"554 1440 OFFCURVE",
"662 1440 CURVE SMOOTH",
"711 1440 OFFCURVE",
"770 1427 OFFCURVE",
"804 1402 CURVE SMOOTH",
"827 1385 OFFCURVE",
"839 1363 OFFCURVE",
"847 1320 CURVE SMOOTH",
"890 1088 LINE",
"1117 1088 LINE",
"1139 1220 OFFCURVE",
"1151 1378 OFFCURVE",
"1140 1510 CURVE",
"1017 1558 OFFCURVE",
"839 1593 OFFCURVE",
"677 1593 CURVE SMOOTH",
"287 1593 OFFCURVE",
"96 1390 OFFCURVE",
"96 1122 CURVE SMOOTH",
"96 860 OFFCURVE",
"279 761 OFFCURVE",
"491 647 CURVE SMOOTH",
"668 552 OFFCURVE",
"822 466 OFFCURVE",
"822 303 CURVE SMOOTH",
"822 191 OFFCURVE",
"750 120 OFFCURVE",
"633 120 CURVE SMOOTH",
"548 120 OFFCURVE",
"473 158 OFFCURVE",
"435 190 CURVE SMOOTH",
"408 212 OFFCURVE",
"397 236 OFFCURVE",
"392 269 CURVE SMOOTH",
"352 533 LINE",
"118 533 LINE",
"97 419 OFFCURVE",
"81 234 OFFCURVE",
"89 83 CURVE",
"227 21 OFFCURVE",
"418 -33 OFFCURVE",
"625 -33 CURVE SMOOTH"
);
}
);
width = 1262;
},
{
anchors = (
{
name = btm;
position = "{560, -170}";
},
{
name = top;
position = "{605, 1700}";
}
);
background = {
anchors = (
{
name = btm;
position = "{560, -170}";
},
{
name = top;
position = "{605, 1700}";
}
);
paths = (
{
closed = 1;
nodes = (
"545 -23 CURVE SMOOTH",
"883 -23 OFFCURVE",
"1075 196 OFFCURVE",
"1075 408 CURVE SMOOTH",
"1075 654 OFFCURVE",
"838 757 OFFCURVE",
"636 853 CURVE SMOOTH",
"421 955 OFFCURVE",
"274 1018 OFFCURVE",
"274 1194 CURVE SMOOTH",
"274 1360 OFFCURVE",
"384 1441 OFFCURVE",
"586 1441 CURVE SMOOTH",
"702 1441 OFFCURVE",
"803 1407 OFFCURVE",
"831 1383 CURVE",
"869 1128 LINE",
"970 1128 LINE",
"983 1465 LINE",
"923 1475 OFFCURVE",
"779 1538 OFFCURVE",
"595 1538 CURVE SMOOTH",
"312 1538 OFFCURVE",
"113 1383 OFFCURVE",
"113 1152 CURVE SMOOTH",
"113 888 OFFCURVE",
"361 778 OFFCURVE",
"530 705 CURVE SMOOTH",
"737 616 OFFCURVE",
"898 542 OFFCURVE",
"898 362 CURVE SMOOTH",
"898 189 OFFCURVE",
"781 77 OFFCURVE",
"555 77 CURVE SMOOTH",
"414 77 OFFCURVE",
"293 122 OFFCURVE",
"245 168 CURVE",
"214 437 LINE",
"109 437 LINE",
"92 71 LINE",
"156 65 OFFCURVE",
"313 -23 OFFCURVE"
);
}
);
};
layerId = "6D8A9A52-7D7D-4498-B039-FDF10F245A16";
name = Light;
paths = (
{
closed = 1;
nodes = (
"933 -33 OFFCURVE",
"1100 185 OFFCURVE",
"1100 407 CURVE SMOOTH",
"1100 662 OFFCURVE",
"881 771 OFFCURVE",
"669 870 CURVE SMOOTH",
"425 984 OFFCURVE",
"289 1049 OFFCURVE",
"289 1239 CURVE SMOOTH",
"289 1401 OFFCURVE",
"388 1491 OFFCURVE",
"580 1491 CURVE SMOOTH",
"686 1491 OFFCURVE",
"778 1454 OFFCURVE",
"823 1415 CURVE SMOOTH",
"851 1391 OFFCURVE",
"861 1366 OFFCURVE",
"865 1345 CURVE SMOOTH",
"904 1148 LINE",
"1005 1148 LINE",
"1022 1260 OFFCURVE",
"1027 1373 OFFCURVE",
"1018 1505 CURVE",
"917 1556 OFFCURVE",
"764 1588 OFFCURVE",
"622 1588 CURVE SMOOTH",
"299 1588 OFFCURVE",
"128 1423 OFFCURVE",
"128 1193 CURVE SMOOTH",
"128 918 OFFCURVE",
"372 807 OFFCURVE",
"563 722 CURVE SMOOTH",
"783 624 OFFCURVE",
"923 560 OFFCURVE",
"923 358 CURVE SMOOTH",
"923 177 OFFCURVE",
"810 67 OFFCURVE",
"594 67 CURVE SMOOTH",
"458 67 OFFCURVE",
"346 122 OFFCURVE",
"290 182 CURVE SMOOTH",
"267 207 OFFCURVE",
"259 231 OFFCURVE",
"256 250 CURVE SMOOTH",
"219 476 LINE",
"114 476 LINE",
"98 344 OFFCURVE",
"93 222 OFFCURVE",
"97 100 CURVE",
"192 37 OFFCURVE",
"362 -33 OFFCURVE",
"575 -33 CURVE SMOOTH"
);
}
);
width = 1155;
}
);
unicode = 0053;
},
{
color = 9;
glyphname = T;
lastChange = "2015-09-29 16:56:26 +0000";
layers = (
{
anchors = (
{
name = btm;
position = "{804, -170}";
},
{
name = top;
position = "{813, 1700}";
}
);
background = {
anchors = (
{
name = btm;
position = "{804, -170}";
},
{
name = top;
position = "{813, 1700}";
}
);
paths = (
{
closed = 1;
nodes = (
"340 0 LINE",
"1296 0 LINE",
"1296 152 LINE",
"963 181 LINE",
"1013 91 LINE",
"1013 1350 LINE",
"1210 1339 LINE",
"1311 868 LINE",
"1519 868 LINE",
"1492 1522 LINE",
"106 1522 LINE",
"74 868 LINE",
"295 868 LINE",
"390 1339 LINE",
"597 1350 LINE",
"597 95 LINE",
"627 179 LINE",
"340 152 LINE"
);
}
);
};
layerId = "6AFE116F-39E0-4FF2-A27B-879B4E5E3272";
name = Bold;
paths = (
{
closed = 1;
nodes = (
"1293 0 LINE",
"1293 152 LINE",
"1059 191 LINE SMOOTH",
"1029 196 OFFCURVE",
"1013 214 OFFCURVE",
"1013 244 CURVE SMOOTH",
"1013 1397 LINE",
"1075 1397 LINE SMOOTH",
"1120 1397 OFFCURVE",
"1167 1391 OFFCURVE",
"1196 1379 CURVE SMOOTH",
"1223 1368 OFFCURVE",
"1235 1353 OFFCURVE",
"1242 1328 CURVE SMOOTH",
"1347 928 LINE",
"1547 928 LINE",
"1570 1136 OFFCURVE",
"1579 1344 OFFCURVE",
"1557 1562 CURVE",
"51 1562 LINE",
"30 1344 OFFCURVE",
"38 1143 OFFCURVE",
"64 928 CURVE",
"264 928 LINE",
"363 1327 LINE SMOOTH",
"369 1352 OFFCURVE",
"382 1368 OFFCURVE",
"409 1379 CURVE SMOOTH",
"438 1391 OFFCURVE",
"485 1397 OFFCURVE",
"530 1397 CURVE SMOOTH",
"597 1397 LINE",
"597 244 LINE SMOOTH",
"597 214 OFFCURVE",
"581 196 OFFCURVE",
"551 191 CURVE SMOOTH",
"317 152 LINE",
"317 0 LINE"
);
}
);
width = 1609;
},
{
anchors = (
{
name = btm;
position = "{712, -170}";
},
{
name = top;
position = "{712, 1700}";
}
);
background = {
anchors = (
{
name = btm;
position = "{712, -170}";
},
{
name = top;
position = "{712, 1700}";
}
);
paths = (
{
closed = 1;
nodes = (
"336 0 LINE",
"1073 0 LINE",
"1073 88 LINE",
"731 111 LINE",
"781 58 LINE",
"781 1429 LINE",
"1175 1418 LINE",
"1232 1001 LINE",
"1342 1001 LINE",
"1319 1522 LINE",
"71 1522 LINE",
"37 1001 LINE",
"149 1001 LINE",
"215 1418 LINE",
"604 1429 LINE",
"604 61 LINE",
"653 111 LINE",
"336 88 LINE"
);
}
);
};
layerId = "6D8A9A52-7D7D-4498-B039-FDF10F245A16";
name = Light;
paths = (
{
closed = 1;
nodes = (
"1071 0 LINE",
"1071 88 LINE",
"837 123 LINE SMOOTH",
"800 129 OFFCURVE",
"781 149 OFFCURVE",
"781 186 CURVE SMOOTH",
"781 1464 LINE",
"913 1464 LINE SMOOTH",
"1018 1464 OFFCURVE",
"1094 1456 OFFCURVE",
"1137 1440 CURVE SMOOTH",
"1167 1429 OFFCURVE",
"1184 1413 OFFCURVE",
"1191 1379 CURVE SMOOTH",
"1259 1061 LINE",
"1357 1061 LINE",
"1366 1225 OFFCURVE",
"1364 1398 OFFCURVE",
"1339 1562 CURVE",
"58 1562 LINE",
"30 1398 OFFCURVE",
"25 1225 OFFCURVE",
"31 1061 CURVE",
"129 1061 LINE",
"200 1379 LINE SMOOTH",
"208 1413 OFFCURVE",
"225 1429 OFFCURVE",
"257 1440 CURVE SMOOTH",
"296 1454 OFFCURVE",
"383 1464 OFFCURVE",
"484 1464 CURVE SMOOTH",
"611 1464 LINE",
"611 186 LINE SMOOTH",
"611 149 OFFCURVE",
"592 129 OFFCURVE",
"555 123 CURVE SMOOTH",
"321 88 LINE",
"321 0 LINE"
);
}
);
width = 1391;
}
);
rightMetricsKey = "=|";
unicode = 0054;
},
{
color = 9;
glyphname = U;
lastChange = "2015-09-29 15:43:04 +0000";
layers = (
{
anchors = (
{
name = btm;
position = "{789, -170}";
},
{
name = top;
position = "{843, 1700}";
}
);
background = {
anchors = (
{
name = btm;
position = "{789, -170}";
},
{
name = top;
position = "{843, 1700}";
}
);
paths = (
{
closed = 1;
nodes = (
"834 -16 CURVE SMOOTH",
"1180 -16 OFFCURVE",
"1430 154 OFFCURVE",
"1430 598 CURVE SMOOTH",
"1430 1420 LINE",
"1393 1321 LINE",
"1557 1360 LINE",
"1557 1522 LINE",
"997 1522 LINE",
"997 1360 LINE",
"1218 1323 LINE",
"1176 1420 LINE",
"1176 575 LINE",
"1176 332 OFFCURVE",
"1107 141 OFFCURVE",
"898 141 CURVE SMOOTH",
"683 141 OFFCURVE",
"609 320 OFFCURVE",
"609 575 CURVE SMOOTH",
"609 1420 LINE",
"585 1321 LINE",
"779 1360 LINE",
"779 1522 LINE",
"60 1522 LINE",
"60 1360 LINE",
"218 1320 LINE",
"179 1420 LINE",
"179 609 LINE",
"179 166 OFFCURVE",
"408 -16 OFFCURVE"
);
}
);
};
layerId = "6AFE116F-39E0-4FF2-A27B-879B4E5E3272";
name = Bold;
paths = (
{
closed = 1;
nodes = (
"987 1562 LINE",
"987 1400 LINE",
"1151 1369 LINE SMOOTH",
"1180 1364 OFFCURVE",
"1196 1345 OFFCURVE",
"1196 1315 CURVE SMOOTH",
"1196 555 LINE SMOOTH",
"1196 312 OFFCURVE",
"1127 141 OFFCURVE",
"888 141 CURVE SMOOTH",
"653 141 OFFCURVE",
"589 300 OFFCURVE",
"589 555 CURVE SMOOTH",
"589 1311 LINE SMOOTH",
"589 1341 OFFCURVE",
"604 1360 OFFCURVE",
"633 1366 CURVE SMOOTH",
"789 1400 LINE",
"789 1562 LINE",
"20 1562 LINE",
"20 1400 LINE",
"117 1372 LINE SMOOTH",
"145 1364 OFFCURVE",
"159 1345 OFFCURVE",
"159 1316 CURVE SMOOTH",
"159 589 LINE SMOOTH",
"159 146 OFFCURVE",
"378 -16 OFFCURVE",
"824 -16 CURVE SMOOTH",
"1200 -16 OFFCURVE",
"1446 134 OFFCURVE",
"1446 578 CURVE SMOOTH",
"1446 1316 LINE SMOOTH",
"1446 1345 OFFCURVE",
"1461 1365 OFFCURVE",
"1489 1372 CURVE SMOOTH",
"1597 1400 LINE",
"1597 1562 LINE"
);
}
);
width = 1617;
},
{
anchors = (
{
name = btm;
position = "{793, -170}";
},
{
name = top;
position = "{799, 1700}";
}
);
background = {
anchors = (
{
name = btm;
position = "{793, -170}";
},
{
name = top;
position = "{799, 1700}";
}
);
paths = (
{
closed = 1;
nodes = (
"781 -16 CURVE SMOOTH",
"1092 -16 OFFCURVE",
"1322 181 OFFCURVE",
"1322 625 CURVE SMOOTH",
"1322 1460 LINE",
"1294 1407 LINE",
"1479 1434 LINE",
"1479 1522 LINE",
"1024 1522 LINE",
"1024 1434 LINE",
"1227 1406 LINE",
"1193 1460 LINE",
"1193 617 LINE",
"1193 269 OFFCURVE",
"1059 83 OFFCURVE",
"797 83 CURVE SMOOTH",
"557 83 OFFCURVE",
"385 208 OFFCURVE",
"385 633 CURVE SMOOTH",
"385 1460 LINE",
"356 1407 LINE",
"561 1434 LINE",
"561 1522 LINE",
"60 1522 LINE",
"60 1434 LINE",
"238 1407 LINE",
"212 1460 LINE",
"212 651 LINE",
"212 199 OFFCURVE",
"385 -16 OFFCURVE"
);
}
);
};
layerId = "6D8A9A52-7D7D-4498-B039-FDF10F245A16";
name = Light;
paths = (
{
closed = 1;
nodes = (
"973 1562 LINE",
"973 1474 LINE",
"1149 1442 LINE SMOOTH",
"1184 1436 OFFCURVE",
"1202 1413 OFFCURVE",
"1202 1377 CURVE SMOOTH",
"1202 567 LINE SMOOTH",
"1202 244 OFFCURVE",
"1079 83 OFFCURVE",
"790 83 CURVE SMOOTH",
"557 83 OFFCURVE",
"386 196 OFFCURVE",
"386 583 CURVE SMOOTH",
"386 1376 LINE SMOOTH",
"386 1412 OFFCURVE",
"405 1436 OFFCURVE",
"440 1442 CURVE SMOOTH",
"622 1474 LINE",
"622 1562 LINE",
"40 1562 LINE",
"40 1474 LINE",
"160 1444 LINE SMOOTH",
"195 1435 OFFCURVE",
"212 1414 OFFCURVE",
"212 1378 CURVE SMOOTH",
"212 601 LINE SMOOTH",
"212 191 OFFCURVE",
"375 -16 OFFCURVE",
"759 -16 CURVE SMOOTH",
"1123 -16 OFFCURVE",
"1332 161 OFFCURVE",
"1332 575 CURVE SMOOTH",
"1332 1377 LINE SMOOTH",
"1332 1413 OFFCURVE",
"1349 1436 OFFCURVE",
"1384 1444 CURVE SMOOTH",
"1509 1474 LINE",
"1509 1562 LINE"
);
}
);
width = 1549;
}
);
rightMetricsKey = "=|";
unicode = 0055;
},
{
color = 9;
glyphname = V;
lastChange = "2015-10-01 09:45:07 +0000";
layers = (
{
anchors = (
{
name = bottom;
position = "{869, -178}";
},
{
name = btm;
position = "{1022, 1692}";
},
{
name = top;
position = "{646, 1700}";
}
);
background = {
anchors = (
{
name = btm;
position = "{677, -170}";
},
{
name = top;
position = "{646, 1700}";
}
);
paths = (
{
closed = 1;
nodes = (
"580 -15 LINE",
"917 -15 LINE",
"1403 1428 LINE",
"1322 1320 LINE",
"1503 1360 LINE",
"1503 1522 LINE",
"950 1522 LINE",
"950 1360 LINE",
"1158 1320 LINE",
"1140 1431 LINE",
"853 475 LINE",
"825 330 LINE",
"788 475 LINE",
"499 1427 LINE",
"469 1320 LINE",
"689 1360 LINE",
"689 1522 LINE",
"-43 1522 LINE",
"-43 1360 LINE",
"119 1320 LINE",
"42 1422 LINE"
);
}
);
};
layerId = "6AFE116F-39E0-4FF2-A27B-879B4E5E3272";
name = Bold;
paths = (
{
closed = 1;
nodes = (
"696 -5 LINE",
"1065 -5 LINE",
"1495 1324 LINE SMOOTH",
"1503 1350 OFFCURVE",
"1520 1363 OFFCURVE",
"1546 1370 CURVE SMOOTH",
"1666 1400 LINE",
"1666 1562 LINE",
"1090 1562 LINE",
"1090 1400 LINE",
"1280 1365 LINE",
"924 184 LINE",
"1026 184 LINE",
"630 1365 LINE",
"820 1400 LINE",
"820 1562 LINE",
"51 1562 LINE",
"51 1400 LINE",
"161 1370 LINE SMOOTH",
"186 1363 OFFCURVE",
"203 1350 OFFCURVE",
"212 1324 CURVE SMOOTH"
);
}
);
width = 1720;
},
{
anchors = (
{
name = bottom;
position = "{789, -178}";
},
{
name = btm;
position = "{818, 1692}";
},
{
name = top;
position = "{672, 1700}";
}
);
background = {
anchors = (
{
name = btm;
position = "{703, -170}";
},
{
name = top;
position = "{672, 1700}";
}
);
paths = (
{
closed = 1;
nodes = (
"633 -16 LINE",
"768 -16 LINE",
"1271 1455 LINE",
"1228 1407 LINE",
"1386 1434 LINE",
"1386 1522 LINE",
"955 1522 LINE",
"955 1434 LINE",
"1139 1409 LINE",
"1134 1457 LINE",
"805 428 LINE",
"727 145 LINE",
"641 423 LINE",
"263 1454 LINE",
"244 1408 LINE",
"467 1434 LINE",
"467 1522 LINE",
"-30 1522 LINE",
"-30 1434 LINE",
"135 1405 LINE",
"83 1450 LINE"
);
}
);
};
layerId = "6D8A9A52-7D7D-4498-B039-FDF10F245A16";
name = Light;
paths = (
{
closed = 1;
nodes = (
"731 -5 LINE",
"889 -5 LINE",
"1367 1388 LINE SMOOTH",
"1377 1418 OFFCURVE",
"1398 1433 OFFCURVE",
"1429 1442 CURVE SMOOTH",
"1545 1474 LINE",
"1545 1562 LINE",
"1036 1562 LINE",
"1036 1474 LINE",
"1246 1432 LINE",
"795 77 LINE",
"874 77 LINE",
"371 1432 LINE",
"581 1474 LINE",
"581 1562 LINE",
"30 1562 LINE",
"30 1474 LINE",
"140 1442 LINE SMOOTH",
"172 1433 OFFCURVE",
"190 1419 OFFCURVE",
"202 1388 CURVE SMOOTH"
);
}
);
width = 1575;
}
);
unicode = 0056;
},
{
color = 9;
glyphname = W;
lastChange = "2015-10-01 09:55:26 +0000";
layers = (
{
anchors = (
{
name = btm;
position = "{1033, -170}";
},
{
name = top;
position = "{1211, 1700}";
}
);
background = {
anchors = (
{
name = btm;
position = "{1033, -170}";
},
{
name = top;
position = "{1211, 1700}";
}
);
paths = (
{
closed = 1;
nodes = (
"586 -10 LINE",
"953 -10 LINE",
"1212 987 LINE",
"1155 918 LINE",
"1415 -10 LINE",
"1784 -10 LINE",
"2172 1425 LINE",
"2097 1317 LINE",
"2272 1360 LINE",
"2272 1522 LINE",
"1770 1522 LINE",
"1770 1360 LINE",
"2006 1316 LINE",
"1954 1438 LINE",
"1730 450 LINE",
"1696 224 LINE",
"1721 224 LINE",
"1673 450 LINE",
"1412 1452 LINE",
"1362 1317 LINE",
"1637 1360 LINE",
"1637 1522 LINE",
"900 1522 LINE",
"900 1360 LINE",
"1092 1313 LINE",
"985 1437 LINE",
"1096 1104 LINE",
"1091 1198 LINE",
"886 450 LINE",
"852 194 LINE",
"890 194 LINE",
"839 450 LINE",
"585 1436 LINE",
"536 1314 LINE",
"773 1360 LINE",
"773 1522 LINE",
"70 1522 LINE",
"70 1360 LINE",
"241 1312 LINE",
"146 1442 LINE"
);
}
);
};
layerId = "6AFE116F-39E0-4FF2-A27B-879B4E5E3272";
name = Bold;
paths = (
{
closed = 1;
nodes = (
"1094 1248 LINE",
"823 255 LINE",
"868 255 LINE",
"586 1365 LINE",
"751 1400 LINE",
"751 1562 LINE",
"8 1562 LINE",
"8 1400 LINE",
"123 1370 LINE SMOOTH",
"147 1364 OFFCURVE",
"163 1346 OFFCURVE",
"171 1321 CURVE SMOOTH",
"574 -5 LINE",
"944 -5 LINE",
"1216 1022 LINE"
);
},
{
closed = 1;
nodes = (
"1131 1032 LINE",
"1424 -5 LINE",
"1794 -5 LINE",
"2161 1321 LINE SMOOTH",
"2168 1348 OFFCURVE",
"2183 1364 OFFCURVE",
"2209 1370 CURVE SMOOTH",
"2334 1400 LINE",
"2334 1562 LINE",
"1788 1562 LINE",
"1788 1400 LINE",
"1953 1365 LINE",
"1668 255 LINE",
"1725 255 LINE",
"1444 1365 LINE",
"1641 1400 LINE",
"1641 1562 LINE",
"900 1562 LINE",
"900 1400 LINE",
"988 1370 LINE SMOOTH",
"1011 1362 OFFCURVE",
"1028 1346 OFFCURVE",
"1036 1321 CURVE SMOOTH"
);
}
);
width = 2342;
},
{
anchors = (
{
name = btm;
position = "{1109, -170}";
},
{
name = top;
position = "{1119, 1700}";
}
);
background = {
anchors = (
{
name = btm;
position = "{1109, -170}";
},
{
name = top;
position = "{1119, 1700}";
}
);
paths = (
{
closed = 1;
nodes = (
"655 -11 LINE",
"804 -11 LINE",
"1149 1122 LINE",
"1118 1101 LINE",
"1461 -11 LINE",
"1620 -11 LINE",
"2052 1453 LINE",
"2026 1409 LINE",
"2177 1434 LINE",
"2177 1522 LINE",
"1692 1522 LINE",
"1692 1434 LINE",
"1927 1409 LINE",
"1922 1463 LINE",
"1633 439 LINE",
"1555 34 LINE",
"1579 34 LINE",
"1486 439 LINE",
"1179 1474 LINE",
"1169 1408 LINE",
"1400 1434 LINE",
"1400 1522 LINE",
"868 1522 LINE",
"868 1434 LINE",
"1042 1408 LINE",
"1003 1463 LINE",
"1089 1195 LINE",
"1089 1285 LINE",
"829 439 LINE",
"732 44 LINE",
"764 44 LINE",
"682 439 LINE",
"369 1462 LINE",
"359 1408 LINE",
"585 1434 LINE",
"585 1522 LINE",
"70 1522 LINE",
"70 1434 LINE",
"235 1407 LINE",
"195 1466 LINE"
);
}
);
};
layerId = "6D8A9A52-7D7D-4498-B039-FDF10F245A16";
name = Light;
paths = (
{
closed = 1;
nodes = (
"1094 1343 LINE",
"730 126 LINE",
"773 126 LINE",
"370 1432 LINE",
"580 1474 LINE",
"580 1562 LINE",
"25 1562 LINE",
"25 1474 LINE",
"140 1442 LINE SMOOTH",
"172 1433 OFFCURVE",
"191 1417 OFFCURVE",
"201 1386 CURVE SMOOTH",
"647 -11 LINE",
"812 -11 LINE",
"1162 1170 LINE"
);
},
{
closed = 1;
nodes = (
"1110 1168 LINE",
"1466 -11 LINE",
"1633 -11 LINE",
"2044 1385 LINE SMOOTH",
"2055 1422 OFFCURVE",
"2075 1433 OFFCURVE",
"2107 1442 CURVE SMOOTH",
"2223 1474 LINE",
"2223 1562 LINE",
"1718 1562 LINE",
"1718 1474 LINE",
"1928 1432 LINE",
"1550 120 LINE",
"1593 120 LINE",
"1200 1432 LINE",
"1408 1474 LINE",
"1408 1562 LINE",
"868 1562 LINE",
"868 1474 LINE",
"973 1442 LINE SMOOTH",
"1005 1432 OFFCURVE",
"1023 1417 OFFCURVE",
"1034 1386 CURVE SMOOTH"
);
}
);
width = 2247;
}
);
unicode = 0057;
},
{
color = 9;
glyphname = X;
lastChange = "2015-10-01 16:27:53 +0000";
layers = (
{
anchors = (
{
name = btm;
position = "{795, -170}";
},
{
name = top;
position = "{795, 1700}";
}
);
background = {
anchors = (
{
name = btm;
position = "{795, -170}";
},
{
name = top;
position = "{795, 1700}";
}
);
paths = (
{
closed = 1;
nodes = (
"70 0 LINE",
"646 0 LINE",
"646 152 LINE",
"422 180 LINE",
"408 74 LINE",
"751 685 LINE",
"653 683 LINE",
"1007 88 LINE",
"1002 186 LINE",
"808 152 LINE",
"808 0 LINE",
"1558 0 LINE",
"1558 152 LINE",
"1351 192 LINE",
"1491 90 LINE",
"981 854 LINE",
"963 775 LINE",
"1450 1434 LINE",
"1326 1322 LINE",
"1540 1360 LINE",
"1540 1522 LINE",
"984 1522 LINE",
"984 1360 LINE",
"1184 1325 LINE",
"1211 1426 LINE",
"858 863 LINE",
"953 861 LINE",
"621 1435 LINE",
"637 1318 LINE",
"825 1360 LINE",
"825 1522 LINE",
"74 1522 LINE",
"74 1360 LINE",
"236 1321 LINE",
"136 1428 LINE",
"620 699 LINE",
"647 779 LINE",
"180 90 LINE",
"287 181 LINE",
"70 152 LINE"
);
}
);
};
guideLines = (
{
angle = 55.476;
position = "{1035, 1020}";
}
);
layerId = "6AFE116F-39E0-4FF2-A27B-879B4E5E3272";
name = Bold;
paths = (
{
closed = 1;
nodes = (
"1588 0 LINE",
"1588 154 LINE",
"1474 182 LINE SMOOTH",
"1450 188 OFFCURVE",
"1434 200 OFFCURVE",
"1420 221 CURVE SMOOTH",
"972 914 LINE",
"954 914 LINE",
"681 1365 LINE",
"825 1400 LINE",
"825 1562 LINE",
"64 1562 LINE",
"64 1400 LINE",
"175 1370 LINE SMOOTH",
"199 1363 OFFCURVE",
"214 1352 OFFCURVE",
"228 1331 CURVE SMOOTH",
"647 676 LINE",
"664 676 LINE",
"960 187 LINE",
"813 154 LINE",
"813 0 LINE"
);
},
{
closed = 1;
nodes = (
"636 0 LINE",
"636 154 LINE",
"453 187 LINE",
"794 716 LINE",
"903 716 LINE",
"1345 1334 LINE SMOOTH",
"1359 1354 OFFCURVE",
"1377 1365 OFFCURVE",
"1401 1370 CURVE SMOOTH",
"1540 1400 LINE",
"1540 1562 LINE",
"974 1562 LINE",
"974 1400 LINE",
"1143 1365 LINE",
"815 872 LINE",
"703 872 LINE",
"245 219 LINE SMOOTH",
"229 197 OFFCURVE",
"215 187 OFFCURVE",
"190 182 CURVE SMOOTH",
"40 154 LINE",
"40 0 LINE"
);
}
);
width = 1628;
},
{
anchors = (
{
name = btm;
position = "{759, -170}";
},
{
name = top;
position = "{759, 1700}";
}
);
background = {
anchors = (
{
name = btm;
position = "{759, -170}";
},
{
name = top;
position = "{759, 1700}";
}
);
paths = (
{
closed = 1;
nodes = (
"50 0 LINE",
"588 0 LINE",
"588 90 LINE",
"341 113 LINE",
"346 54 LINE",
"753 749 LINE",
"721 744 LINE",
"1135 67 LINE",
"1149 114 LINE",
"908 90 LINE",
"908 0 LINE",
"1478 0 LINE",
"1478 90 LINE",
"1259 116 LINE",
"1343 69 LINE",
"829 844 LINE",
"834 786 LINE",
"1313 1498 LINE",
"1233 1441 LINE",
"1440 1472 LINE",
"1440 1562 LINE",
"951 1562 LINE",
"951 1472 LINE",
"1161 1445 LINE",
"1160 1491 LINE",
"771 841 LINE",
"823 835 LINE",
"419 1499 LINE",
"408 1443 LINE",
"660 1472 LINE",
"660 1562 LINE",
"86 1562 LINE",
"86 1472 LINE",
"289 1441 LINE",
"214 1493 LINE",
"699 758 LINE",
"689 810 LINE",
"200 69 LINE",
"269 114 LINE",
"50 90 LINE"
);
}
);
};
guideLines = (
{
angle = 123.098;
position = "{-85, -57}";
},
{
angle = 55.8485;
position = "{1754, 1115}";
}
);
layerId = "6D8A9A52-7D7D-4498-B039-FDF10F245A16";
name = Light;
paths = (
{
closed = 1;
nodes = (
"1478 0 LINE",
"1478 88 LINE",
"1359 117 LINE SMOOTH",
"1330 124 OFFCURVE",
"1310 136 OFFCURVE",
"1293 162 CURVE SMOOTH",
"825 858 LINE",
"813 858 LINE",
"450 1437 LINE",
"660 1474 LINE",
"660 1562 LINE",
"86 1562 LINE",
"86 1474 LINE",
"202 1442 LINE SMOOTH",
"231 1434 OFFCURVE",
"250 1420 OFFCURVE",
"266 1395 CURVE SMOOTH",
"701 736 LINE",
"716 735 LINE",
"1109 122 LINE",
"908 88 LINE",
"908 0 LINE"
);
},
{
closed = 1;
nodes = (
"588 0 LINE",
"588 88 LINE",
"377 122 LINE",
"784 739 LINE",
"801 739 LINE",
"1256 1396 LINE SMOOTH",
"1273 1421 OFFCURVE",
"1292 1434 OFFCURVE",
"1321 1442 CURVE SMOOTH",
"1440 1474 LINE",
"1440 1562 LINE",
"951 1562 LINE",
"951 1474 LINE",
"1135 1437 LINE",
"749 842 LINE",
"724 842 LINE",
"250 162 LINE SMOOTH",
"232 136 OFFCURVE",
"214 124 OFFCURVE",
"184 117 CURVE SMOOTH",
"50 88 LINE",
"50 0 LINE"
);
}
);
width = 1528;
}
);
unicode = 0058;
},
{
color = 9;
glyphname = Y;
lastChange = "2015-09-29 18:17:56 +0000";
layers = (
{
anchors = (
{
name = btm;
position = "{701, -170}";
},
{
name = top;
position = "{863, 1700}";
}
);
background = {
anchors = (
{
name = btm;
position = "{701, -170}";
},
{
name = top;
position = "{863, 1700}";
}
);
paths = (
{
closed = 1;
nodes = (
"423 0 LINE",
"1283 0 LINE",
"1283 152 LINE",
"1030 180 LINE",
"1070 102 LINE",
"1070 704 LINE",
"1022 530 LINE",
"1506 1445 LINE",
"1358 1316 LINE",
"1568 1360 LINE",
"1568 1522 LINE",
"1017 1522 LINE",
"1017 1360 LINE",
"1211 1322 LINE",
"1222 1458 LINE",
"985 896 LINE",
"936 759 LINE",
"948 759 LINE",
"900 898 LINE",
"633 1453 LINE",
"652 1319 LINE",
"814 1360 LINE",
"814 1522 LINE",
"110 1522 LINE",
"110 1360 LINE",
"264 1320 LINE",
"147 1460 LINE",
"698 493 LINE",
"626 704 LINE",
"626 101 LINE",
"643 178 LINE",
"423 152 LINE"
);
}
);
};
layerId = "6AFE116F-39E0-4FF2-A27B-879B4E5E3272";
name = Bold;
paths = (
{
closed = 1;
nodes = (
"1014 518 LINE",
"1424 1331 LINE SMOOTH",
"1436 1355 OFFCURVE",
"1454 1365 OFFCURVE",
"1479 1371 CURVE SMOOTH",
"1592 1400 LINE",
"1592 1562 LINE",
"1023 1562 LINE",
"1023 1400 LINE",
"1196 1360 LINE",
"900 734 LINE",
"1011 735 LINE",
"695 1359 LINE",
"846 1400 LINE",
"846 1562 LINE",
"50 1562 LINE",
"50 1400 LINE",
"174 1369 LINE SMOOTH",
"198 1363 OFFCURVE",
"215 1352 OFFCURVE",
"228 1329 CURVE SMOOTH",
"688 518 LINE"
);
},
{
closed = 1;
nodes = (
"1298 0 LINE",
"1298 152 LINE",
"1109 191 LINE SMOOTH",
"1079 197 OFFCURVE",
"1063 214 OFFCURVE",
"1063 244 CURVE SMOOTH",
"1063 666 LINE",
"633 666 LINE",
"633 244 LINE SMOOTH",
"633 214 OFFCURVE",
"617 197 OFFCURVE",
"587 191 CURVE SMOOTH",
"398 152 LINE",
"398 0 LINE"
);
}
);
width = 1668;
},
{
anchors = (
{
name = btm;
position = "{734, -170}";
},
{
name = top;
position = "{787, 1700}";
}
);
background = {
anchors = (
{
name = btm;
position = "{734, -170}";
},
{
name = top;
position = "{787, 1700}";
}
);
paths = (
{
closed = 1;
nodes = (
"463 0 LINE",
"1096 0 LINE",
"1096 88 LINE",
"826 111 LINE",
"863 75 LINE",
"863 639 LINE",
"831 528 LINE",
"1333 1463 LINE",
"1264 1404 LINE",
"1441 1434 LINE",
"1441 1522 LINE",
"996 1522 LINE",
"996 1434 LINE",
"1192 1408 LINE",
"1199 1473 LINE",
"870 831 LINE",
"786 655 LINE",
"797 655 LINE",
"718 831 LINE",
"377 1470 LINE",
"381 1408 LINE",
"581 1434 LINE",
"581 1522 LINE",
"90 1522 LINE",
"90 1434 LINE",
"266 1401 LINE",
"182 1474 LINE",
"725 526 LINE",
"691 639 LINE",
"691 74 LINE",
"729 111 LINE",
"463 88 LINE"
);
}
);
};
layerId = "6D8A9A52-7D7D-4498-B039-FDF10F245A16";
name = Light;
paths = (
{
closed = 1;
nodes = (
"833 539 LINE",
"1284 1398 LINE SMOOTH",
"1299 1426 OFFCURVE",
"1319 1439 OFFCURVE",
"1350 1446 CURVE SMOOTH",
"1476 1474 LINE",
"1476 1562 LINE",
"976 1562 LINE",
"976 1474 LINE",
"1167 1439 LINE",
"771 677 LINE",
"837 677 LINE",
"407 1437 LINE",
"600 1474 LINE",
"600 1562 LINE",
"40 1562 LINE",
"40 1474 LINE",
"166 1443 LINE SMOOTH",
"196 1435 OFFCURVE",
"216 1421 OFFCURVE",
"231 1395 CURVE SMOOTH",
"724 539 LINE"
);
},
{
closed = 1;
nodes = (
"1112 0 LINE",
"1112 88 LINE",
"918 123 LINE SMOOTH",
"881 130 OFFCURVE",
"862 149 OFFCURVE",
"862 186 CURVE SMOOTH",
"862 614 LINE",
"692 614 LINE",
"692 186 LINE SMOOTH",
"692 149 OFFCURVE",
"673 130 OFFCURVE",
"636 123 CURVE SMOOTH",
"442 88 LINE",
"442 0 LINE"
);
}
);
width = 1521;
}
);
unicode = 0059;
},
{
color = 9;
glyphname = Z;
lastChange = "2015-10-01 15:30:47 +0000";
layers = (
{
anchors = (
{
name = btm;
position = "{745, -170}";
},
{
name = top;
position = "{769, 1700}";
}
);
background = {
anchors = (
{
name = btm;
position = "{745, -170}";
},
{
name = top;
position = "{769, 1700}";
}
);
paths = (
{
closed = 1;
nodes = (
"137 0 LINE",
"1315 0 LINE",
"1360 469 LINE",
"1155 510 LINE",
"1031 196 LINE",
"509 151 LINE",
"659 277 LINE",
"1347 1388 LINE",
"1293 1526 LINE",
"192 1526 LINE",
"138 1093 LINE",
"343 1062 LINE",
"462 1350 LINE",
"892 1382 LINE",
"767 1247 LINE",
"60 133 LINE"
);
}
);
};
layerId = "6AFE116F-39E0-4FF2-A27B-879B4E5E3272";
name = Bold;
paths = (
{
closed = 1;
nodes = (
"1310 0 LINE",
"1338 156 OFFCURVE",
"1355 391 OFFCURVE",
"1351 532 CURVE",
"1129 562 LINE",
"1022 263 LINE SMOOTH",
"1009 227 OFFCURVE",
"990 208 OFFCURVE",
"963 197 CURVE SMOOTH",
"931 184 OFFCURVE",
"872 175 OFFCURVE",
"791 175 CURVE SMOOTH",
"463 175 LINE",
"539 117 LINE",
"1350 1428 LINE",
"1296 1566 LINE",
"162 1566 LINE",
"131 1400 OFFCURVE",
"123 1204 OFFCURVE",
"129 1028 CURVE",
"361 1028 LINE",
"457 1318 LINE SMOOTH",
"469 1353 OFFCURVE",
"486 1372 OFFCURVE",
"516 1384 CURVE SMOOTH",
"548 1397 OFFCURVE",
"607 1406 OFFCURVE",
"688 1406 CURVE SMOOTH",
"940 1406 LINE",
"890 1444 LINE",
"65 133 LINE",
"142 0 LINE"
);
}
);
width = 1412;
},
{
anchors = (
{
name = btm;
position = "{683, -170}";
},
{
name = top;
position = "{706, 1700}";
}
);
background = {
anchors = (
{
name = btm;
position = "{683, -170}";
},
{
name = top;
position = "{706, 1700}";
}
);
paths = (
{
closed = 1;
nodes = (
"135 0 LINE",
"1201 0 LINE",
"1249 433 LINE",
"1151 454 LINE",
"1049 132 LINE",
"291 96 LINE",
"424 256 LINE",
"1226 1452 LINE",
"1182 1528 LINE",
"217 1528 LINE",
"174 1157 LINE",
"268 1146 LINE",
"369 1413 LINE",
"1019 1434 LINE",
"903 1286 LINE",
"87 80 LINE"
);
}
);
};
layerId = "6D8A9A52-7D7D-4498-B039-FDF10F245A16";
name = Light;
paths = (
{
closed = 1;
nodes = (
"1203 0 LINE",
"1225 126 OFFCURVE",
"1238 306 OFFCURVE",
"1236 436 CURVE",
"1148 446 LINE",
"1068 189 LINE SMOOTH",
"1059 160 OFFCURVE",
"1042 143 OFFCURVE",
"1011 132 CURVE SMOOTH",
"960 114 OFFCURVE",
"875 108 OFFCURVE",
"778 108 CURVE SMOOTH",
"246 108 LINE",
"285 65 LINE",
"1231 1486 LINE",
"1187 1562 LINE",
"211 1562 LINE",
"194 1427 OFFCURVE",
"183 1273 OFFCURVE",
"189 1138 CURVE",
"283 1138 LINE",
"346 1379 LINE SMOOTH",
"354 1408 OFFCURVE",
"372 1425 OFFCURVE",
"403 1436 CURVE SMOOTH",
"454 1454 OFFCURVE",
"539 1458 OFFCURVE",
"636 1458 CURVE SMOOTH",
"1068 1458 LINE",
"1034 1495 LINE",
"87 80 LINE",
"135 0 LINE"
);
}
);
width = 1338;
}
);
unicode = 005A;
},
{
color = 9;
glyphname = a;
lastChange = "2015-09-18 13:40:05 +0000";
layers = (
{
anchors = (
{
name = btm;
position = "{528, -170}";
},
{
name = top;
position = "{540, 1700}";
}
);
background = {
anchors = (
{
name = btm;
position = "{528, -170}";
},
{
name = top;
position = "{540, 1700}";
}
);
paths = (
{
closed = 1;
nodes = (
"0 330 CURVE SMOOTH",
"0 107 OFFCURVE",
"159 -23 OFFCURVE",
"349 -23 CURVE SMOOTH",
"524 -23 OFFCURVE",
"635 69 OFFCURVE",
"685 146 CURVE",
"699 218 LINE",
"658 245 LINE",
"630 213 OFFCURVE",
"580 189 OFFCURVE",
"542 189 CURVE SMOOTH",
"460 189 OFFCURVE",
"413 266 OFFCURVE",
"413 374 CURVE SMOOTH",
"413 467 OFFCURVE",
"472 559 OFFCURVE",
"658 560 CURVE",
"707 625 LINE",
"658 710 LINE",
"212 709 OFFCURVE",
"0 566 OFFCURVE"
);
},
{
closed = 1;
nodes = (
"658 195 LINE",
"677 178 LINE",
"677 96 LINE",
"677 5 OFFCURVE",
"700 -26 OFFCURVE",
"821 -26 CURVE SMOOTH",
"918 -26 OFFCURVE",
"1074 -6 OFFCURVE",
"1124 4 CURVE",
"1124 152 LINE",
"1024 152 LINE",
"1024 738 LINE",
"1024 1043 OFFCURVE",
"921 1167 OFFCURVE",
"575 1167 CURVE SMOOTH",
"309 1167 OFFCURVE",
"103 1052 OFFCURVE",
"46 1008 CURVE",
"125 840 LINE",
"126 840 LINE",
"192 867 OFFCURVE",
"311 917 OFFCURVE",
"473 917 CURVE SMOOTH",
"634 917 OFFCURVE",
"658 861 OFFCURVE",
"658 742 CURVE SMOOTH"
);
}
);
};
layerId = "6AFE116F-39E0-4FF2-A27B-879B4E5E3272";
name = Bold;
paths = (
{
closed = 1;
nodes = (
"20 92 OFFCURVE",
"147 -23 OFFCURVE",
"356 -23 CURVE SMOOTH",
"535 -23 OFFCURVE",
"665 52 OFFCURVE",
"735 190 CURVE",
"708 273 LINE",
"661 221 OFFCURVE",
"604 189 OFFCURVE",
"528 189 CURVE SMOOTH",
"450 189 OFFCURVE",
"423 227 OFFCURVE",
"423 307 CURVE SMOOTH",
"423 385 OFFCURVE",
"448 458 OFFCURVE",
"571 466 CURVE SMOOTH",
"698 474 LINE",
"698 606 LINE",
"464 593 LINE SMOOTH",
"223 580 OFFCURVE",
"20 469 OFFCURVE",
"20 259 CURVE SMOOTH"
);
},
{
closed = 1;
nodes = (
"144 801 LINE",
"231 878 OFFCURVE",
"332 917 OFFCURVE",
"453 917 CURVE SMOOTH",
"587 917 OFFCURVE",
"658 869 OFFCURVE",
"658 716 CURVE SMOOTH",
"658 195 LINE",
"692 29 OFFCURVE",
"791 -19 OFFCURVE",
"937 -19 CURVE SMOOTH",
"1023 -19 OFFCURVE",
"1127 5 OFFCURVE",
"1185 20 CURVE",
"1185 164 LINE",
"1090 177 LINE SMOOTH",
"1058 181 OFFCURVE",
"1040 195 OFFCURVE",
"1040 237 CURVE SMOOTH",
"1040 716 LINE SMOOTH",
"1040 1011 OFFCURVE",
"908 1167 OFFCURVE",
"571 1167 CURVE SMOOTH",
"286 1167 OFFCURVE",
"124 1055 OFFCURVE",
"55 877 CURVE"
);
}
);
width = 1204;
},
{
anchors = (
{
name = btm;
position = "{493, -170}";
},
{
name = top;
position = "{517, 1700}";
}
);
background = {
anchors = (
{
name = btm;
position = "{493, -170}";
},
{
name = top;
position = "{517, 1700}";
}
);
paths = (
{
closed = 1;
nodes = (
"70 299 CURVE SMOOTH",
"70 76 OFFCURVE",
"230 -23 OFFCURVE",
"412 -23 CURVE SMOOTH",
"585 -23 OFFCURVE",
"720 99 OFFCURVE",
"770 143 CURVE",
"797 200 LINE",
"757 223 LINE",
"675 159 OFFCURVE",
"555 99 OFFCURVE",
"473 99 CURVE SMOOTH",
"349 99 OFFCURVE",
"252 156 OFFCURVE",
"252 319 CURVE SMOOTH",
"252 475 OFFCURVE",
"416 584 OFFCURVE",
"757 586 CURVE",
"796 637 LINE",
"757 682 LINE",
"419 676 OFFCURVE",
"70 585 OFFCURVE"
);
},
{
closed = 1;
nodes = (
"757 186 LINE",
"770 186 LINE",
"770 68 LINE",
"770 -13 OFFCURVE",
"797 -19 OFFCURVE",
"856 -19 CURVE SMOOTH",
"918 -19 OFFCURVE",
"1003 1 OFFCURVE",
"1048 13 CURVE",
"1048 89 LINE",
"920 89 LINE",
"920 764 LINE",
"920 1051 OFFCURVE",
"825 1160 OFFCURVE",
"547 1160 CURVE SMOOTH",
"359 1160 OFFCURVE",
"143 1043 OFFCURVE",
"105 1007 CURVE",
"150 917 LINE",
"151 917 LINE",
"216 955 OFFCURVE",
"352 1027 OFFCURVE",
"511 1027 CURVE SMOOTH",
"704 1027 OFFCURVE",
"757 949 OFFCURVE",
"757 746 CURVE SMOOTH"
);
}
);
};
layerId = "6D8A9A52-7D7D-4498-B039-FDF10F245A16";
name = Light;
paths = (
{
closed = 1;
nodes = (
"90 69 OFFCURVE",
"229 -23 OFFCURVE",
"405 -23 CURVE SMOOTH",
"590 -23 OFFCURVE",
"748 79 OFFCURVE",
"822 214 CURVE",
"800 259 LINE",
"734 169 OFFCURVE",
"590 99 OFFCURVE",
"458 99 CURVE SMOOTH",
"333 99 OFFCURVE",
"272 161 OFFCURVE",
"272 265 CURVE SMOOTH",
"272 400 OFFCURVE",
"376 447 OFFCURVE",
"549 466 CURVE SMOOTH",
"767 490 LINE",
"777 586 LINE",
"529 562 LINE SMOOTH",
"331 543 OFFCURVE",
"90 487 OFFCURVE",
"90 249 CURVE SMOOTH"
);
},
{
closed = 1;
nodes = (
"164 893 LINE",
"262 987 OFFCURVE",
"379 1027 OFFCURVE",
"507 1027 CURVE SMOOTH",
"686 1027 OFFCURVE",
"757 948 OFFCURVE",
"757 726 CURVE SMOOTH",
"757 159 LINE",
"767 52 OFFCURVE",
"823 -16 OFFCURVE",
"923 -16 CURVE SMOOTH",
"981 -16 OFFCURVE",
"1073 7 OFFCURVE",
"1100 19 CURVE",
"1100 100 LINE",
"980 110 LINE SMOOTH",
"941 113 OFFCURVE",
"920 131 OFFCURVE",
"920 175 CURVE SMOOTH",
"920 764 LINE SMOOTH",
"920 1036 OFFCURVE",
"800 1160 OFFCURVE",
"552 1160 CURVE SMOOTH",
"360 1160 OFFCURVE",
"171 1085 OFFCURVE",
"123 938 CURVE"
);
}
);
width = 1146;
}
);
unicode = 0061;
},
{
color = 9;
glyphname = b;
lastChange = "2015-09-17 16:48:18 +0000";
layers = (
{
anchors = (
{
name = btm;
position = "{544, -170}";
},
{
name = top;
position = "{865, 1700}";
}
);
background = {
anchors = (
{
name = btm;
position = "{544, -170}";
},
{
name = top;
position = "{865, 1700}";
}
);
paths = (
{
closed = 1;
nodes = (
"139 56 LINE",
"168 39 OFFCURVE",
"315 -23 OFFCURVE",
"614 -23 CURVE SMOOTH",
"1006 -23 OFFCURVE",
"1241 247 OFFCURVE",
"1241 604 CURVE SMOOTH",
"1241 1010 OFFCURVE",
"1052 1168 OFFCURVE",
"803 1168 CURVE SMOOTH",
"657 1168 OFFCURVE",
"531 1076 OFFCURVE",
"490 998 CURVE",
"525 882 LINE",
"550 914 OFFCURVE",
"601 941 OFFCURVE",
"655 941 CURVE SMOOTH",
"760 941 OFFCURVE",
"825 839 OFFCURVE",
"823 568 CURVE SMOOTH",
"822 259 OFFCURVE",
"742 113 OFFCURVE",
"623 113 CURVE SMOOTH",
"572 113 OFFCURVE",
"535 130 OFFCURVE",
"525 147 CURVE",
"525 1634 LINE",
"449 1680 LINE",
"444 1680 LINE",
"5 1627 LINE",
"5 1492 LINE",
"139 1462 LINE"
);
}
);
};
layerId = "6AFE116F-39E0-4FF2-A27B-879B4E5E3272";
name = Bold;
paths = (
{
closed = 1;
nodes = (
"130 56 LINE",
"218 18 OFFCURVE",
"421 -23 OFFCURVE",
"598 -23 CURVE SMOOTH",
"1021 -23 OFFCURVE",
"1248 212 OFFCURVE",
"1248 627 CURVE SMOOTH",
"1248 999 OFFCURVE",
"1066 1168 OFFCURVE",
"829 1168 CURVE SMOOTH",
"676 1168 OFFCURVE",
"539 1097 OFFCURVE",
"460 963 CURVE",
"495 900 LINE",
"543 930 OFFCURVE",
"601 941 OFFCURVE",
"646 941 CURVE SMOOTH",
"771 941 OFFCURVE",
"836 854 OFFCURVE",
"832 558 CURVE SMOOTH",
"828 252 OFFCURVE",
"760 123 OFFCURVE",
"625 123 CURVE SMOOTH",
"587 123 OFFCURVE",
"553 133 OFFCURVE",
"525 148 CURVE",
"525 1754 LINE",
"474 1800 LINE",
"328 1800 OFFCURVE",
"106 1775 OFFCURVE",
"-40 1737 CURVE",
"-40 1582 LINE",
"86 1562 LINE SMOOTH",
"115 1557 OFFCURVE",
"130 1537 OFFCURVE",
"130 1507 CURVE SMOOTH"
);
}
);
width = 1296;
},
{
anchors = (
{
name = btm;
position = "{639, -170}";
},
{
name = top;
position = "{777, 1700}";
}
);
background = {
anchors = (
{
name = btm;
position = "{639, -170}";
},
{
name = top;
position = "{777, 1700}";
}
);
paths = (
{
closed = 1;
nodes = (
"206 56 LINE",
"232 28 OFFCURVE",
"400 -23 OFFCURVE",
"586 -23 CURVE SMOOTH",
"946 -23 OFFCURVE",
"1170 261 OFFCURVE",
"1170 610 CURVE SMOOTH",
"1170 1003 OFFCURVE",
"951 1168 OFFCURVE",
"722 1168 CURVE SMOOTH",
"523 1168 OFFCURVE",
"386 1052 OFFCURVE",
"324 976 CURVE",
"369 909 LINE",
"415 961 OFFCURVE",
"524 1042 OFFCURVE",
"654 1042 CURVE SMOOTH",
"837 1042 OFFCURVE",
"994 907 OFFCURVE",
"990 581 CURVE SMOOTH",
"985 241 OFFCURVE",
"822 81 OFFCURVE",
"601 81 CURVE SMOOTH",
"499 81 OFFCURVE",
"393 106 OFFCURVE",
"371 154 CURVE",
"371 1648 LINE",
"333 1677 LINE",
"329 1677 LINE",
"30 1642 LINE",
"30 1567 LINE",
"206 1549 LINE"
);
}
);
};
layerId = "6D8A9A52-7D7D-4498-B039-FDF10F245A16";
name = Light;
paths = (
{
closed = 1;
nodes = (
"206 56 LINE",
"272 28 OFFCURVE",
"420 -23 OFFCURVE",
"586 -23 CURVE SMOOTH",
"966 -23 OFFCURVE",
"1170 241 OFFCURVE",
"1170 600 CURVE SMOOTH",
"1170 1023 OFFCURVE",
"971 1168 OFFCURVE",
"722 1168 CURVE SMOOTH",
"523 1168 OFFCURVE",
"409 1091 OFFCURVE",
"324 991 CURVE",
"329 929 LINE",
"411 997 OFFCURVE",
"516 1042 OFFCURVE",
"654 1042 CURVE SMOOTH",
"857 1042 OFFCURVE",
"994 927 OFFCURVE",
"990 571 CURVE SMOOTH",
"986 221 OFFCURVE",
"842 81 OFFCURVE",
"601 81 CURVE SMOOTH",
"499 81 OFFCURVE",
"428 106 OFFCURVE",
"371 137 CURVE",
"371 1770 LINE",
"344 1797 LINE",
"235 1794 OFFCURVE",
"105 1775 OFFCURVE",
"-4 1742 CURVE",
"-4 1667 LINE",
"149 1645 LINE SMOOTH",
"186 1640 OFFCURVE",
"206 1620 OFFCURVE",
"206 1583 CURVE SMOOTH"
);
}
);
width = 1265;
}
);
unicode = 0062;
},
{
color = 9;
glyphname = c;
lastChange = "2015-10-01 15:20:09 +0000";
layers = (
{
anchors = (
{
name = btm;
position = "{611, -170}";
},
{
name = top;
position = "{625, 1698}";
}
);
background = {
anchors = (
{
name = btm;
position = "{611, -170}";
},
{
name = top;
position = "{625, 1698}";
}
);
paths = (
{
closed = 1;
nodes = (
"61 563 CURVE SMOOTH",
"62 224 OFFCURVE",
"216 -23 OFFCURVE",
"606 -23 CURVE SMOOTH",
"832 -23 OFFCURVE",
"989 92 OFFCURVE",
"1031 142 CURVE",
"968 281 LINE",
"903 244 OFFCURVE",
"823 209 OFFCURVE",
"696 209 CURVE SMOOTH",
"561 209 OFFCURVE",
"483 352 OFFCURVE",
"484 623 CURVE SMOOTH",
"485 932 OFFCURVE",
"551 1002 OFFCURVE",
"636 1002 CURVE SMOOTH",
"668 1002 OFFCURVE",
"703 990 OFFCURVE",
"711 956 CURVE SMOOTH",
"768 707 LINE",
"1011 707 LINE",
"1028 1106 LINE",
"956 1109 OFFCURVE",
"870 1168 OFFCURVE",
"656 1168 CURVE SMOOTH",
"315 1168 OFFCURVE",
"62 947 OFFCURVE"
);
}
);
};
layerId = "6AFE116F-39E0-4FF2-A27B-879B4E5E3272";
name = Bold;
paths = (
{
closed = 1;
nodes = (
"310 1168 OFFCURVE",
"50 973 OFFCURVE",
"50 555 CURVE SMOOTH",
"50 219 OFFCURVE",
"202 -27 OFFCURVE",
"585 -27 CURVE SMOOTH",
"849 -27 OFFCURVE",
"1005 90 OFFCURVE",
"1050 236 CURVE",
"969 300 LINE",
"922 261 OFFCURVE",
"845 211 OFFCURVE",
"724 211 CURVE SMOOTH",
"538 211 OFFCURVE",
"470 331 OFFCURVE",
"474 621 CURVE SMOOTH",
"478 907 OFFCURVE",
"549 998 OFFCURVE",
"638 998 CURVE SMOOTH",
"670 998 OFFCURVE",
"699 984 OFFCURVE",
"718 966 CURVE SMOOTH",
"738 947 OFFCURVE",
"746 927 OFFCURVE",
"760 881 CURVE SMOOTH",
"821 671 LINE",
"1011 671 LINE",
"1037 799 OFFCURVE",
"1046 934 OFFCURVE",
"1036 1076 CURVE",
"944 1129 OFFCURVE",
"783 1168 OFFCURVE",
"650 1168 CURVE SMOOTH"
);
}
);
width = 1090;
},
{
anchors = (
{
name = btm;
position = "{568, -170}";
},
{
name = top;
position = "{559, 1700}";
}
);
background = {
anchors = (
{
name = btm;
position = "{568, -170}";
},
{
name = top;
position = "{559, 1700}";
}
);
paths = (
{
closed = 1;
nodes = (
"69 554 CURVE SMOOTH",
"71 232 OFFCURVE",
"245 -23 OFFCURVE",
"578 -23 CURVE SMOOTH",
"719 -23 OFFCURVE",
"873 47 OFFCURVE",
"948 123 CURVE",
"915 191 LINE",
"855 147 OFFCURVE",
"739 97 OFFCURVE",
"614 97 CURVE SMOOTH",
"406 97 OFFCURVE",
"244 262 OFFCURVE",
"246 618 CURVE SMOOTH",
"247 900 OFFCURVE",
"386 1071 OFFCURVE",
"596 1071 CURVE SMOOTH",
"680 1071 OFFCURVE",
"761 1058 OFFCURVE",
"772 1009 CURVE SMOOTH",
"815 814 LINE",
"917 814 LINE",
"926 1106 LINE",
"873 1129 OFFCURVE",
"758 1168 OFFCURVE",
"638 1168 CURVE SMOOTH",
"254 1168 OFFCURVE",
"67 878 OFFCURVE"
);
}
);
};
layerId = "6D8A9A52-7D7D-4498-B039-FDF10F245A16";
name = Light;
paths = (
{
closed = 1;
nodes = (
"239 1168 OFFCURVE",
"67 893 OFFCURVE",
"69 564 CURVE SMOOTH",
"71 210 OFFCURVE",
"241 -23 OFFCURVE",
"565 -23 CURVE SMOOTH",
"747 -23 OFFCURVE",
"892 53 OFFCURVE",
"961 183 CURVE",
"906 235 LINE",
"839 160 OFFCURVE",
"735 102 OFFCURVE",
"607 102 CURVE SMOOTH",
"391 102 OFFCURVE",
"243 266 OFFCURVE",
"254 618 CURVE SMOOTH",
"263 911 OFFCURVE",
"370 1071 OFFCURVE",
"582 1071 CURVE SMOOTH",
"664 1071 OFFCURVE",
"724 1050 OFFCURVE",
"760 1020 CURVE SMOOTH",
"785 999 OFFCURVE",
"793 987 OFFCURVE",
"804 938 CURVE SMOOTH",
"841 783 LINE",
"929 783 LINE",
"944 880 OFFCURVE",
"954 1007 OFFCURVE",
"948 1101 CURVE",
"873 1139 OFFCURVE",
"721 1168 OFFCURVE",
"623 1168 CURVE SMOOTH"
);
}
);
width = 1043;
}
);
unicode = 0063;
},
{
color = 9;
glyphname = d;
lastChange = "2015-09-18 13:40:51 +0000";
layers = (
{
anchors = (
{
name = btm;
position = "{568, -170}";
},
{
name = top;
position = "{241, 1700}";
}
);
background = {
anchors = (
{
name = btm;
position = "{568, -170}";
},
{
name = top;
position = "{241, 1700}";
}
);
paths = (
{
closed = 1;
nodes = (
"973 -26 CURVE SMOOTH",
"1062 -26 OFFCURVE",
"1191 -8 OFFCURVE",
"1258 4 CURVE",
"1258 154 LINE",
"1159 154 LINE",
"1159 1624 LINE",
"1087 1680 LINE",
"1077 1680 LINE",
"581 1637 LINE",
"581 1486 LINE",
"772 1454 LINE",
"772 182 LINE",
"821 181 LINE",
"821 96 LINE",
"821 -5 OFFCURVE",
"870 -26 OFFCURVE"
);
},
{
closed = 1;
nodes = (
"500 -23 CURVE SMOOTH",
"633 -23 OFFCURVE",
"790 54 OFFCURVE",
"840 180 CURVE",
"772 242 LINE",
"748 210 OFFCURVE",
"708 182 OFFCURVE",
"642 182 CURVE SMOOTH",
"539 182 OFFCURVE",
"472 298 OFFCURVE",
"474 579 CURVE SMOOTH",
"476 914 OFFCURVE",
"568 1011 OFFCURVE",
"675 1011 CURVE SMOOTH",
"719 1011 OFFCURVE",
"756 997 OFFCURVE",
"772 979 CURVE",
"826 1144 LINE",
"802 1152 OFFCURVE",
"740 1168 OFFCURVE",
"685 1168 CURVE SMOOTH",
"259 1168 OFFCURVE",
"58 867 OFFCURVE",
"58 543 CURVE SMOOTH",
"58 141 OFFCURVE",
"249 -23 OFFCURVE"
);
}
);
};
layerId = "6AFE116F-39E0-4FF2-A27B-879B4E5E3272";
name = Bold;
paths = (
{
closed = 1;
nodes = (
"44 148 OFFCURVE",
"231 -23 OFFCURVE",
"496 -23 CURVE SMOOTH",
"667 -23 OFFCURVE",
"791 63 OFFCURVE",
"868 198 CURVE",
"827 250 LINE",
"783 207 OFFCURVE",
"700 184 OFFCURVE",
"634 184 CURVE SMOOTH",
"512 184 OFFCURVE",
"459 300 OFFCURVE",
"460 579 CURVE SMOOTH",
"461 905 OFFCURVE",
"538 1005 OFFCURVE",
"674 1005 CURVE SMOOTH",
"722 1005 OFFCURVE",
"774 993 OFFCURVE",
"805 964 CURVE",
"826 1142 LINE",
"785 1156 OFFCURVE",
"704 1168 OFFCURVE",
"639 1168 CURVE SMOOTH",
"250 1168 OFFCURVE",
"44 943 OFFCURVE",
"44 536 CURVE SMOOTH"
);
},
{
closed = 1;
nodes = (
"1115 1800 LINE",
"964 1800 OFFCURVE",
"753 1773 OFFCURVE",
"602 1735 CURVE",
"602 1583 LINE",
"728 1563 LINE SMOOTH",
"757 1558 OFFCURVE",
"772 1538 OFFCURVE",
"772 1508 CURVE SMOOTH",
"772 207 LINE",
"807 47 OFFCURVE",
"903 -19 OFFCURVE",
"1058 -19 CURVE SMOOTH",
"1151 -19 OFFCURVE",
"1262 5 OFFCURVE",
"1312 20 CURVE",
"1312 164 LINE",
"1217 177 LINE SMOOTH",
"1185 181 OFFCURVE",
"1167 195 OFFCURVE",
"1167 237 CURVE SMOOTH",
"1167 1753 LINE"
);
}
);
width = 1352;
},
{
anchors = (
{
name = btm;
position = "{587, -170}";
},
{
name = top;
position = "{359, 1700}";
}
);
background = {
anchors = (
{
name = btm;
position = "{587, -170}";
},
{
name = top;
position = "{359, 1700}";
}
);
paths = (
{
closed = 1;
nodes = (
"990 -19 CURVE SMOOTH",
"1068 -19 OFFCURVE",
"1132 0 OFFCURVE",
"1185 13 CURVE",
"1185 92 LINE",
"1060 92 LINE",
"1060 1648 LINE",
"1022 1677 LINE",
"1017 1677 LINE",
"682 1643 LINE",
"682 1568 LINE",
"895 1549 LINE",
"895 192 LINE",
"904 191 LINE",
"904 69 LINE",
"904 -10 OFFCURVE",
"933 -19 OFFCURVE"
);
},
{
closed = 1;
nodes = (
"542 -23 CURVE SMOOTH",
"742 -23 OFFCURVE",
"880 100 OFFCURVE",
"942 190 CURVE",
"896 243 LINE",
"851 184 OFFCURVE",
"740 107 OFFCURVE",
"610 107 CURVE SMOOTH",
"428 107 OFFCURVE",
"270 238 OFFCURVE",
"275 570 CURVE SMOOTH",
"279 918 OFFCURVE",
"444 1064 OFFCURVE",
"663 1064 CURVE SMOOTH",
"767 1064 OFFCURVE",
"872 1033 OFFCURVE",
"895 996 CURVE",
"975 1119 LINE",
"912 1143 OFFCURVE",
"800 1168 OFFCURVE",
"678 1168 CURVE SMOOTH",
"318 1168 OFFCURVE",
"94 890 OFFCURVE",
"94 541 CURVE SMOOTH",
"94 156 OFFCURVE",
"310 -23 OFFCURVE"
);
}
);
};
layerId = "6D8A9A52-7D7D-4498-B039-FDF10F245A16";
name = Light;
paths = (
{
closed = 1;
nodes = (
"94 139 OFFCURVE",
"300 -23 OFFCURVE",
"551 -23 CURVE SMOOTH",
"733 -23 OFFCURVE",
"871 84 OFFCURVE",
"943 190 CURVE",
"915 236 LINE",
"834 159 OFFCURVE",
"732 106 OFFCURVE",
"608 106 CURVE SMOOTH",
"433 106 OFFCURVE",
"275 202 OFFCURVE",
"275 572 CURVE SMOOTH",
"275 950 OFFCURVE",
"447 1064 OFFCURVE",
"656 1064 CURVE SMOOTH",
"767 1064 OFFCURVE",
"890 1022 OFFCURVE",
"926 981 CURVE",
"975 1117 LINE",
"916 1140 OFFCURVE",
"801 1168 OFFCURVE",
"678 1168 CURVE SMOOTH",
"338 1168 OFFCURVE",
"94 970 OFFCURVE",
"94 540 CURVE SMOOTH"
);
},
{
closed = 1;
nodes = (
"1035 1797 LINE",
"930 1793 OFFCURVE",
"785 1776 OFFCURVE",
"680 1742 CURVE",
"680 1667 LINE",
"839 1645 LINE SMOOTH",
"875 1640 OFFCURVE",
"896 1620 OFFCURVE",
"896 1583 CURVE SMOOTH",
"896 172 LINE",
"904 76 OFFCURVE",
"944 -16 OFFCURVE",
"1065 -16 CURVE SMOOTH",
"1120 -16 OFFCURVE",
"1198 3 OFFCURVE",
"1241 19 CURVE",
"1241 100 LINE",
"1121 110 LINE SMOOTH",
"1086 113 OFFCURVE",
"1061 127 OFFCURVE",
"1061 176 CURVE SMOOTH",
"1061 1769 LINE"
);
}
);
width = 1265;
}
);
unicode = 0064;
},
{
color = 9;
glyphname = e;
lastChange = "2015-09-23 16:20:00 +0000";
layers = (
{
anchors = (
{
name = btm;
position = "{556, -170}";
},
{
name = top;
position = "{597, 1700}";
}
);
background = {
paths = (
{
closed = 1;
nodes = (
"624 -23 CURVE SMOOTH",
"831 -23 OFFCURVE",
"1025 89 OFFCURVE",
"1081 152 CURVE",
"1015 293 LINE",
"954 261 OFFCURVE",
"835 215 OFFCURVE",
"731 215 CURVE SMOOTH",
"549 215 OFFCURVE",
"460 338 OFFCURVE",
"458 618 CURVE SMOOTH",
"454 958 OFFCURVE",
"514 1011 OFFCURVE",
"603 1011 CURVE SMOOTH",
"694 1011 OFFCURVE",
"718 917 OFFCURVE",
"718 760 CURVE SMOOTH",
"718 742 OFFCURVE",
"717 694 OFFCURVE",
"717 676 CURVE",
"196 676 LINE",
"173 527 LINE",
"1074 527 LINE",
"1085 582 OFFCURVE",
"1093 650 OFFCURVE",
"1093 747 CURVE",
"1089 1008 OFFCURVE",
"935 1167 OFFCURVE",
"628 1167 CURVE SMOOTH",
"277 1167 OFFCURVE",
"55 956 OFFCURVE",
"55 567 CURVE SMOOTH",
"55 222 OFFCURVE",
"208 -23 OFFCURVE"
);
}
);
};
layerId = "6AFE116F-39E0-4FF2-A27B-879B4E5E3272";
name = Bold;
paths = (
{
closed = 1;
nodes = (
"257 1167 OFFCURVE",
"55 959 OFFCURVE",
"55 565 CURVE SMOOTH",
"55 196 OFFCURVE",
"217 -27 OFFCURVE",
"611 -27 CURVE SMOOTH",
"828 -27 OFFCURVE",
"1028 60 OFFCURVE",
"1083 249 CURVE",
"1003 311 LINE",
"936 242 OFFCURVE",
"829 211 OFFCURVE",
"721 211 CURVE SMOOTH",
"536 211 OFFCURVE",
"458 317 OFFCURVE",
"458 586 CURVE SMOOTH",
"458 926 OFFCURVE",
"504 1011 OFFCURVE",
"603 1011 CURVE SMOOTH",
"701 1011 OFFCURVE",
"737 910 OFFCURVE",
"737 790 CURVE SMOOTH",
"737 771 OFFCURVE",
"737 756 OFFCURVE",
"737 744 CURVE",
"325 744 LINE",
"325 604 LINE",
"1073 604 LINE",
"1087 652 OFFCURVE",
"1093 722 OFFCURVE",
"1093 776 CURVE SMOOTH",
"1093 991 OFFCURVE",
"965 1167 OFFCURVE",
"628 1167 CURVE SMOOTH"
);
}
);
width = 1158;
},
{
anchors = (
{
name = btm;
position = "{608, -170}";
},
{
name = top;
position = "{593, 1700}";
}
);
background = {
anchors = (
{
name = btm;
position = "{608, -170}";
},
{
name = top;
position = "{593, 1700}";
}
);
paths = (
{
closed = 1;
nodes = (
"95 224 OFFCURVE",
"265 -23 OFFCURVE",
"589 -23 CURVE SMOOTH",
"746 -23 OFFCURVE",
"912 43 OFFCURVE",
"990 123 CURVE",
"957 198 LINE",
"893 144 OFFCURVE",
"759 94 OFFCURVE",
"642 94 CURVE SMOOTH",
"445 94 OFFCURVE",
"282 240 OFFCURVE",
"273 557 CURVE SMOOTH",
"261 936 OFFCURVE",
"394 1062 OFFCURVE",
"578 1062 CURVE SMOOTH",
"760 1062 OFFCURVE",
"833 936 OFFCURVE",
"834 769 CURVE SMOOTH",
"834 739 OFFCURVE",
"832 707 OFFCURVE",
"829 678 CURVE",
"210 678 LINE",
"192 582 LINE",
"1001 582 LINE",
"1011 627 OFFCURVE",
"1013 684 OFFCURVE",
"1012 762 CURVE",
"1003 1027 OFFCURVE",
"861 1168 OFFCURVE",
"620 1168 CURVE SMOOTH",
"319 1168 OFFCURVE",
"95 925 OFFCURVE",
"95 574 CURVE SMOOTH"
);
}
);
};
layerId = "6D8A9A52-7D7D-4498-B039-FDF10F245A16";
name = Light;
paths = (
{
closed = 1;
nodes = (
"308 1168 OFFCURVE",
"95 936 OFFCURVE",
"95 556 CURVE SMOOTH",
"95 225 OFFCURVE",
"257 -23 OFFCURVE",
"590 -23 CURVE SMOOTH",
"816 -23 OFFCURVE",
"971 92 OFFCURVE",
"1023 248 CURVE",
"954 283 LINE",
"889 173 OFFCURVE",
"769 103 OFFCURVE",
"630 103 CURVE SMOOTH",
"445 103 OFFCURVE",
"273 216 OFFCURVE",
"273 599 CURVE SMOOTH",
"273 921 OFFCURVE",
"394 1062 OFFCURVE",
"587 1062 CURVE SMOOTH",
"753 1062 OFFCURVE",
"850 953 OFFCURVE",
"850 786 CURVE SMOOTH",
"850 768 OFFCURVE",
"849 755 OFFCURVE",
"847 738 CURVE",
"221 738 LINE",
"221 642 LINE",
"1015 642 LINE",
"1022 682 OFFCURVE",
"1025 739 OFFCURVE",
"1025 772 CURVE SMOOTH",
"1025 1043 OFFCURVE",
"843 1168 OFFCURVE",
"619 1168 CURVE SMOOTH"
);
}
);
width = 1135;
}
);
unicode = 0065;
},
{
color = 9;
glyphname = f;
lastChange = "2015-09-19 10:37:57 +0000";
layers = (
{
anchors = (
{
name = btm;
position = "{377, -170}";
},
{
name = top;
position = "{403, 2063}";
}
);
associatedMasterId = "6D8A9A52-7D7D-4498-B039-FDF10F245A16";
background = {
anchors = (
{
name = btm;
position = "{377, -170}";
},
{
name = top;
position = "{403, 2063}";
}
);
paths = (
{
closed = 1;
nodes = (
"91 0 LINE",
"670 0 LINE",
"670 88 LINE",
"403 106 LINE",
"437 63 LINE",
"437 1014 LINE",
"734 1014 LINE",
"734 1135 LINE",
"437 1135 LINE",
"437 1289 LINE",
"437 1477 OFFCURVE",
"502 1540 OFFCURVE",
"643 1540 CURVE SMOOTH",
"740 1540 OFFCURVE",
"806 1517 OFFCURVE",
"825 1503 CURVE",
"825 1672 LINE",
"801 1680 OFFCURVE",
"773 1688 OFFCURVE",
"711 1688 CURVE SMOOTH",
"489 1688 OFFCURVE",
"271 1487 OFFCURVE",
"271 1234 CURVE SMOOTH",
"271 1135 LINE",
"63 1095 LINE",
"63 1014 LINE",
"271 1014 LINE",
"271 64 LINE",
"301 107 LINE",
"91 88 LINE"
);
}
);
};
layerId = "FF0769FC-65F4-4C81-8C85-C044CC5FF6EE";
name = "Light Sep 18 15, 18:52";
paths = (
{
closed = 1;
nodes = (
"505 1797 OFFCURVE",
"272 1586 OFFCURVE",
"272 1273 CURVE SMOOTH",
"272 1135 LINE",
"64 1109 LINE",
"64 1028 LINE",
"272 1006 LINE",
"272 169 LINE SMOOTH",
"272 132 OFFCURVE",
"252 113 OFFCURVE",
"215 107 CURVE SMOOTH",
"87 88 LINE",
"87 0 LINE",
"690 0 LINE",
"690 88 LINE",
"495 107 LINE SMOOTH",
"457 111 OFFCURVE",
"437 131 OFFCURVE",
"437 169 CURVE SMOOTH",
"437 1014 LINE",
"774 1014 LINE",
"774 1135 LINE",
"437 1135 LINE",
"437 1348 LINE SMOOTH",
"437 1556 OFFCURVE",
"512 1634 OFFCURVE",
"703 1634 CURVE SMOOTH",
"773 1634 OFFCURVE",
"866 1624 OFFCURVE",
"956 1610 CURVE",
"970 1730 LINE",
"888 1770 OFFCURVE",
"804 1797 OFFCURVE",
"721 1797 CURVE SMOOTH"
);
}
);
width = 850;
},
{
anchors = (
{
name = btm;
position = "{377, -170}";
},
{
name = top;
position = "{403, 2063}";
}
);
background = {
anchors = (
{
name = btm;
position = "{377, -170}";
},
{
name = top;
position = "{403, 2063}";
}
);
paths = (
{
closed = 1;
nodes = (
"91 0 LINE",
"670 0 LINE",
"670 88 LINE",
"403 106 LINE",
"437 63 LINE",
"437 1014 LINE",
"734 1014 LINE",
"734 1135 LINE",
"437 1135 LINE",
"437 1289 LINE",
"437 1477 OFFCURVE",
"502 1540 OFFCURVE",
"643 1540 CURVE SMOOTH",
"740 1540 OFFCURVE",
"806 1517 OFFCURVE",
"825 1503 CURVE",
"825 1672 LINE",
"801 1680 OFFCURVE",
"773 1688 OFFCURVE",
"711 1688 CURVE SMOOTH",
"489 1688 OFFCURVE",
"271 1487 OFFCURVE",
"271 1234 CURVE SMOOTH",
"271 1135 LINE",
"63 1095 LINE",
"63 1014 LINE",
"271 1014 LINE",
"271 64 LINE",
"301 107 LINE",
"91 88 LINE"
);
}
);
};
layerId = "6D8A9A52-7D7D-4498-B039-FDF10F245A16";
name = Light;
paths = (
{
closed = 1;
nodes = (
"579 1797 OFFCURVE",
"272 1586 OFFCURVE",
"272 1213 CURVE SMOOTH",
"272 1135 LINE",
"64 1109 LINE",
"64 1028 LINE",
"272 1006 LINE",
"272 169 LINE SMOOTH",
"272 132 OFFCURVE",
"252 113 OFFCURVE",
"215 107 CURVE SMOOTH",
"87 88 LINE",
"87 0 LINE",
"690 0 LINE",
"690 88 LINE",
"495 107 LINE SMOOTH",
"457 111 OFFCURVE",
"437 131 OFFCURVE",
"437 169 CURVE SMOOTH",
"437 1014 LINE",
"774 1014 LINE",
"774 1135 LINE",
"437 1135 LINE",
"437 1268 LINE SMOOTH",
"437 1565 OFFCURVE",
"543 1639 OFFCURVE",
"741 1639 CURVE SMOOTH",
"835 1639 OFFCURVE",
"845 1618 OFFCURVE",
"859 1547 CURVE SMOOTH",
"879 1437 LINE",
"966 1437 LINE",
"986 1553 OFFCURVE",
"990 1667 OFFCURVE",
"980 1750 CURVE",
"931 1783 OFFCURVE",
"868 1797 OFFCURVE",
"797 1797 CURVE SMOOTH"
);
}
);
width = 850;
},
{
anchors = (
{
name = btm;
position = "{361, -170}";
},
{
name = top;
position = "{387, 2063}";
}
);
associatedMasterId = "6AFE116F-39E0-4FF2-A27B-879B4E5E3272";
background = {
anchors = (
{
name = btm;
position = "{361, -170}";
},
{
name = top;
position = "{387, 2063}";
}
);
paths = (
{
closed = 1;
nodes = (
"56 0 LINE",
"794 0 LINE",
"794 151 LINE",
"578 174 LINE",
"595 155 LINE",
"595 950 LINE",
"826 950 LINE",
"826 1137 LINE",
"595 1137 LINE",
"595 1329 LINE",
"595 1407 OFFCURVE",
"618 1442 OFFCURVE",
"695 1442 CURVE SMOOTH",
"784 1442 OFFCURVE",
"893 1392 OFFCURVE",
"922 1357 CURVE",
"922 1702 LINE",
"907 1707 OFFCURVE",
"861 1725 OFFCURVE",
"776 1725 CURVE SMOOTH",
"461 1725 OFFCURVE",
"202 1506 OFFCURVE",
"202 1216 CURVE SMOOTH",
"202 1134 LINE",
"59 1091 LINE",
"59 950 LINE",
"202 950 LINE",
"202 153 LINE",
"237 178 LINE",
"56 151 LINE"
);
}
);
};
layerId = "C39365F9-EA88-49C0-8EBB-D137B2A6398E";
name = "Bold Sep 18 15, 18:52";
paths = (
{
closed = 1;
nodes = (
"511 1800 OFFCURVE",
"202 1464 OFFCURVE",
"202 1154 CURVE SMOOTH",
"202 1140 LINE",
"41 1105 LINE",
"41 959 LINE",
"202 927 LINE",
"202 225 LINE SMOOTH",
"202 194 OFFCURVE",
"186 178 OFFCURVE",
"156 172 CURVE SMOOTH",
"52 151 LINE",
"52 0 LINE",
"816 0 LINE",
"816 151 LINE",
"644 175 LINE SMOOTH",
"613 179 OFFCURVE",
"597 196 OFFCURVE",
"597 227 CURVE SMOOTH",
"597 931 LINE",
"898 931 LINE",
"898 1137 LINE",
"597 1137 LINE",
"597 1334 LINE SMOOTH",
"597 1477 OFFCURVE",
"669 1522 OFFCURVE",
"781 1522 CURVE SMOOTH",
"873 1522 OFFCURVE",
"1008 1505 OFFCURVE",
"1104 1487 CURVE",
"1151 1679 LINE",
"1022 1769 OFFCURVE",
"914 1800 OFFCURVE",
"822 1800 CURVE SMOOTH"
);
}
);
width = 952;
},
{
anchors = (
{
name = btm;
position = "{361, -170}";
},
{
name = top;
position = "{387, 2063}";
}
);
background = {
anchors = (
{
name = btm;
position = "{361, -170}";
},
{
name = top;
position = "{387, 2063}";
}
);
paths = (
{
closed = 1;
nodes = (
"56 0 LINE",
"794 0 LINE",
"794 151 LINE",
"578 174 LINE",
"595 155 LINE",
"595 950 LINE",
"826 950 LINE",
"826 1137 LINE",
"595 1137 LINE",
"595 1329 LINE",
"595 1407 OFFCURVE",
"618 1442 OFFCURVE",
"695 1442 CURVE SMOOTH",
"784 1442 OFFCURVE",
"893 1392 OFFCURVE",
"922 1357 CURVE",
"922 1702 LINE",
"907 1707 OFFCURVE",
"861 1725 OFFCURVE",
"776 1725 CURVE SMOOTH",
"461 1725 OFFCURVE",
"202 1506 OFFCURVE",
"202 1216 CURVE SMOOTH",
"202 1134 LINE",
"59 1091 LINE",
"59 950 LINE",
"202 950 LINE",
"202 153 LINE",
"237 178 LINE",
"56 151 LINE"
);
}
);
};
layerId = "6AFE116F-39E0-4FF2-A27B-879B4E5E3272";
name = Bold;
paths = (
{
closed = 1;
nodes = (
"508 1800 OFFCURVE",
"202 1486 OFFCURVE",
"202 1196 CURVE SMOOTH",
"202 1140 LINE",
"41 1105 LINE",
"41 959 LINE",
"202 927 LINE",
"202 225 LINE SMOOTH",
"202 194 OFFCURVE",
"186 178 OFFCURVE",
"156 172 CURVE SMOOTH",
"52 151 LINE",
"52 0 LINE",
"796 0 LINE",
"796 151 LINE",
"644 175 LINE SMOOTH",
"613 180 OFFCURVE",
"597 196 OFFCURVE",
"597 227 CURVE SMOOTH",
"597 931 LINE",
"878 931 LINE",
"878 1137 LINE",
"597 1137 LINE",
"595 1349 LINE SMOOTH",
"593 1493 OFFCURVE",
"654 1572 OFFCURVE",
"781 1572 CURVE SMOOTH",
"836 1572 OFFCURVE",
"862 1558 OFFCURVE",
"879 1509 CURVE SMOOTH",
"932 1354 LINE",
"1103 1354 LINE",
"1129 1478 OFFCURVE",
"1139 1612 OFFCURVE",
"1130 1741 CURVE",
"1067 1778 OFFCURVE",
"986 1800 OFFCURVE",
"889 1800 CURVE SMOOTH"
);
}
);
width = 952;
}
);
unicode = 0066;
},
{
color = 9;
glyphname = g;
lastChange = "2015-09-23 12:00:18 +0000";
layers = (
{
anchors = (
{
name = top;
position = "{603, 1700}";
}
);
background = {
anchors = (
{
name = top;
position = "{603, 1700}";
}
);
paths = (
{
closed = 1;
nodes = (
"45 -224 CURVE SMOOTH",
"45 -402 OFFCURVE",
"181 -552 OFFCURVE",
"598 -552 CURVE SMOOTH",
"599 -552 LINE",
"930 -552 OFFCURVE",
"1284 -396 OFFCURVE",
"1284 -95 CURVE SMOOTH",
"1284 132 OFFCURVE",
"1123 228 OFFCURVE",
"829 228 CURVE SMOOTH",
"629 228 LINE",
"462 228 OFFCURVE",
"412 249 OFFCURVE",
"412 325 CURVE SMOOTH",
"412 345 OFFCURVE",
"425 452 OFFCURVE",
"441 460 CURVE",
"367 447 LINE",
"231 415 OFFCURVE",
"145 308 OFFCURVE",
"145 212 CURVE SMOOTH",
"145 86 OFFCURVE",
"230 -20 OFFCURVE",
"495 -20 CURVE SMOOTH",
"690 -20 LINE",
"806 -20 OFFCURVE",
"860 -56 OFFCURVE",
"860 -167 CURVE SMOOTH",
"860 -317 OFFCURVE",
"754 -380 OFFCURVE",
"648 -380 CURVE SMOOTH",
"646 -380 LINE",
"493 -380 OFFCURVE",
"432 -289 OFFCURVE",
"432 -152 CURVE SMOOTH",
"432 -29 OFFCURVE",
"464 24 OFFCURVE",
"480 41 CURVE",
"336 57 LINE",
"173 48 OFFCURVE",
"45 -93 OFFCURVE"
);
},
{
closed = 1;
nodes = (
"740 780 CURVE SMOOTH",
"740 641 OFFCURVE",
"710 542 OFFCURVE",
"611 542 CURVE SMOOTH",
"610 542 LINE",
"513 542 OFFCURVE",
"473 625 OFFCURVE",
"473 790 CURVE SMOOTH",
"473 929 OFFCURVE",
"507 1024 OFFCURVE",
"611 1024 CURVE SMOOTH",
"612 1024 LINE",
"705 1024 OFFCURVE",
"740 951 OFFCURVE"
);
},
{
closed = 1;
nodes = (
"1123 800 CURVE SMOOTH",
"1123 1031 OFFCURVE",
"1013 1168 OFFCURVE",
"622 1168 CURVE SMOOTH",
"621 1168 LINE",
"318 1168 OFFCURVE",
"78 1025 OFFCURVE",
"78 787 CURVE SMOOTH",
"78 563 OFFCURVE",
"186 392 OFFCURVE",
"589 392 CURVE SMOOTH",
"590 392 LINE",
"955 392 OFFCURVE",
"1124 556 OFFCURVE"
);
},
{
closed = 1;
nodes = (
"1309 889 LINE",
"1309 1173 LINE",
"1232 1173 LINE",
"1124 1173 OFFCURVE",
"1018 1092 OFFCURVE",
"1005 1043 CURVE",
"1071 889 LINE"
);
}
);
};
layerId = "6AFE116F-39E0-4FF2-A27B-879B4E5E3272";
name = Bold;
paths = (
{
closed = 1;
nodes = (
"998 -552 OFFCURVE",
"1266 -371 OFFCURVE",
"1266 -86 CURVE SMOOTH",
"1266 132 OFFCURVE",
"1108 228 OFFCURVE",
"821 228 CURVE SMOOTH",
"629 228 LINE SMOOTH",
"470 228 OFFCURVE",
"412 249 OFFCURVE",
"412 318 CURVE SMOOTH",
"412 350 OFFCURVE",
"425 398 OFFCURVE",
"484 442 CURVE",
"367 447 LINE",
"231 415 OFFCURVE",
"145 339 OFFCURVE",
"145 212 CURVE SMOOTH",
"145 86 OFFCURVE",
"230 -20 OFFCURVE",
"495 -20 CURVE SMOOTH",
"690 -20 LINE SMOOTH",
"810 -20 OFFCURVE",
"858 -56 OFFCURVE",
"858 -163 CURVE SMOOTH",
"858 -302 OFFCURVE",
"778 -380 OFFCURVE",
"629 -380 CURVE SMOOTH",
"478 -380 OFFCURVE",
"418 -292 OFFCURVE",
"418 -171 CURVE SMOOTH",
"418 -71 OFFCURVE",
"461 4 OFFCURVE",
"510 41 CURVE",
"390 43 LINE",
"177 0 OFFCURVE",
"45 -75 OFFCURVE",
"45 -241 CURVE SMOOTH",
"45 -416 OFFCURVE",
"190 -552 OFFCURVE",
"565 -552 CURVE SMOOTH"
);
},
{
closed = 1;
nodes = (
"974 378 OFFCURVE",
"1119 547 OFFCURVE",
"1119 787 CURVE SMOOTH",
"1119 1049 OFFCURVE",
"945 1168 OFFCURVE",
"624 1168 CURVE SMOOTH",
"256 1168 OFFCURVE",
"78 1012 OFFCURVE",
"78 757 CURVE SMOOTH",
"78 556 OFFCURVE",
"188 378 OFFCURVE",
"586 378 CURVE SMOOTH"
);
},
{
closed = 1;
nodes = (
"519 528 OFFCURVE",
"473 597 OFFCURVE",
"473 776 CURVE SMOOTH",
"473 943 OFFCURVE",
"513 1024 OFFCURVE",
"612 1024 CURVE SMOOTH",
"700 1024 OFFCURVE",
"736 959 OFFCURVE",
"736 778 CURVE SMOOTH",
"736 618 OFFCURVE",
"708 528 OFFCURVE",
"607 528 CURVE SMOOTH"
);
},
{
closed = 1;
nodes = (
"1310 889 LINE",
"1310 1153 LINE",
"1286 1161 OFFCURVE",
"1246 1173 OFFCURVE",
"1210 1173 CURVE SMOOTH",
"1117 1173 OFFCURVE",
"1015 1092 OFFCURVE",
"971 963 CURVE",
"1067 889 LINE"
);
}
);
width = 1316;
},
{
anchors = (
{
name = top;
position = "{596, 1700}";
}
);
background = {
anchors = (
{
name = top;
position = "{596, 1700}";
}
);
paths = (
{
closed = 1;
nodes = (
"95 -246 CURVE SMOOTH",
"95 -425 OFFCURVE",
"221 -552 OFFCURVE",
"578 -552 CURVE SMOOTH",
"579 -552 LINE",
"914 -552 OFFCURVE",
"1177 -360 OFFCURVE",
"1177 -137 CURVE SMOOTH",
"1177 33 OFFCURVE",
"1066 143 OFFCURVE",
"804 143 CURVE SMOOTH",
"564 143 LINE",
"399 143 OFFCURVE",
"338 176 OFFCURVE",
"338 283 CURVE SMOOTH",
"338 343 OFFCURVE",
"383 409 OFFCURVE",
"449 448 CURVE",
"364 466 LINE",
"270 426 OFFCURVE",
"188 326 OFFCURVE",
"188 211 CURVE SMOOTH",
"188 53 OFFCURVE",
"317 -1 OFFCURVE",
"509 -1 CURVE SMOOTH",
"763 -1 LINE",
"986 -1 OFFCURVE",
"1021 -70 OFFCURVE",
"1021 -184 CURVE SMOOTH",
"1021 -350 OFFCURVE",
"804 -448 OFFCURVE",
"589 -448 CURVE SMOOTH",
"587 -448 LINE",
"335 -448 OFFCURVE",
"261 -361 OFFCURVE",
"261 -213 CURVE SMOOTH",
"261 -95 OFFCURVE",
"327 -10 OFFCURVE",
"400 47 CURVE",
"331 63 LINE",
"235 28 OFFCURVE",
"95 -89 OFFCURVE"
);
},
{
closed = 1;
nodes = (
"852 795 CURVE SMOOTH",
"852 609 OFFCURVE",
"770 508 OFFCURVE",
"592 508 CURVE SMOOTH",
"591 508 LINE",
"394 508 OFFCURVE",
"311 636 OFFCURVE",
"311 798 CURVE SMOOTH",
"311 1005 OFFCURVE",
"432 1067 OFFCURVE",
"582 1067 CURVE SMOOTH",
"583 1067 LINE",
"755 1067 OFFCURVE",
"852 985 OFFCURVE"
);
},
{
closed = 1;
nodes = (
"1026 817 CURVE SMOOTH",
"1026 1059 OFFCURVE",
"833 1168 OFFCURVE",
"594 1168 CURVE SMOOTH",
"593 1168 LINE",
"369 1168 OFFCURVE",
"138 1027 OFFCURVE",
"138 777 CURVE SMOOTH",
"138 545 OFFCURVE",
"325 407 OFFCURVE",
"571 407 CURVE SMOOTH",
"572 407 LINE",
"819 407 OFFCURVE",
"1026 569 OFFCURVE"
);
},
{
closed = 1;
nodes = (
"1200 1016 LINE",
"1200 1168 LINE",
"1133 1168 LINE",
"1007 1168 OFFCURVE",
"904 1092 OFFCURVE",
"892 1075 CURVE",
"898 1016 LINE"
);
}
);
};
layerId = "6D8A9A52-7D7D-4498-B039-FDF10F245A16";
name = Light;
paths = (
{
closed = 1;
nodes = (
"909 -552 OFFCURVE",
"1167 -388 OFFCURVE",
"1167 -131 CURVE SMOOTH",
"1167 38 OFFCURVE",
"1055 144 OFFCURVE",
"824 144 CURVE SMOOTH",
"564 144 LINE",
"403 144 OFFCURVE",
"338 176 OFFCURVE",
"338 262 CURVE SMOOTH",
"338 334 OFFCURVE",
"383 373 OFFCURVE",
"439 397 CURVE",
"404 445 LINE",
"301 404 OFFCURVE",
"188 341 OFFCURVE",
"188 200 CURVE SMOOTH",
"188 53 OFFCURVE",
"312 0 OFFCURVE",
"509 0 CURVE SMOOTH",
"783 0 LINE SMOOTH",
"968 0 OFFCURVE",
"1011 -65 OFFCURVE",
"1011 -162 CURVE SMOOTH",
"1011 -358 OFFCURVE",
"837 -448 OFFCURVE",
"594 -448 CURVE SMOOTH",
"335 -448 OFFCURVE",
"261 -346 OFFCURVE",
"261 -209 CURVE SMOOTH",
"261 -80 OFFCURVE",
"326 -6 OFFCURVE",
"400 52 CURVE",
"351 78 LINE",
"215 25 OFFCURVE",
"95 -68 OFFCURVE",
"95 -234 CURVE SMOOTH",
"95 -428 OFFCURVE",
"258 -552 OFFCURVE",
"561 -552 CURVE SMOOTH"
);
},
{
closed = 1;
nodes = (
"829 366 OFFCURVE",
"1026 527 OFFCURVE",
"1026 783 CURVE SMOOTH",
"1026 1022 OFFCURVE",
"853 1168 OFFCURVE",
"600 1168 CURVE SMOOTH",
"364 1168 OFFCURVE",
"138 1041 OFFCURVE",
"138 754 CURVE SMOOTH",
"138 490 OFFCURVE",
"330 366 OFFCURVE",
"563 366 CURVE SMOOTH"
);
},
{
closed = 1;
nodes = (
"394 467 OFFCURVE",
"311 580 OFFCURVE",
"311 778 CURVE SMOOTH",
"311 1017 OFFCURVE",
"432 1067 OFFCURVE",
"572 1067 CURVE SMOOTH",
"764 1067 OFFCURVE",
"852 973 OFFCURVE",
"852 763 CURVE SMOOTH",
"852 547 OFFCURVE",
"759 467 OFFCURVE",
"592 467 CURVE SMOOTH"
);
},
{
closed = 1;
nodes = (
"1200 1016 LINE",
"1200 1150 LINE",
"1163 1159 OFFCURVE",
"1119 1168 OFFCURVE",
"1085 1168 CURVE SMOOTH",
"1008 1168 OFFCURVE",
"944 1123 OFFCURVE",
"855 1051 CURVE",
"898 1016 LINE"
);
}
);
width = 1223;
}
);
unicode = 0067;
},
{
color = 9;
glyphname = h;
lastChange = "2015-09-17 16:15:34 +0000";
layers = (
{
anchors = (
{
name = btm;
position = "{822, -170}";
},
{
name = top;
position = "{813, 1700}";
}
);
background = {
anchors = (
{
name = btm;
position = "{714, -170}";
},
{
name = top;
position = "{790, 1700}";
}
);
paths = (
{
closed = 1;
nodes = (
"111 0 LINE",
"715 0 LINE",
"715 152 LINE",
"598 177 LINE",
"614 152 LINE",
"614 874 LINE",
"649 909 OFFCURVE",
"709 944 OFFCURVE",
"781 944 CURVE SMOOTH",
"883 944 OFFCURVE",
"907 885 OFFCURVE",
"907 723 CURVE SMOOTH",
"907 146 LINE",
"930 177 LINE",
"812 151 LINE",
"812 0 LINE",
"1419 0 LINE",
"1419 152 LINE",
"1274 179 LINE",
"1303 154 LINE",
"1303 725 LINE",
"1303 1019 OFFCURVE",
"1234 1162 OFFCURVE",
"972 1162 CURVE SMOOTH",
"783 1162 OFFCURVE",
"652 1077 OFFCURVE",
"583 1016 CURVE",
"604 1203 LINE",
"603 1630 LINE",
"535 1680 LINE",
"529 1680 LINE",
"77 1627 LINE",
"77 1485 LINE",
"210 1455 LINE",
"210 160 LINE",
"230 176 LINE",
"111 152 LINE"
);
}
);
};
layerId = "6AFE116F-39E0-4FF2-A27B-879B4E5E3272";
name = Bold;
paths = (
{
closed = 1;
nodes = (
"705 0 LINE",
"705 151 LINE",
"647 172 LINE SMOOTH",
"618 183 OFFCURVE",
"605 198 OFFCURVE",
"605 228 CURVE SMOOTH",
"605 1750 LINE",
"552 1800 LINE",
"401 1802 OFFCURVE",
"191 1785 OFFCURVE",
"40 1747 CURVE",
"40 1595 LINE",
"166 1575 LINE SMOOTH",
"195 1570 OFFCURVE",
"210 1550 OFFCURVE",
"210 1520 CURVE SMOOTH",
"210 228 LINE SMOOTH",
"210 198 OFFCURVE",
"194 179 OFFCURVE",
"165 173 CURVE SMOOTH",
"60 152 LINE",
"60 0 LINE"
);
},
{
closed = 1;
nodes = (
"1452 0 LINE",
"1452 152 LINE",
"1346 173 LINE SMOOTH",
"1317 179 OFFCURVE",
"1302 197 OFFCURVE",
"1302 227 CURVE SMOOTH",
"1302 734 LINE SMOOTH",
"1302 1008 OFFCURVE",
"1221 1162 OFFCURVE",
"952 1162 CURVE SMOOTH",
"773 1162 OFFCURVE",
"636 1093 OFFCURVE",
"541 958 CURVE",
"541 853 LINE",
"605 907 OFFCURVE",
"683 934 OFFCURVE",
"747 934 CURVE SMOOTH",
"854 934 OFFCURVE",
"907 874 OFFCURVE",
"907 693 CURVE SMOOTH",
"907 227 LINE SMOOTH",
"907 198 OFFCURVE",
"894 183 OFFCURVE",
"864 172 CURVE SMOOTH",
"807 151 LINE",
"807 0 LINE"
);
}
);
width = 1487;
},
{
anchors = (
{
name = btm;
position = "{432, -170}";
},
{
name = top;
position = "{403, 1700}";
}
);
background = {
anchors = (
{
name = btm;
position = "{771, -170}";
},
{
name = top;
position = "{845, 1700}";
}
);
paths = (
{
closed = 1;
nodes = (
"167 0 LINE",
"612 0 LINE",
"612 88 LINE",
"433 107 LINE",
"460 67 LINE",
"460 901 LINE",
"546 966 OFFCURVE",
"686 1036 OFFCURVE",
"802 1036 CURVE SMOOTH",
"1004 1036 OFFCURVE",
"1038 923 OFFCURVE",
"1038 684 CURVE SMOOTH",
"1038 65 LINE",
"1076 108 LINE",
"894 88 LINE",
"894 0 LINE",
"1353 0 LINE",
"1353 88 LINE",
"1165 108 LINE",
"1203 65 LINE",
"1203 683 LINE",
"1203 1020 OFFCURVE",
"1133 1164 OFFCURVE",
"874 1164 CURVE SMOOTH",
"703 1164 OFFCURVE",
"524 1054 OFFCURVE",
"455 993 CURVE",
"460 1164 LINE",
"460 1650 LINE",
"421 1677 LINE",
"416 1677 LINE",
"114 1642 LINE",
"114 1567 LINE",
"295 1549 LINE",
"295 67 LINE",
"334 108 LINE",
"167 88 LINE"
);
}
);
};
layerId = "6D8A9A52-7D7D-4498-B039-FDF10F245A16";
name = Light;
paths = (
{
closed = 1;
nodes = (
"641 0 LINE",
"641 88 LINE",
"518 107 LINE SMOOTH",
"481 113 OFFCURVE",
"461 132 OFFCURVE",
"461 170 CURVE SMOOTH",
"461 1769 LINE",
"435 1797 LINE",
"332 1793 OFFCURVE",
"189 1776 OFFCURVE",
"86 1742 CURVE",
"86 1667 LINE",
"239 1645 LINE SMOOTH",
"275 1640 OFFCURVE",
"296 1620 OFFCURVE",
"296 1583 CURVE SMOOTH",
"296 169 LINE SMOOTH",
"296 132 OFFCURVE",
"276 113 OFFCURVE",
"239 107 CURVE SMOOTH",
"111 88 LINE",
"111 0 LINE"
);
},
{
closed = 1;
nodes = (
"1389 0 LINE",
"1389 88 LINE",
"1261 107 LINE SMOOTH",
"1225 112 OFFCURVE",
"1204 133 OFFCURVE",
"1204 170 CURVE SMOOTH",
"1204 723 LINE SMOOTH",
"1204 1002 OFFCURVE",
"1128 1164 OFFCURVE",
"863 1164 CURVE SMOOTH",
"704 1164 OFFCURVE",
"535 1115 OFFCURVE",
"413 949 CURVE",
"404 867 LINE",
"510 983 OFFCURVE",
"654 1036 OFFCURVE",
"803 1036 CURVE SMOOTH",
"995 1036 OFFCURVE",
"1039 916 OFFCURVE",
"1039 684 CURVE SMOOTH",
"1039 170 LINE SMOOTH",
"1039 130 OFFCURVE",
"1014 112 OFFCURVE",
"982 107 CURVE SMOOTH",
"859 88 LINE",
"859 0 LINE"
);
}
);
width = 1454;
}
);
unicode = 0068;
},
{
color = 9;
glyphname = k;
lastChange = "2015-09-30 11:45:38 +0000";
layers = (
{
anchors = (
{
name = btm;
position = "{782, -170}";
},
{
name = top;
position = "{773, 1700}";
}
);
background = {
anchors = (
{
name = btm;
position = "{782, -170}";
},
{
name = top;
position = "{773, 1700}";
}
);
paths = (
{
closed = 1;
nodes = (
"107 0 LINE",
"705 0 LINE",
"705 151 LINE",
"584 177 LINE",
"602 153 LINE",
"602 284 LINE",
"594 409 LINE",
"563 356 LINE",
"765 566 LINE",
"732 567 LINE",
"937 91 LINE",
"946 186 LINE",
"825 151 LINE",
"825 0 LINE",
"1432 0 LINE",
"1432 152 LINE",
"1241 195 LINE",
"1369 110 LINE",
"1005 824 LINE",
"846 635 LINE",
"1319 1072 LINE",
"1169 959 LINE",
"1377 992 LINE",
"1377 1137 LINE",
"788 1137 LINE",
"788 992 LINE",
"1017 959 LINE",
"1013 1051 LINE",
"543 548 LINE",
"594 558 LINE",
"604 697 LINE",
"604 1630 LINE",
"536 1680 LINE",
"531 1680 LINE",
"79 1627 LINE",
"79 1485 LINE",
"210 1455 LINE",
"210 146 LINE",
"228 176 LINE",
"107 152 LINE"
);
}
);
};
layerId = "6AFE116F-39E0-4FF2-A27B-879B4E5E3272";
name = Bold;
paths = (
{
closed = 1;
nodes = (
"745 0 LINE",
"745 152 LINE",
"646 173 LINE SMOOTH",
"617 179 OFFCURVE",
"602 198 OFFCURVE",
"602 228 CURVE SMOOTH",
"604 1753 LINE",
"552 1800 LINE",
"401 1800 OFFCURVE",
"191 1773 OFFCURVE",
"40 1735 CURVE",
"40 1583 LINE",
"166 1563 LINE SMOOTH",
"195 1558 OFFCURVE",
"210 1538 OFFCURVE",
"210 1508 CURVE SMOOTH",
"210 228 LINE SMOOTH",
"210 198 OFFCURVE",
"194 179 OFFCURVE",
"165 173 CURVE SMOOTH",
"60 152 LINE",
"60 0 LINE"
);
},
{
closed = 1;
nodes = (
"1442 0 LINE",
"1442 152 LINE",
"1339 182 LINE SMOOTH",
"1302 193 OFFCURVE",
"1289 201 OFFCURVE",
"1272 236 CURVE SMOOTH",
"1124 532 LINE SMOOTH",
"1061 659 OFFCURVE",
"1012 735 OFFCURVE",
"936 803 CURVE",
"678 558 LINE",
"714 509 OFFCURVE",
"743 454 OFFCURVE",
"767 397 CURVE SMOOTH",
"849 202 LINE SMOOTH",
"893 97 OFFCURVE",
"930 0 OFFCURVE",
"1002 0 CURVE SMOOTH"
);
},
{
closed = 1;
nodes = (
"1159 912 LINE SMOOTH",
"1193 944 OFFCURVE",
"1211 949 OFFCURVE",
"1268 963 CURVE SMOOTH",
"1385 992 LINE",
"1385 1137 LINE",
"776 1137 LINE",
"776 992 LINE",
"1039 944 LINE",
"1039 1046 LINE",
"532 516 LINE",
"551 326 LINE"
);
}
);
width = 1482;
},
{
anchors = (
{
name = btm;
position = "{722, -170}";
},
{
name = top;
position = "{798, 1700}";
}
);
background = {
anchors = (
{
name = btm;
position = "{382, -170}";
},
{
name = top;
position = "{353, 1700}";
}
);
paths = (
{
closed = 1;
nodes = (
"159 0 LINE",
"618 0 LINE",
"618 88 LINE",
"442 106 LINE",
"461 67 LINE",
"461 278 LINE",
"456 411 LINE",
"441 368 LINE",
"702 623 LINE",
"675 629 LINE",
"1038 58 LINE",
"1040 109 LINE",
"866 88 LINE",
"866 0 LINE",
"1335 0 LINE",
"1335 88 LINE",
"1163 107 LINE",
"1230 61 LINE",
"777 723 LINE",
"759 668 LINE",
"1190 1090 LINE",
"1084 1019 LINE",
"1283 1055 LINE",
"1283 1136 LINE",
"810 1136 LINE",
"810 1055 LINE",
"1004 1020 LINE",
"1020 1083 LINE",
"431 477 LINE",
"455 456 LINE",
"461 632 LINE",
"461 1650 LINE",
"422 1677 LINE",
"420 1677 LINE",
"127 1642 LINE",
"127 1567 LINE",
"295 1549 LINE",
"295 67 LINE",
"326 108 LINE",
"159 88 LINE"
);
}
);
};
layerId = "6D8A9A52-7D7D-4498-B039-FDF10F245A16";
name = Light;
paths = (
{
closed = 1;
nodes = (
"646 0 LINE",
"646 88 LINE",
"518 107 LINE SMOOTH",
"482 112 OFFCURVE",
"461 133 OFFCURVE",
"461 170 CURVE SMOOTH",
"461 1770 LINE",
"435 1797 LINE",
"328 1794 OFFCURVE",
"193 1775 OFFCURVE",
"86 1742 CURVE",
"86 1667 LINE",
"239 1645 LINE SMOOTH",
"276 1640 OFFCURVE",
"296 1620 OFFCURVE",
"296 1583 CURVE SMOOTH",
"296 171 LINE SMOOTH",
"296 134 OFFCURVE",
"276 112 OFFCURVE",
"240 107 CURVE SMOOTH",
"111 88 LINE",
"111 0 LINE"
);
},
{
closed = 1;
nodes = (
"1315 0 LINE",
"1315 88 LINE",
"1182 115 LINE SMOOTH",
"1155 121 OFFCURVE",
"1128 139 OFFCURVE",
"1104 178 CURVE SMOOTH",
"880 543 LINE SMOOTH",
"837 614 OFFCURVE",
"806 661 OFFCURVE",
"755 728 CURVE",
"644 618 LINE",
"687 555 OFFCURVE",
"727 478 OFFCURVE",
"779 385 CURVE SMOOTH",
"902 164 LINE SMOOTH",
"958 63 OFFCURVE",
"998 0 OFFCURVE",
"1048 0 CURVE SMOOTH"
);
},
{
closed = 1;
nodes = (
"1061 989 LINE SMOOTH",
"1083 1012 OFFCURVE",
"1106 1020 OFFCURVE",
"1140 1027 CURVE SMOOTH",
"1261 1052 LINE",
"1261 1136 LINE",
"733 1136 LINE",
"733 1052 LINE",
"990 1013 LINE",
"970 1057 LINE",
"420 449 LINE",
"430 321 LINE"
);
}
);
width = 1365;
},
{
anchors = (
{
name = btm;
position = "{676, -170}";
},
{
name = top;
position = "{752, 1700}";
}
);
associatedMasterId = "6D8A9A52-7D7D-4498-B039-FDF10F245A16";
background = {
anchors = (
{
name = btm;
position = "{336, -170}";
},
{
name = top;
position = "{307, 1700}";
}
);
paths = (
{
closed = 1;
nodes = (
"113 0 LINE",
"572 0 LINE",
"572 88 LINE",
"396 106 LINE",
"415 67 LINE",
"415 278 LINE",
"410 411 LINE",
"395 368 LINE",
"656 623 LINE",
"629 629 LINE",
"992 58 LINE",
"994 109 LINE",
"820 88 LINE",
"820 0 LINE",
"1289 0 LINE",
"1289 88 LINE",
"1117 107 LINE",
"1184 61 LINE",
"731 723 LINE",
"713 668 LINE",
"1144 1090 LINE",
"1038 1019 LINE",
"1237 1055 LINE",
"1237 1136 LINE",
"764 1136 LINE",
"764 1055 LINE",
"958 1020 LINE",
"974 1083 LINE",
"385 477 LINE",
"409 456 LINE",
"415 632 LINE",
"415 1650 LINE",
"376 1677 LINE",
"374 1677 LINE",
"81 1642 LINE",
"81 1567 LINE",
"249 1549 LINE",
"249 67 LINE",
"280 108 LINE",
"113 88 LINE"
);
}
);
};
layerId = "DBF344AF-0D3C-40E6-A098-3A8D48DC5D26";
name = "Light Sep 15 15, 14:29";
paths = (
{
closed = 1;
nodes = (
"415 1770 LINE",
"389 1797 LINE",
"280 1794 OFFCURVE",
"150 1775 OFFCURVE",
"41 1742 CURVE",
"41 1667 LINE",
"192 1644 LINE SMOOTH",
"229 1638 OFFCURVE",
"249 1619 OFFCURVE",
"249 1582 CURVE SMOOTH",
"249 171 LINE SMOOTH",
"249 134 OFFCURVE",
"229 113 OFFCURVE",
"193 107 CURVE SMOOTH",
"73 88 LINE",
"73 0 LINE",
"612 0 LINE",
"612 88 LINE",
"472 108 LINE SMOOTH",
"436 113 OFFCURVE",
"415 134 OFFCURVE",
"415 171 CURVE SMOOTH"
);
},
{
closed = 1;
nodes = (
"600 635 LINE",
"969 0 LINE",
"1279 0 LINE",
"1279 88 LINE",
"1146 115 LINE SMOOTH",
"1117 121 OFFCURVE",
"1094 134 OFFCURVE",
"1078 159 CURVE SMOOTH",
"716 743 LINE"
);
},
{
closed = 1;
nodes = (
"384 322 LINE",
"1017 997 LINE SMOOTH",
"1038 1019 OFFCURVE",
"1061 1029 OFFCURVE",
"1096 1035 CURVE SMOOTH",
"1215 1055 LINE",
"1215 1136 LINE",
"687 1136 LINE",
"687 1055 LINE",
"944 1021 LINE",
"926 1062 LINE",
"374 445 LINE"
);
}
);
width = 1269;
}
);
unicode = 006B;
},
{
color = 9;
glyphname = l;
lastChange = "2015-09-17 14:55:50 +0000";
layers = (
{
anchors = (
{
name = btm;
position = "{397, -170}";
},
{
name = top;
position = "{320, 1700}";
}
);
background = {
anchors = (
{
name = btm;
position = "{397, -170}";
},
{
name = top;
position = "{320, 1700}";
}
);
paths = (
{
closed = 1;
nodes = (
"99 0 LINE",
"714 0 LINE",
"714 152 LINE",
"589 176 LINE",
"603 153 LINE",
"603 1630 LINE",
"535 1680 LINE",
"529 1680 LINE",
"77 1627 LINE",
"77 1485 LINE",
"210 1455 LINE",
"210 160 LINE",
"226 176 LINE",
"99 152 LINE"
);
}
);
};
layerId = "6AFE116F-39E0-4FF2-A27B-879B4E5E3272";
name = Bold;
paths = (
{
closed = 1;
nodes = (
"605 1753 LINE",
"553 1800 LINE",
"402 1800 OFFCURVE",
"191 1773 OFFCURVE",
"40 1735 CURVE",
"40 1583 LINE",
"166 1563 LINE SMOOTH",
"195 1558 OFFCURVE",
"210 1538 OFFCURVE",
"210 1508 CURVE SMOOTH",
"210 227 LINE SMOOTH",
"210 197 OFFCURVE",
"194 178 OFFCURVE",
"165 173 CURVE SMOOTH",
"50 152 LINE",
"50 0 LINE",
"765 0 LINE",
"765 152 LINE",
"650 173 LINE SMOOTH",
"621 178 OFFCURVE",
"605 197 OFFCURVE",
"605 227 CURVE SMOOTH"
);
}
);
width = 805;
},
{
anchors = (
{
name = btm;
position = "{381, -170}";
},
{
name = top;
position = "{352, 1700}";
}
);
background = {
anchors = (
{
name = btm;
position = "{381, -170}";
},
{
name = top;
position = "{352, 1700}";
}
);
paths = (
{
closed = 1;
nodes = (
"114 0 LINE",
"652 0 LINE",
"652 88 LINE",
"433 106 LINE",
"461 67 LINE",
"461 1650 LINE",
"421 1678 LINE",
"420 1678 LINE",
"119 1642 LINE",
"119 1567 LINE",
"295 1549 LINE",
"295 67 LINE",
"328 107 LINE",
"114 88 LINE"
);
}
);
};
layerId = "6D8A9A52-7D7D-4498-B039-FDF10F245A16";
name = Light;
paths = (
{
closed = 1;
nodes = (
"461 1769 LINE",
"435 1797 LINE",
"330 1793 OFFCURVE",
"185 1776 OFFCURVE",
"80 1742 CURVE",
"80 1667 LINE",
"239 1645 LINE SMOOTH",
"275 1640 OFFCURVE",
"296 1620 OFFCURVE",
"296 1583 CURVE SMOOTH",
"296 169 LINE SMOOTH",
"296 132 OFFCURVE",
"276 112 OFFCURVE",
"239 107 CURVE SMOOTH",
"86 88 LINE",
"86 0 LINE",
"671 0 LINE",
"671 86 LINE",
"518 107 LINE SMOOTH",
"481 112 OFFCURVE",
"461 132 OFFCURVE",
"461 170 CURVE SMOOTH"
);
}
);
width = 731;
}
);
unicode = 006C;
},
{
color = 9;
glyphname = m;
lastChange = "2015-09-17 16:16:03 +0000";
layers = (
{
anchors = (
{
name = btm;
position = "{1073, -170}";
},
{
name = top;
position = "{1073, 1700}";
}
);
background = {
anchors = (
{
name = btm;
position = "{1073, -170}";
},
{
name = top;
position = "{1073, 1700}";
}
);
paths = (
{
closed = 1;
nodes = (
"90 0 LINE",
"693 0 LINE",
"693 151 LINE",
"575 176 LINE",
"595 154 LINE",
"595 874 LINE",
"629 906 OFFCURVE",
"687 944 OFFCURVE",
"759 944 CURVE SMOOTH",
"855 944 OFFCURVE",
"885 894 OFFCURVE",
"885 723 CURVE SMOOTH",
"885 149 LINE",
"922 182 LINE",
"800 151 LINE",
"800 0 LINE",
"1391 0 LINE",
"1391 151 LINE",
"1254 180 LINE",
"1291 153 LINE",
"1291 724 LINE",
"1291 1021 OFFCURVE",
"1210 1162 OFFCURVE",
"961 1162 CURVE SMOOTH",
"859 1162 OFFCURVE",
"650 1099 OFFCURVE",
"557 1002 CURVE",
"558 1051 LINE",
"558 1120 LINE",
"499 1167 LINE",
"494 1167 LINE",
"81 1118 LINE",
"81 934 LINE",
"190 895 LINE",
"190 161 LINE",
"210 176 LINE",
"90 151 LINE"
);
},
{
closed = 1;
nodes = (
"1247 842 LINE",
"1277 873 OFFCURVE",
"1353 944 OFFCURVE",
"1439 944 CURVE SMOOTH",
"1531 944 OFFCURVE",
"1566 894 OFFCURVE",
"1566 714 CURVE SMOOTH",
"1566 146 LINE",
"1602 182 LINE",
"1491 151 LINE",
"1491 0 LINE",
"2080 0 LINE",
"2080 151 LINE",
"1949 176 LINE",
"1970 155 LINE",
"1970 724 LINE",
"1970 1034 OFFCURVE",
"1863 1162 OFFCURVE",
"1628 1162 CURVE SMOOTH",
"1474 1162 OFFCURVE",
"1331 1098 OFFCURVE",
"1238 998 CURVE"
);
}
);
};
layerId = "6AFE116F-39E0-4FF2-A27B-879B4E5E3272";
name = Bold;
paths = (
{
closed = 1;
nodes = (
"2115 0 LINE",
"2115 151 LINE",
"2009 173 LINE SMOOTH",
"1980 179 OFFCURVE",
"1965 197 OFFCURVE",
"1965 227 CURVE SMOOTH",
"1965 724 LINE SMOOTH",
"1965 999 OFFCURVE",
"1888 1162 OFFCURVE",
"1616 1162 CURVE SMOOTH",
"1437 1162 OFFCURVE",
"1293 1096 OFFCURVE",
"1198 965 CURVE",
"1203 851 LINE",
"1271 908 OFFCURVE",
"1347 934 OFFCURVE",
"1409 934 CURVE SMOOTH",
"1517 934 OFFCURVE",
"1570 864 OFFCURVE",
"1570 683 CURVE SMOOTH",
"1570 227 LINE SMOOTH",
"1570 198 OFFCURVE",
"1557 184 OFFCURVE",
"1527 172 CURVE SMOOTH",
"1475 151 LINE",
"1475 0 LINE"
);
},
{
closed = 1;
nodes = (
"690 0 LINE",
"690 151 LINE",
"633 173 LINE SMOOTH",
"607 183 OFFCURVE",
"595 197 OFFCURVE",
"595 227 CURVE SMOOTH",
"595 909 LINE",
"553 1120 LINE",
"499 1167 LINE",
"356 1165 OFFCURVE",
"188 1146 OFFCURVE",
"40 1108 CURVE",
"40 948 LINE",
"158 922 LINE SMOOTH",
"186 916 OFFCURVE",
"200 894 OFFCURVE",
"200 865 CURVE SMOOTH",
"200 227 LINE SMOOTH",
"200 197 OFFCURVE",
"184 179 OFFCURVE",
"156 173 CURVE SMOOTH",
"50 151 LINE",
"50 0 LINE"
);
},
{
closed = 1;
nodes = (
"1375 0 LINE",
"1375 151 LINE",
"1322 172 LINE SMOOTH",
"1293 184 OFFCURVE",
"1280 197 OFFCURVE",
"1280 227 CURVE SMOOTH",
"1280 734 LINE SMOOTH",
"1280 1008 OFFCURVE",
"1199 1162 OFFCURVE",
"930 1162 CURVE SMOOTH",
"751 1162 OFFCURVE",
"614 1093 OFFCURVE",
"529 958 CURVE",
"529 855 LINE",
"583 907 OFFCURVE",
"661 934 OFFCURVE",
"725 934 CURVE SMOOTH",
"832 934 OFFCURVE",
"885 874 OFFCURVE",
"885 693 CURVE SMOOTH",
"885 227 LINE SMOOTH",
"885 198 OFFCURVE",
"872 184 OFFCURVE",
"842 172 CURVE SMOOTH",
"790 151 LINE",
"790 0 LINE"
);
}
);
width = 2155;
},
{
anchors = (
{
name = btm;
position = "{1052, -170}";
},
{
name = top;
position = "{1052, 1700}";
}
);
background = {
anchors = (
{
name = btm;
position = "{1052, -170}";
},
{
name = top;
position = "{1052, 1700}";
}
);
paths = (
{
closed = 1;
nodes = (
"149 0 LINE",
"590 0 LINE",
"590 88 LINE",
"409 108 LINE",
"445 72 LINE",
"445 901 LINE",
"529 966 OFFCURVE",
"666 1036 OFFCURVE",
"781 1036 CURVE SMOOTH",
"979 1036 OFFCURVE",
"1007 921 OFFCURVE",
"1007 684 CURVE SMOOTH",
"1007 73 LINE",
"1054 109 LINE",
"859 88 LINE",
"859 0 LINE",
"1327 0 LINE",
"1327 88 LINE",
"1127 109 LINE",
"1172 67 LINE",
"1172 683 LINE",
"1172 1018 OFFCURVE",
"1102 1164 OFFCURVE",
"847 1164 CURVE SMOOTH",
"701 1164 OFFCURVE",
"514 1065 OFFCURVE",
"425 987 CURVE",
"427 1038 LINE",
"427 1129 LINE",
"387 1161 LINE",
"382 1161 LINE",
"121 1129 LINE",
"121 1037 LINE",
"280 1001 LINE",
"280 72 LINE",
"330 110 LINE",
"149 88 LINE"
);
},
{
closed = 1;
nodes = (
"1139 919 LINE",
"1205 972 OFFCURVE",
"1339 1038 OFFCURVE",
"1453 1038 CURVE SMOOTH",
"1661 1038 OFFCURVE",
"1698 916 OFFCURVE",
"1698 680 CURVE SMOOTH",
"1698 65 LINE",
"1743 109 LINE",
"1560 88 LINE",
"1560 0 LINE",
"2018 0 LINE",
"2018 88 LINE",
"1809 110 LINE",
"1863 65 LINE",
"1863 686 LINE",
"1863 1017 OFFCURVE",
"1794 1164 OFFCURVE",
"1534 1164 CURVE SMOOTH",
"1380 1164 OFFCURVE",
"1177 1063 OFFCURVE",
"1113 1002 CURVE"
);
}
);
};
layerId = "6D8A9A52-7D7D-4498-B039-FDF10F245A16";
name = Light;
paths = (
{
closed = 1;
nodes = (
"2048 0 LINE",
"2048 88 LINE",
"1920 107 LINE SMOOTH",
"1884 112 OFFCURVE",
"1863 133 OFFCURVE",
"1863 170 CURVE SMOOTH",
"1863 713 LINE SMOOTH",
"1863 1012 OFFCURVE",
"1783 1164 OFFCURVE",
"1510 1164 CURVE SMOOTH",
"1376 1164 OFFCURVE",
"1217 1127 OFFCURVE",
"1086 969 CURVE",
"1087 884 LINE",
"1198 996 OFFCURVE",
"1327 1036 OFFCURVE",
"1449 1036 CURVE SMOOTH",
"1650 1036 OFFCURVE",
"1698 926 OFFCURVE",
"1698 684 CURVE SMOOTH",
"1698 170 LINE SMOOTH",
"1698 130 OFFCURVE",
"1673 112 OFFCURVE",
"1641 107 CURVE SMOOTH",
"1518 88 LINE",
"1518 0 LINE"
);
},
{
closed = 1;
nodes = (
"625 0 LINE",
"625 88 LINE",
"501 107 LINE SMOOTH",
"465 113 OFFCURVE",
"445 133 OFFCURVE",
"445 171 CURVE SMOOTH",
"445 935 LINE",
"427 1129 LINE",
"396 1161 LINE",
"298 1159 OFFCURVE",
"178 1141 OFFCURVE",
"80 1109 CURVE",
"80 1027 LINE",
"225 1009 LINE SMOOTH",
"261 1005 OFFCURVE",
"280 982 OFFCURVE",
"280 945 CURVE SMOOTH",
"280 171 LINE SMOOTH",
"280 134 OFFCURVE",
"260 112 OFFCURVE",
"224 107 CURVE SMOOTH",
"95 88 LINE",
"95 0 LINE"
);
},
{
closed = 1;
nodes = (
"1334 0 LINE",
"1334 88 LINE",
"1211 107 LINE SMOOTH",
"1175 113 OFFCURVE",
"1154 133 OFFCURVE",
"1154 170 CURVE SMOOTH",
"1154 723 LINE SMOOTH",
"1154 1002 OFFCURVE",
"1084 1164 OFFCURVE",
"819 1164 CURVE SMOOTH",
"673 1164 OFFCURVE",
"506 1115 OFFCURVE",
"397 949 CURVE",
"388 871 LINE",
"480 983 OFFCURVE",
"641 1036 OFFCURVE",
"769 1036 CURVE SMOOTH",
"961 1036 OFFCURVE",
"989 916 OFFCURVE",
"989 684 CURVE SMOOTH",
"989 170 LINE SMOOTH",
"989 130 OFFCURVE",
"964 112 OFFCURVE",
"932 107 CURVE SMOOTH",
"809 88 LINE",
"809 0 LINE"
);
}
);
width = 2113;
}
);
unicode = 006D;
},
{
color = 9;
glyphname = n;
lastChange = "2015-09-17 16:27:13 +0000";
layers = (
{
anchors = (
{
name = btm;
position = "{1073, -170}";
},
{
name = top;
position = "{1073, 1700}";
}
);
background = {
anchors = (
{
name = btm;
position = "{754, -170}";
},
{
name = top;
position = "{779, 1700}";
}
);
paths = (
{
closed = 1;
nodes = (
"91 0 LINE",
"699 0 LINE",
"699 152 LINE",
"579 176 LINE",
"599 154 LINE",
"599 874 LINE",
"630 900 OFFCURVE",
"688 944 OFFCURVE",
"765 944 CURVE SMOOTH",
"860 944 OFFCURVE",
"890 894 OFFCURVE",
"890 723 CURVE SMOOTH",
"890 149 LINE",
"927 182 LINE",
"805 152 LINE",
"805 0 LINE",
"1397 0 LINE",
"1397 154 LINE",
"1259 180 LINE",
"1297 155 LINE",
"1297 724 LINE",
"1297 1050 OFFCURVE",
"1200 1162 OFFCURVE",
"966 1162 CURVE SMOOTH",
"789 1162 OFFCURVE",
"646 1086 OFFCURVE",
"561 1003 CURVE",
"563 1051 LINE",
"563 1120 LINE",
"503 1167 LINE",
"498 1167 LINE",
"85 1118 LINE",
"85 934 LINE",
"194 895 LINE",
"194 161 LINE",
"215 176 LINE",
"91 152 LINE"
);
}
);
};
layerId = "6AFE116F-39E0-4FF2-A27B-879B4E5E3272";
name = Bold;
paths = (
{
closed = 1;
nodes = (
"1442 0 LINE",
"1442 152 LINE",
"1336 173 LINE SMOOTH",
"1307 179 OFFCURVE",
"1292 197 OFFCURVE",
"1292 227 CURVE SMOOTH",
"1292 734 LINE SMOOTH",
"1292 1008 OFFCURVE",
"1211 1162 OFFCURVE",
"942 1162 CURVE SMOOTH",
"763 1162 OFFCURVE",
"626 1093 OFFCURVE",
"531 958 CURVE",
"531 853 LINE",
"595 907 OFFCURVE",
"673 934 OFFCURVE",
"737 934 CURVE SMOOTH",
"844 934 OFFCURVE",
"897 874 OFFCURVE",
"897 693 CURVE SMOOTH",
"897 227 LINE SMOOTH",
"897 198 OFFCURVE",
"884 183 OFFCURVE",
"854 172 CURVE SMOOTH",
"797 151 LINE",
"797 0 LINE"
);
},
{
closed = 1;
nodes = (
"695 0 LINE",
"695 151 LINE",
"637 172 LINE SMOOTH",
"610 182 OFFCURVE",
"595 197 OFFCURVE",
"595 227 CURVE SMOOTH",
"595 909 LINE",
"553 1120 LINE",
"499 1167 LINE",
"356 1165 OFFCURVE",
"188 1146 OFFCURVE",
"40 1108 CURVE",
"40 949 LINE",
"158 923 LINE SMOOTH",
"186 917 OFFCURVE",
"200 895 OFFCURVE",
"200 866 CURVE SMOOTH",
"200 227 LINE SMOOTH",
"200 197 OFFCURVE",
"184 179 OFFCURVE",
"156 173 CURVE SMOOTH",
"50 151 LINE",
"50 0 LINE"
);
}
);
width = 1452;
},
{
anchors = (
{
name = btm;
position = "{1052, -170}";
},
{
name = top;
position = "{1052, 1700}";
}
);
background = {
anchors = (
{
name = btm;
position = "{720, -170}";
},
{
name = top;
position = "{686, 1700}";
}
);
paths = (
{
closed = 1;
nodes = (
"143 0 LINE",
"595 0 LINE",
"595 88 LINE",
"411 108 LINE",
"446 72 LINE",
"446 900 LINE",
"530 965 OFFCURVE",
"671 1036 OFFCURVE",
"788 1036 CURVE SMOOTH",
"986 1036 OFFCURVE",
"1020 922 OFFCURVE",
"1020 684 CURVE SMOOTH",
"1020 73 LINE",
"1068 109 LINE",
"879 88 LINE",
"879 0 LINE",
"1339 0 LINE",
"1339 88 LINE",
"1140 108 LINE",
"1185 67 LINE",
"1185 683 LINE",
"1185 1011 OFFCURVE",
"1123 1164 OFFCURVE",
"858 1164 CURVE SMOOTH",
"705 1164 OFFCURVE",
"515 1065 OFFCURVE",
"426 987 CURVE",
"428 1038 LINE",
"428 1129 LINE",
"388 1161 LINE",
"383 1161 LINE",
"122 1129 LINE",
"122 1037 LINE",
"281 1001 LINE",
"281 72 LINE",
"330 110 LINE",
"143 88 LINE"
);
}
);
};
layerId = "6D8A9A52-7D7D-4498-B039-FDF10F245A16";
name = Light;
paths = (
{
closed = 1;
nodes = (
"1372 0 LINE",
"1372 88 LINE",
"1244 107 LINE SMOOTH",
"1208 112 OFFCURVE",
"1187 133 OFFCURVE",
"1187 170 CURVE SMOOTH",
"1187 723 LINE SMOOTH",
"1187 1002 OFFCURVE",
"1111 1164 OFFCURVE",
"846 1164 CURVE SMOOTH",
"687 1164 OFFCURVE",
"518 1115 OFFCURVE",
"396 949 CURVE",
"387 867 LINE",
"493 981 OFFCURVE",
"635 1036 OFFCURVE",
"786 1036 CURVE SMOOTH",
"978 1036 OFFCURVE",
"1022 916 OFFCURVE",
"1022 684 CURVE SMOOTH",
"1022 170 LINE SMOOTH",
"1022 130 OFFCURVE",
"997 112 OFFCURVE",
"965 107 CURVE SMOOTH",
"842 88 LINE",
"842 0 LINE"
);
},
{
closed = 1;
nodes = (
"625 0 LINE",
"625 88 LINE",
"501 107 LINE SMOOTH",
"465 113 OFFCURVE",
"445 134 OFFCURVE",
"445 171 CURVE SMOOTH",
"445 935 LINE",
"427 1129 LINE",
"396 1161 LINE",
"298 1159 OFFCURVE",
"178 1141 OFFCURVE",
"80 1109 CURVE",
"80 1027 LINE",
"225 1009 LINE SMOOTH",
"261 1005 OFFCURVE",
"280 982 OFFCURVE",
"280 945 CURVE SMOOTH",
"280 171 LINE SMOOTH",
"280 134 OFFCURVE",
"260 112 OFFCURVE",
"223 107 CURVE SMOOTH",
"95 88 LINE",
"95 0 LINE"
);
}
);
width = 1437;
}
);
unicode = 006E;
},
{
color = 9;
glyphname = o;
lastChange = "2015-09-23 16:19:01 +0000";
layers = (
{
anchors = (
{
name = btm;
position = "{562, -170}";
},
{
name = top;
position = "{629, 1700}";
}
);
background = {
anchors = (
{
name = btm;
position = "{562, -170}";
},
{
name = top;
position = "{629, 1700}";
}
);
paths = (
{
closed = 1;
nodes = (
"642 134 CURVE SMOOTH",
"527 134 OFFCURVE",
"478 264 OFFCURVE",
"478 587 CURVE SMOOTH",
"478 889 OFFCURVE",
"531 1011 OFFCURVE",
"632 1011 CURVE SMOOTH",
"748 1011 OFFCURVE",
"789 881 OFFCURVE",
"789 558 CURVE SMOOTH",
"789 256 OFFCURVE",
"743 134 OFFCURVE"
);
},
{
closed = 1;
nodes = (
"53 559 CURVE SMOOTH",
"53 171 OFFCURVE",
"291 -23 OFFCURVE",
"619 -23 CURVE SMOOTH",
"944 -23 OFFCURVE",
"1216 147 OFFCURVE",
"1216 586 CURVE SMOOTH",
"1216 975 OFFCURVE",
"980 1168 OFFCURVE",
"650 1168 CURVE SMOOTH",
"326 1168 OFFCURVE",
"53 980 OFFCURVE"
);
}
);
};
layerId = "6AFE116F-39E0-4FF2-A27B-879B4E5E3272";
name = Bold;
paths = (
{
closed = 1;
nodes = (
"758 1007 OFFCURVE",
"796 901 OFFCURVE",
"796 556 CURVE SMOOTH",
"796 232 OFFCURVE",
"743 134 OFFCURVE",
"638 134 CURVE SMOOTH",
"510 134 OFFCURVE",
"473 240 OFFCURVE",
"473 585 CURVE SMOOTH",
"473 909 OFFCURVE",
"526 1007 OFFCURVE",
"631 1007 CURVE SMOOTH"
);
},
{
closed = 1;
nodes = (
"306 1168 OFFCURVE",
"48 1010 OFFCURVE",
"48 557 CURVE SMOOTH",
"48 147 OFFCURVE",
"271 -27 OFFCURVE",
"619 -27 CURVE SMOOTH",
"964 -27 OFFCURVE",
"1221 128 OFFCURVE",
"1221 584 CURVE SMOOTH",
"1221 995 OFFCURVE",
"1000 1168 OFFCURVE",
"650 1168 CURVE SMOOTH"
);
}
);
width = 1269;
},
{
anchors = (
{
name = btm;
position = "{601, -170}";
},
{
name = top;
position = "{617, 1700}";
}
);
background = {
anchors = (
{
name = btm;
position = "{601, -170}";
},
{
name = top;
position = "{617, 1700}";
}
);
paths = (
{
closed = 1;
nodes = (
"608 84 CURVE SMOOTH",
"370 84 OFFCURVE",
"279 314 OFFCURVE",
"279 587 CURVE SMOOTH",
"279 901 OFFCURVE",
"402 1061 OFFCURVE",
"610 1061 CURVE SMOOTH",
"850 1061 OFFCURVE",
"938 828 OFFCURVE",
"938 558 CURVE SMOOTH",
"938 245 OFFCURVE",
"816 84 OFFCURVE"
);
},
{
closed = 1;
nodes = (
"93 576 CURVE SMOOTH",
"93 254 OFFCURVE",
"231 -23 OFFCURVE",
"599 -23 CURVE SMOOTH",
"860 -23 OFFCURVE",
"1125 196 OFFCURVE",
"1125 569 CURVE SMOOTH",
"1125 891 OFFCURVE",
"986 1168 OFFCURVE",
"618 1168 CURVE SMOOTH",
"357 1168 OFFCURVE",
"93 948 OFFCURVE"
);
}
);
};
layerId = "6D8A9A52-7D7D-4498-B039-FDF10F245A16";
name = Light;
paths = (
{
closed = 1;
nodes = (
"860 1061 OFFCURVE",
"938 847 OFFCURVE",
"938 559 CURVE SMOOTH",
"938 232 OFFCURVE",
"836 84 OFFCURVE",
"618 84 CURVE SMOOTH",
"356 84 OFFCURVE",
"279 301 OFFCURVE",
"279 586 CURVE SMOOTH",
"279 914 OFFCURVE",
"382 1061 OFFCURVE",
"600 1061 CURVE SMOOTH"
);
},
{
closed = 1;
nodes = (
"336 1168 OFFCURVE",
"93 981 OFFCURVE",
"93 567 CURVE SMOOTH",
"93 227 OFFCURVE",
"230 -23 OFFCURVE",
"589 -23 CURVE SMOOTH",
"882 -23 OFFCURVE",
"1125 164 OFFCURVE",
"1125 576 CURVE SMOOTH",
"1125 917 OFFCURVE",
"987 1168 OFFCURVE",
"628 1168 CURVE SMOOTH"
);
}
);
width = 1218;
}
);
unicode = 006F;
},
{
color = 9;
glyphname = p;
lastChange = "2015-09-18 13:49:39 +0000";
layers = (
{
anchors = (
{
name = btm;
position = "{605, -170}";
},
{
name = top;
position = "{657, 1700}";
}
);
background = {
anchors = (
{
name = btm;
position = "{605, -170}";
},
{
name = top;
position = "{657, 1700}";
}
);
paths = (
{
closed = 1;
nodes = (
"49 -354 LINE",
"49 -496 LINE",
"707 -496 LINE",
"707 -354 LINE",
"526 -323 LINE",
"548 -359 LINE",
"548 -170 LINE",
"542 -7 LINE",
"548 137 LINE",
"548 954 LINE",
"520 1004 LINE",
"520 1120 LINE",
"459 1167 LINE",
"454 1167 LINE",
"52 1118 LINE",
"52 934 LINE",
"161 895 LINE",
"161 -358 LINE",
"194 -319 LINE"
);
},
{
closed = 1;
nodes = (
"1262 604 CURVE SMOOTH",
"1262 1010 OFFCURVE",
"1070 1168 OFFCURVE",
"820 1168 CURVE SMOOTH",
"674 1168 OFFCURVE",
"552 1077 OFFCURVE",
"509 998 CURVE",
"546 898 LINE",
"570 928 OFFCURVE",
"622 956 OFFCURVE",
"677 956 CURVE SMOOTH",
"780 956 OFFCURVE",
"848 843 OFFCURVE",
"846 568 CURVE SMOOTH",
"845 227 OFFCURVE",
"751 126 OFFCURVE",
"644 126 CURVE SMOOTH",
"600 126 OFFCURVE",
"565 141 OFFCURVE",
"548 160 CURVE",
"503 94 LINE",
"542 -7 LINE",
"559 -13 OFFCURVE",
"599 -23 OFFCURVE",
"636 -23 CURVE SMOOTH",
"1060 -23 OFFCURVE",
"1262 281 OFFCURVE"
);
}
);
};
layerId = "6AFE116F-39E0-4FF2-A27B-879B4E5E3272";
name = Bold;
paths = (
{
closed = 1;
nodes = (
"1025 -23 OFFCURVE",
"1271 198 OFFCURVE",
"1271 624 CURVE SMOOTH",
"1271 998 OFFCURVE",
"1090 1168 OFFCURVE",
"851 1168 CURVE SMOOTH",
"674 1168 OFFCURVE",
"552 1077 OFFCURVE",
"469 948 CURVE",
"499 882 LINE",
"523 912 OFFCURVE",
"596 941 OFFCURVE",
"671 941 CURVE SMOOTH",
"798 941 OFFCURVE",
"858 843 OFFCURVE",
"856 568 CURVE SMOOTH",
"855 227 OFFCURVE",
"771 123 OFFCURVE",
"644 123 CURVE SMOOTH",
"590 123 OFFCURVE",
"532 132 OFFCURVE",
"488 186 CURVE",
"472 -4 LINE",
"539 -17 OFFCURVE",
"596 -23 OFFCURVE",
"646 -23 CURVE SMOOTH"
);
},
{
closed = 1;
nodes = (
"548 930 LINE",
"506 1120 LINE",
"452 1167 LINE",
"316 1167 OFFCURVE",
"129 1141 OFFCURVE",
"-7 1108 CURVE",
"-7 949 LINE",
"113 922 LINE SMOOTH",
"140 916 OFFCURVE",
"153 894 OFFCURVE",
"153 865 CURVE SMOOTH",
"153 -268 LINE SMOOTH",
"153 -298 OFFCURVE",
"138 -317 OFFCURVE",
"109 -323 CURVE SMOOTH",
"3 -345 LINE",
"3 -496 LINE",
"747 -496 LINE",
"747 -345 LINE",
"594 -323 LINE SMOOTH",
"564 -319 OFFCURVE",
"548 -299 OFFCURVE",
"548 -268 CURVE SMOOTH"
);
}
);
width = 1320;
},
{
anchors = (
{
name = btm;
position = "{666, -170}";
},
{
name = top;
position = "{717, 1700}";
}
);
background = {
anchors = (
{
name = btm;
position = "{666, -170}";
},
{
name = top;
position = "{717, 1700}";
}
);
paths = (
{
closed = 1;
nodes = (
"63 -405 LINE",
"63 -496 LINE",
"612 -496 LINE",
"612 -405 LINE",
"343 -381 LINE",
"385 -423 LINE",
"385 -164 LINE",
"381 10 LINE",
"385 68 LINE",
"385 963 LINE",
"365 986 LINE",
"365 1129 LINE",
"328 1161 LINE",
"323 1161 LINE",
"61 1129 LINE",
"61 1037 LINE",
"221 1001 LINE",
"221 -421 LINE",
"263 -380 LINE"
);
},
{
closed = 1;
nodes = (
"1183 610 CURVE SMOOTH",
"1183 1003 OFFCURVE",
"963 1168 OFFCURVE",
"735 1168 CURVE SMOOTH",
"535 1168 OFFCURVE",
"397 1047 OFFCURVE",
"334 970 CURVE",
"382 920 LINE",
"429 972 OFFCURVE",
"536 1042 OFFCURVE",
"667 1042 CURVE SMOOTH",
"850 1042 OFFCURVE",
"1008 908 OFFCURVE",
"1005 581 CURVE SMOOTH",
"1000 232 OFFCURVE",
"834 74 OFFCURVE",
"615 74 CURVE SMOOTH",
"502 74 OFFCURVE",
"405 111 OFFCURVE",
"385 144 CURVE",
"318 84 LINE",
"381 10 LINE",
"437 -10 OFFCURVE",
"533 -23 OFFCURVE",
"606 -23 CURVE SMOOTH",
"957 -23 OFFCURVE",
"1183 259 OFFCURVE"
);
}
);
};
layerId = "6D8A9A52-7D7D-4498-B039-FDF10F245A16";
name = Light;
paths = (
{
closed = 1;
nodes = (
"973 -23 OFFCURVE",
"1183 235 OFFCURVE",
"1183 599 CURVE SMOOTH",
"1183 1020 OFFCURVE",
"990 1168 OFFCURVE",
"735 1168 CURVE SMOOTH",
"535 1168 OFFCURVE",
"396 1047 OFFCURVE",
"333 970 CURVE",
"382 920 LINE",
"429 972 OFFCURVE",
"536 1042 OFFCURVE",
"667 1042 CURVE SMOOTH",
"898 1042 OFFCURVE",
"1008 891 OFFCURVE",
"1004 571 CURVE SMOOTH",
"999 217 OFFCURVE",
"856 81 OFFCURVE",
"615 81 CURVE SMOOTH",
"502 81 OFFCURVE",
"405 116 OFFCURVE",
"364 154 CURVE",
"336 35 LINE",
"405 -8 OFFCURVE",
"525 -23 OFFCURVE",
"606 -23 CURVE SMOOTH"
);
},
{
closed = 1;
nodes = (
"385 937 LINE",
"367 1129 LINE",
"336 1161 LINE",
"231 1159 OFFCURVE",
"125 1141 OFFCURVE",
"20 1109 CURVE",
"20 1027 LINE",
"167 1009 LINE SMOOTH",
"202 1005 OFFCURVE",
"220 980 OFFCURVE",
"220 944 CURVE SMOOTH",
"220 -326 LINE SMOOTH",
"220 -363 OFFCURVE",
"201 -384 OFFCURVE",
"164 -389 CURVE SMOOTH",
"35 -408 LINE",
"35 -496 LINE",
"612 -496 LINE",
"612 -408 LINE",
"442 -389 LINE SMOOTH",
"405 -385 OFFCURVE",
"385 -364 OFFCURVE",
"385 -327 CURVE SMOOTH"
);
}
);
width = 1278;
}
);
unicode = 0070;
},
{
color = 9;
glyphname = q;
lastChange = "2015-09-18 13:49:39 +0000";
layers = (
{
anchors = (
{
name = btm;
position = "{623, -170}";
},
{
name = top;
position = "{600, 1700}";
}
);
background = {
anchors = (
{
name = btm;
position = "{623, -170}";
},
{
name = top;
position = "{600, 1700}";
}
);
paths = (
{
closed = 1;
nodes = (
"559 -354 LINE",
"559 -496 LINE",
"1300 -496 LINE",
"1300 -354 LINE",
"1134 -321 LINE",
"1163 -358 LINE",
"1163 1120 LINE",
"1113 1157 LINE",
"1108 1157 LINE",
"776 1101 LINE",
"776 203 LINE",
"784 130 LINE",
"776 -48 LINE",
"776 -358 LINE",
"811 -322 LINE"
);
},
{
closed = 1;
nodes = (
"500 -23 CURVE SMOOTH",
"643 -23 OFFCURVE",
"793 59 OFFCURVE",
"844 185 CURVE",
"776 242 LINE",
"752 210 OFFCURVE",
"701 182 OFFCURVE",
"647 182 CURVE SMOOTH",
"544 182 OFFCURVE",
"475 300 OFFCURVE",
"477 580 CURVE SMOOTH",
"478 915 OFFCURVE",
"570 1011 OFFCURVE",
"676 1011 CURVE SMOOTH",
"720 1011 OFFCURVE",
"760 997 OFFCURVE",
"776 978 CURVE",
"939 1118 LINE",
"915 1127 OFFCURVE",
"785 1168 OFFCURVE",
"686 1168 CURVE SMOOTH",
"261 1168 OFFCURVE",
"58 867 OFFCURVE",
"58 544 CURVE SMOOTH",
"58 139 OFFCURVE",
"251 -23 OFFCURVE"
);
}
);
};
layerId = "6AFE116F-39E0-4FF2-A27B-879B4E5E3272";
name = Bold;
paths = (
{
closed = 1;
nodes = (
"48 148 OFFCURVE",
"234 -23 OFFCURVE",
"499 -23 CURVE SMOOTH",
"681 -23 OFFCURVE",
"796 68 OFFCURVE",
"859 208 CURVE",
"820 248 LINE",
"776 209 OFFCURVE",
"703 184 OFFCURVE",
"637 184 CURVE SMOOTH",
"515 184 OFFCURVE",
"462 300 OFFCURVE",
"463 594 CURVE SMOOTH",
"464 885 OFFCURVE",
"536 1005 OFFCURVE",
"663 1005 CURVE SMOOTH",
"735 1005 OFFCURVE",
"777 983 OFFCURVE",
"808 934 CURVE",
"1032 1045 LINE",
"938 1114 OFFCURVE",
"776 1168 OFFCURVE",
"633 1168 CURVE SMOOTH",
"253 1168 OFFCURVE",
"48 923 OFFCURVE",
"48 536 CURVE SMOOTH"
);
},
{
closed = 1;
nodes = (
"1171 1110 LINE",
"1111 1157 LINE",
"776 1021 LINE",
"776 -270 LINE SMOOTH",
"776 -301 OFFCURVE",
"759 -319 OFFCURVE",
"729 -323 CURVE SMOOTH",
"559 -345 LINE",
"559 -496 LINE",
"1311 -496 LINE",
"1311 -345 LINE",
"1216 -323 LINE SMOOTH",
"1187 -316 OFFCURVE",
"1171 -300 OFFCURVE",
"1171 -268 CURVE SMOOTH"
);
}
);
width = 1275;
},
{
anchors = (
{
name = btm;
position = "{624, -170}";
},
{
name = top;
position = "{601, 1700}";
}
);
background = {
anchors = (
{
name = btm;
position = "{624, -170}";
},
{
name = top;
position = "{601, 1700}";
}
);
paths = (
{
closed = 1;
nodes = (
"664 -412 LINE",
"664 -496 LINE",
"1202 -496 LINE",
"1202 -412 LINE",
"1011 -385 LINE",
"1058 -425 LINE",
"1058 1129 LINE",
"1024 1162 LINE",
"1023 1162 LINE",
"892 1119 LINE",
"892 202 LINE",
"899 136 LINE",
"893 -48 LINE",
"893 -425 LINE",
"938 -387 LINE"
);
},
{
closed = 1;
nodes = (
"544 -23 CURVE SMOOTH",
"743 -23 OFFCURVE",
"877 99 OFFCURVE",
"941 176 CURVE",
"895 222 LINE",
"852 175 OFFCURVE",
"748 97 OFFCURVE",
"612 97 CURVE SMOOTH",
"427 97 OFFCURVE",
"271 249 OFFCURVE",
"274 576 CURVE SMOOTH",
"279 924 OFFCURVE",
"444 1078 OFFCURVE",
"662 1078 CURVE SMOOTH",
"770 1078 OFFCURVE",
"877 1038 OFFCURVE",
"892 1005 CURVE",
"973 1118 LINE",
"906 1143 OFFCURVE",
"791 1168 OFFCURVE",
"678 1168 CURVE SMOOTH",
"318 1168 OFFCURVE",
"95 896 OFFCURVE",
"95 547 CURVE SMOOTH",
"95 155 OFFCURVE",
"316 -23 OFFCURVE"
);
}
);
};
layerId = "6D8A9A52-7D7D-4498-B039-FDF10F245A16";
name = Light;
paths = (
{
closed = 1;
nodes = (
"94 139 OFFCURVE",
"300 -23 OFFCURVE",
"551 -23 CURVE SMOOTH",
"733 -23 OFFCURVE",
"871 84 OFFCURVE",
"943 190 CURVE",
"915 236 LINE",
"834 159 OFFCURVE",
"732 106 OFFCURVE",
"608 106 CURVE SMOOTH",
"433 106 OFFCURVE",
"275 202 OFFCURVE",
"275 572 CURVE SMOOTH",
"275 945 OFFCURVE",
"447 1065 OFFCURVE",
"661 1065 CURVE SMOOTH",
"767 1065 OFFCURVE",
"873 1030 OFFCURVE",
"926 958 CURVE",
"994 1073 LINE",
"922 1125 OFFCURVE",
"797 1168 OFFCURVE",
"663 1168 CURVE SMOOTH",
"338 1168 OFFCURVE",
"94 955 OFFCURVE",
"94 540 CURVE SMOOTH"
);
},
{
closed = 1;
nodes = (
"1058 1132 LINE",
"1023 1162 LINE",
"893 1089 LINE",
"893 -327 LINE SMOOTH",
"893 -364 OFFCURVE",
"873 -385 OFFCURVE",
"836 -389 CURVE SMOOTH",
"666 -408 LINE",
"666 -496 LINE",
"1202 -496 LINE",
"1202 -408 LINE",
"1114 -391 LINE SMOOTH",
"1079 -384 OFFCURVE",
"1058 -364 OFFCURVE",
"1058 -327 CURVE SMOOTH"
);
}
);
width = 1239;
}
);
unicode = 0071;
},
{
color = 9;
glyphname = r;
lastChange = "2015-10-01 15:00:35 +0000";
layers = (
{
anchors = (
{
name = btm;
position = "{427, -170}";
},
{
name = top;
position = "{479, 1700}";
}
);
background = {
anchors = (
{
name = btm;
position = "{427, -170}";
},
{
name = top;
position = "{479, 1700}";
}
);
paths = (
{
closed = 1;
nodes = (
"89 0 LINE",
"804 0 LINE",
"804 151 LINE",
"564 176 LINE",
"595 155 LINE",
"595 755 LINE",
"624 775 OFFCURVE",
"694 796 OFFCURVE",
"779 796 CURVE SMOOTH",
"883 796 OFFCURVE",
"933 764 OFFCURVE",
"973 734 CURVE",
"973 1150 LINE",
"958 1160 OFFCURVE",
"925 1168 OFFCURVE",
"884 1168 CURVE SMOOTH",
"696 1168 OFFCURVE",
"556 994 OFFCURVE",
"532 889 CURVE",
"524 889 LINE",
"531 1064 LINE",
"531 1120 LINE",
"465 1167 LINE",
"460 1167 LINE",
"91 1118 LINE",
"91 934 LINE",
"200 895 LINE",
"200 161 LINE",
"214 175 LINE",
"89 152 LINE"
);
}
);
};
layerId = "6AFE116F-39E0-4FF2-A27B-879B4E5E3272";
name = Bold;
paths = (
{
closed = 1;
nodes = (
"549 746 LINE",
"618 825 OFFCURVE",
"698 849 OFFCURVE",
"746 848 CURVE SMOOTH",
"792 847 OFFCURVE",
"813 839 OFFCURVE",
"830 788 CURVE SMOOTH",
"867 681 LINE",
"1037 681 LINE",
"1073 837 OFFCURVE",
"1083 1019 OFFCURVE",
"1067 1135 CURVE",
"1033 1152 OFFCURVE",
"949 1168 OFFCURVE",
"903 1168 CURVE SMOOTH",
"749 1168 OFFCURVE",
"611 1032 OFFCURVE",
"511 791 CURVE"
);
},
{
closed = 1;
nodes = (
"531 1120 LINE",
"470 1167 LINE",
"337 1165 OFFCURVE",
"173 1146 OFFCURVE",
"40 1108 CURVE",
"40 949 LINE",
"158 923 LINE SMOOTH",
"186 917 OFFCURVE",
"200 895 OFFCURVE",
"200 866 CURVE SMOOTH",
"200 227 LINE SMOOTH",
"200 197 OFFCURVE",
"184 179 OFFCURVE",
"155 173 CURVE SMOOTH",
"50 152 LINE",
"50 0 LINE",
"804 0 LINE",
"804 152 LINE",
"642 173 LINE SMOOTH",
"611 177 OFFCURVE",
"595 196 OFFCURVE",
"595 227 CURVE SMOOTH",
"595 799 LINE"
);
}
);
width = 1098;
},
{
anchors = (
{
name = btm;
position = "{374, -170}";
},
{
name = top;
position = "{470, 1700}";
}
);
background = {
anchors = (
{
name = btm;
position = "{374, -170}";
},
{
name = top;
position = "{470, 1700}";
}
);
paths = (
{
closed = 1;
nodes = (
"115 0 LINE",
"717 0 LINE",
"717 84 LINE",
"404 103 LINE",
"445 69 LINE",
"445 876 LINE",
"507 924 OFFCURVE",
"618 997 OFFCURVE",
"795 997 CURVE SMOOTH",
"839 997 OFFCURVE",
"880 985 OFFCURVE",
"889 979 CURVE",
"889 1159 LINE",
"874 1164 OFFCURVE",
"856 1168 OFFCURVE",
"828 1168 CURVE SMOOTH",
"601 1168 OFFCURVE",
"448 967 OFFCURVE",
"424 941 CURVE",
"423 941 LINE",
"424 1057 LINE",
"424 1129 LINE",
"385 1161 LINE",
"380 1161 LINE",
"121 1129 LINE",
"121 1037 LINE",
"279 1001 LINE",
"279 69 LINE",
"306 102 LINE",
"115 85 LINE"
);
}
);
};
layerId = "6D8A9A52-7D7D-4498-B039-FDF10F245A16";
name = Light;
paths = (
{
closed = 1;
nodes = (
"410 826 LINE",
"507 951 OFFCURVE",
"636 1006 OFFCURVE",
"760 1006 CURVE SMOOTH",
"799 1006 OFFCURVE",
"817 989 OFFCURVE",
"824 947 CURVE SMOOTH",
"851 779 LINE",
"938 779 LINE",
"959 885 OFFCURVE",
"969 1032 OFFCURVE",
"961 1142 CURVE",
"927 1159 OFFCURVE",
"872 1168 OFFCURVE",
"833 1168 CURVE SMOOTH",
"653 1168 OFFCURVE",
"464 1010 OFFCURVE",
"405 904 CURVE"
);
},
{
closed = 1;
nodes = (
"424 1133 LINE",
"397 1161 LINE",
"300 1159 OFFCURVE",
"178 1139 OFFCURVE",
"80 1109 CURVE",
"80 1027 LINE",
"223 1009 LINE SMOOTH",
"265 1004 OFFCURVE",
"280 981 OFFCURVE",
"280 938 CURVE SMOOTH",
"280 170 LINE SMOOTH",
"280 133 OFFCURVE",
"260 113 OFFCURVE",
"223 107 CURVE SMOOTH",
"95 88 LINE",
"95 0 LINE",
"717 0 LINE",
"717 84 LINE",
"504 107 LINE SMOOTH",
"466 111 OFFCURVE",
"445 132 OFFCURVE",
"445 170 CURVE SMOOTH",
"445 902 LINE"
);
}
);
width = 1037;
},
{
anchors = (
{
name = btm;
position = "{400, -170}";
},
{
name = top;
position = "{496, 1700}";
}
);
associatedMasterId = "6D8A9A52-7D7D-4498-B039-FDF10F245A16";
background = {
anchors = (
{
name = btm;
position = "{400, -170}";
},
{
name = top;
position = "{496, 1700}";
}
);
paths = (
{
closed = 1;
nodes = (
"141 0 LINE",
"743 0 LINE",
"743 84 LINE",
"430 103 LINE",
"471 69 LINE",
"471 876 LINE",
"533 924 OFFCURVE",
"644 997 OFFCURVE",
"821 997 CURVE SMOOTH",
"865 997 OFFCURVE",
"906 985 OFFCURVE",
"915 979 CURVE",
"915 1159 LINE",
"900 1164 OFFCURVE",
"882 1168 OFFCURVE",
"854 1168 CURVE SMOOTH",
"627 1168 OFFCURVE",
"474 967 OFFCURVE",
"450 941 CURVE",
"449 941 LINE",
"450 1057 LINE",
"450 1129 LINE",
"411 1161 LINE",
"406 1161 LINE",
"147 1129 LINE",
"147 1037 LINE",
"305 1001 LINE",
"305 69 LINE",
"332 102 LINE",
"141 85 LINE"
);
}
);
};
layerId = "B65C96F2-03F3-4C36-8550-4A3159D726C2";
name = "Light Sep 15 15, 14:24";
paths = (
{
closed = 1;
nodes = (
"101 0 LINE",
"743 0 LINE",
"743 84 LINE",
"529 107 LINE SMOOTH",
"491 111 OFFCURVE",
"471 131 OFFCURVE",
"471 169 CURVE SMOOTH",
"471 876 LINE",
"533 924 OFFCURVE",
"634 999 OFFCURVE",
"761 999 CURVE SMOOTH",
"825 999 OFFCURVE",
"837 939 OFFCURVE",
"872 773 CURVE",
"955 783 LINE",
"970 885 OFFCURVE",
"981 1039 OFFCURVE",
"977 1137 CURVE",
"943 1157 OFFCURVE",
"888 1168 OFFCURVE",
"849 1168 CURVE SMOOTH",
"627 1168 OFFCURVE",
"487 978 OFFCURVE",
"463 952 CURVE",
"450 1133 LINE",
"423 1161 LINE",
"325 1159 OFFCURVE",
"205 1139 OFFCURVE",
"107 1109 CURVE",
"107 1027 LINE",
"248 1009 LINE SMOOTH",
"290 1004 OFFCURVE",
"305 981 OFFCURVE",
"305 938 CURVE SMOOTH",
"305 167 LINE SMOOTH",
"305 130 OFFCURVE",
"285 109 OFFCURVE",
"248 104 CURVE SMOOTH",
"101 85 LINE"
);
}
);
width = 1002;
}
);
unicode = 0072;
},
{
color = 9;
glyphname = s;
lastChange = "2015-10-01 17:17:08 +0000";
layers = (
{
anchors = (
{
name = btm;
position = "{494, -170}";
},
{
name = top;
position = "{573, 1700}";
}
);
background = {
anchors = (
{
name = btm;
position = "{494, -170}";
},
{
name = top;
position = "{573, 1700}";
}
);
paths = (
{
closed = 1;
nodes = (
"88 57 LINE",
"167 47 OFFCURVE",
"309 -23 OFFCURVE",
"559 -23 CURVE SMOOTH",
"919 -23 OFFCURVE",
"1055 149 OFFCURVE",
"1055 329 CURVE SMOOTH",
"1055 545 OFFCURVE",
"873 639 OFFCURVE",
"703 713 CURVE SMOOTH",
"570 772 OFFCURVE",
"448 814 OFFCURVE",
"448 910 CURVE SMOOTH",
"448 976 OFFCURVE",
"501 1019 OFFCURVE",
"594 1019 CURVE SMOOTH",
"657 1019 OFFCURVE",
"701 995 OFFCURVE",
"712 975 CURVE",
"770 816 LINE",
"984 815 LINE",
"984 1105 LINE",
"903 1110 OFFCURVE",
"794 1166 OFFCURVE",
"565 1166 CURVE SMOOTH",
"248 1166 OFFCURVE",
"82 1011 OFFCURVE",
"82 821 CURVE SMOOTH",
"82 644 OFFCURVE",
"179 537 OFFCURVE",
"331 461 CURVE SMOOTH",
"501 374 OFFCURVE",
"660 336 OFFCURVE",
"660 233 CURVE SMOOTH",
"660 174 OFFCURVE",
"610 124 OFFCURVE",
"517 124 CURVE SMOOTH",
"458 124 OFFCURVE",
"385 149 OFFCURVE",
"370 174 CURVE",
"312 336 LINE",
"88 336 LINE"
);
}
);
};
layerId = "6AFE116F-39E0-4FF2-A27B-879B4E5E3272";
name = Bold;
paths = (
{
closed = 1;
nodes = (
"81 284 OFFCURVE",
"76 165 OFFCURVE",
"90 63 CURVE",
"206 13 OFFCURVE",
"365 -27 OFFCURVE",
"540 -27 CURVE SMOOTH",
"833 -27 OFFCURVE",
"1055 83 OFFCURVE",
"1055 326 CURVE SMOOTH",
"1055 543 OFFCURVE",
"882 628 OFFCURVE",
"686 715 CURVE SMOOTH",
"558 772 OFFCURVE",
"448 813 OFFCURVE",
"448 909 CURVE SMOOTH",
"448 977 OFFCURVE",
"500 1022 OFFCURVE",
"581 1022 CURVE SMOOTH",
"616 1022 OFFCURVE",
"653 1016 OFFCURVE",
"688 993 CURVE SMOOTH",
"714 975 OFFCURVE",
"724 961 OFFCURVE",
"738 921 CURVE SMOOTH",
"785 782 LINE",
"966 781 LINE",
"986 881 OFFCURVE",
"991 1000 OFFCURVE",
"981 1097 CURVE",
"872 1139 OFFCURVE",
"709 1166 OFFCURVE",
"574 1166 CURVE SMOOTH",
"227 1166 OFFCURVE",
"82 1013 OFFCURVE",
"82 810 CURVE SMOOTH",
"82 636 OFFCURVE",
"191 545 OFFCURVE",
"354 462 CURVE SMOOTH",
"520 377 OFFCURVE",
"660 338 OFFCURVE",
"660 234 CURVE SMOOTH",
"660 174 OFFCURVE",
"610 117 OFFCURVE",
"519 117 CURVE SMOOTH",
"457 117 OFFCURVE",
"407 143 OFFCURVE",
"380 163 CURVE SMOOTH",
"355 182 OFFCURVE",
"348 199 OFFCURVE",
"335 241 CURVE SMOOTH",
"292 383 LINE",
"97 383 LINE"
);
}
);
width = 1104;
},
{
anchors = (
{
name = btm;
position = "{520, -170}";
},
{
name = top;
position = "{522, 1700}";
}
);
background = {
anchors = (
{
name = btm;
position = "{520, -170}";
},
{
name = top;
position = "{522, 1700}";
}
);
paths = (
{
closed = 1;
nodes = (
"119 64 LINE",
"185 28 OFFCURVE",
"361 -23 OFFCURVE",
"487 -23 CURVE SMOOTH",
"740 -23 OFFCURVE",
"911 98 OFFCURVE",
"911 303 CURVE SMOOTH",
"911 508 OFFCURVE",
"739 581 OFFCURVE",
"558 654 CURVE SMOOTH",
"422 711 OFFCURVE",
"287 749 OFFCURVE",
"287 905 CURVE SMOOTH",
"287 1005 OFFCURVE",
"381 1069 OFFCURVE",
"515 1067 CURVE SMOOTH",
"607 1067 OFFCURVE",
"690 1039 OFFCURVE",
"709 1003 CURVE",
"745 855 LINE",
"846 855 LINE",
"846 1098 LINE",
"803 1114 OFFCURVE",
"693 1161 OFFCURVE",
"530 1161 CURVE SMOOTH",
"317 1161 OFFCURVE",
"134 1051 OFFCURVE",
"134 870 CURVE SMOOTH",
"134 684 OFFCURVE",
"236 586 OFFCURVE",
"450 509 CURVE SMOOTH",
"654 435 OFFCURVE",
"758 378 OFFCURVE",
"758 259 CURVE SMOOTH",
"758 148 OFFCURVE",
"690 73 OFFCURVE",
"507 73 CURVE SMOOTH",
"396 73 OFFCURVE",
"288 119 OFFCURVE",
"260 162 CURVE",
"229 321 LINE",
"119 321 LINE"
);
}
);
};
layerId = "6D8A9A52-7D7D-4498-B039-FDF10F245A16";
name = Light;
paths = (
{
closed = 1;
nodes = (
"109 277 OFFCURVE",
"105 172 OFFCURVE",
"118 64 CURVE",
"198 25 OFFCURVE",
"334 -23 OFFCURVE",
"490 -23 CURVE SMOOTH",
"744 -23 OFFCURVE",
"914 98 OFFCURVE",
"914 304 CURVE SMOOTH",
"914 512 OFFCURVE",
"739 595 OFFCURVE",
"558 662 CURVE SMOOTH",
"424 712 OFFCURVE",
"287 750 OFFCURVE",
"287 897 CURVE SMOOTH",
"287 1022 OFFCURVE",
"385 1077 OFFCURVE",
"510 1074 CURVE SMOOTH",
"582 1072 OFFCURVE",
"632 1052 OFFCURVE",
"660 1036 CURVE SMOOTH",
"697 1015 OFFCURVE",
"710 990 OFFCURVE",
"718 953 CURVE SMOOTH",
"748 818 LINE",
"836 818 LINE",
"853 912 OFFCURVE",
"859 1007 OFFCURVE",
"856 1105 CURVE",
"781 1139 OFFCURVE",
"650 1168 OFFCURVE",
"538 1168 CURVE SMOOTH",
"315 1168 OFFCURVE",
"134 1066 OFFCURVE",
"134 847 CURVE SMOOTH",
"134 660 OFFCURVE",
"265 589 OFFCURVE",
"450 517 CURVE SMOOTH",
"659 436 OFFCURVE",
"761 396 OFFCURVE",
"761 262 CURVE SMOOTH",
"761 143 OFFCURVE",
"682 72 OFFCURVE",
"527 72 CURVE SMOOTH",
"423 72 OFFCURVE",
"340 105 OFFCURVE",
"303 128 CURVE SMOOTH",
"273 147 OFFCURVE",
"262 166 OFFCURVE",
"251 212 CURVE SMOOTH",
"214 364 LINE",
"121 364 LINE"
);
}
);
width = 1016;
}
);
unicode = 0073;
},
{
color = 9;
glyphname = t;
lastChange = "2015-09-18 15:01:52 +0000";
layers = (
{
anchors = (
{
name = btm;
position = "{463, -170}";
},
{
name = top;
position = "{436, 1929}";
}
);
background = {
anchors = (
{
name = btm;
position = "{463, -170}";
},
{
name = top;
position = "{436, 1929}";
}
);
paths = (
{
closed = 1;
nodes = (
"170 247 LINE",
"170 78 OFFCURVE",
"253 -16 OFFCURVE",
"448 -16 CURVE",
"450 -16 LINE",
"628 -16 OFFCURVE",
"788 42 OFFCURVE",
"866 105 CURVE",
"817 249 LINE",
"816 249 LINE",
"773 238 OFFCURVE",
"722 225 OFFCURVE",
"658 225 CURVE",
"657 225 LINE",
"580 225 OFFCURVE",
"572 242 OFFCURVE",
"572 450 CURVE SMOOTH",
"572 951 LINE",
"837 951 LINE",
"837 1138 LINE",
"568 1138 LINE",
"553 1452 LINE",
"328 1452 LINE",
"304 1374 OFFCURVE",
"283 1311 OFFCURVE",
"257 1255 CURVE SMOOTH",
"234 1201 OFFCURVE",
"210 1166 OFFCURVE",
"186 1140 CURVE",
"187 1139 OFFCURVE",
"54 1084 OFFCURVE",
"55 1082 CURVE",
"55 951 LINE",
"170 951 LINE"
);
}
);
};
layerId = "6AFE116F-39E0-4FF2-A27B-879B4E5E3272";
name = Bold;
paths = (
{
closed = 1;
nodes = (
"170 347 LINE SMOOTH",
"170 67 OFFCURVE",
"293 -16 OFFCURVE",
"510 -16 CURVE SMOOTH",
"703 -16 OFFCURVE",
"858 53 OFFCURVE",
"928 208 CURVE",
"856 291 LINE",
"803 249 OFFCURVE",
"739 235 OFFCURVE",
"694 235 CURVE SMOOTH",
"607 235 OFFCURVE",
"565 282 OFFCURVE",
"565 430 CURVE SMOOTH",
"565 931 LINE",
"860 931 LINE",
"860 1138 LINE",
"561 1138 LINE",
"546 1512 LINE",
"328 1512 LINE",
"208 1190 LINE SMOOTH",
"195 1156 OFFCURVE",
"180 1142 OFFCURVE",
"144 1134 CURVE SMOOTH",
"20 1107 LINE",
"20 956 LINE",
"170 926 LINE"
);
}
);
width = 965;
},
{
anchors = (
{
name = btm;
position = "{485, -170}";
},
{
name = top;
position = "{353, 1870}";
}
);
background = {
anchors = (
{
name = btm;
position = "{485, -170}";
},
{
name = top;
position = "{353, 1870}";
}
);
paths = (
{
closed = 1;
nodes = (
"227 206 LINE",
"227 27 OFFCURVE",
"312 -23 OFFCURVE",
"444 -23 CURVE",
"446 -23 LINE",
"559 -22 OFFCURVE",
"732 37 OFFCURVE",
"791 82 CURVE",
"765 159 LINE",
"764 159 LINE",
"718 138 OFFCURVE",
"604 108 OFFCURVE",
"521 108 CURVE",
"520 108 LINE",
"408 108 OFFCURVE",
"393 124 OFFCURVE",
"393 353 CURVE SMOOTH",
"393 1015 LINE",
"756 1015 LINE",
"756 1136 LINE",
"393 1136 LINE",
"393 1428 LINE",
"298 1428 LINE",
"291 1391 OFFCURVE",
"253 1239 OFFCURVE",
"236 1192 CURVE SMOOTH",
"225 1160 OFFCURVE",
"212 1141 OFFCURVE",
"191 1128 CURVE",
"174 1118 OFFCURVE",
"108 1104 OFFCURVE",
"72 1096 CURVE",
"72 1015 LINE",
"227 1015 LINE"
);
}
);
};
layerId = "6D8A9A52-7D7D-4498-B039-FDF10F245A16";
name = Light;
paths = (
{
closed = 1;
nodes = (
"227 266 LINE SMOOTH",
"227 35 OFFCURVE",
"373 -23 OFFCURVE",
"523 -23 CURVE SMOOTH",
"664 -23 OFFCURVE",
"791 42 OFFCURVE",
"849 157 CURVE",
"789 207 LINE",
"738 146 OFFCURVE",
"663 109 OFFCURVE",
"567 109 CURVE SMOOTH",
"461 109 OFFCURVE",
"393 152 OFFCURVE",
"393 333 CURVE SMOOTH",
"393 1015 LINE",
"787 1015 LINE",
"787 1136 LINE",
"393 1136 LINE",
"393 1468 LINE",
"294 1468 LINE",
"236 1181 LINE SMOOTH",
"229 1147 OFFCURVE",
"211 1128 OFFCURVE",
"175 1124 CURVE SMOOTH",
"47 1109 LINE",
"47 1026 LINE",
"227 1006 LINE"
);
}
);
width = 864;
}
);
unicode = 0074;
},
{
color = 9;
glyphname = u;
lastChange = "2015-09-17 16:34:18 +0000";
layers = (
{
anchors = (
{
name = btm;
position = "{728, -170}";
},
{
name = top;
position = "{695, 1700}";
}
);
background = {
anchors = (
{
name = btm;
position = "{728, -170}";
},
{
name = top;
position = "{695, 1700}";
}
);
paths = (
{
closed = 1;
nodes = (
"1022 -23 CURVE SMOOTH",
"1155 -23 OFFCURVE",
"1265 0 OFFCURVE",
"1318 11 CURVE",
"1318 160 LINE",
"1217 160 LINE",
"1217 1135 LINE",
"1165 1163 LINE",
"1159 1163 LINE",
"704 1137 LINE",
"704 992 LINE",
"822 963 LINE",
"822 243 LINE",
"802 224 OFFCURVE",
"758 184 OFFCURVE",
"673 184 CURVE SMOOTH",
"589 184 OFFCURVE",
"550 229 OFFCURVE",
"550 384 CURVE SMOOTH",
"550 1135 LINE",
"504 1163 LINE",
"501 1163 LINE",
"67 1136 LINE",
"67 988 LINE",
"155 963 LINE",
"155 405 LINE",
"155 94 OFFCURVE",
"262 -23 OFFCURVE",
"536 -23 CURVE SMOOTH",
"673 -23 OFFCURVE",
"815 62 OFFCURVE",
"868 149 CURVE",
"868 116 LINE",
"868 34 OFFCURVE",
"909 -23 OFFCURVE"
);
}
);
};
layerId = "6AFE116F-39E0-4FF2-A27B-879B4E5E3272";
name = Bold;
paths = (
{
closed = 1;
nodes = (
"729 -23 OFFCURVE",
"837 49 OFFCURVE",
"932 192 CURVE",
"889 257 LINE",
"827 214 OFFCURVE",
"760 186 OFFCURVE",
"696 186 CURVE SMOOTH",
"600 186 OFFCURVE",
"550 230 OFFCURVE",
"550 414 CURVE SMOOTH",
"550 1119 LINE",
"498 1166 LINE",
"352 1168 OFFCURVE",
"156 1148 OFFCURVE",
"10 1114 CURVE",
"10 955 LINE",
"113 927 LINE SMOOTH",
"142 919 OFFCURVE",
"155 899 OFFCURVE",
"155 870 CURVE SMOOTH",
"155 365 LINE SMOOTH",
"155 99 OFFCURVE",
"277 -23 OFFCURVE",
"513 -23 CURVE SMOOTH"
);
},
{
closed = 1;
nodes = (
"1214 -19 OFFCURVE",
"1325 5 OFFCURVE",
"1375 20 CURVE",
"1375 164 LINE",
"1280 177 LINE SMOOTH",
"1248 181 OFFCURVE",
"1230 195 OFFCURVE",
"1230 237 CURVE SMOOTH",
"1230 1119 LINE",
"1178 1166 LINE",
"1031 1166 OFFCURVE",
"834 1150 OFFCURVE",
"687 1116 CURVE",
"687 957 LINE",
"793 929 LINE SMOOTH",
"821 922 OFFCURVE",
"835 900 OFFCURVE",
"835 871 CURVE SMOOTH",
"835 207 LINE",
"870 47 OFFCURVE",
"966 -19 OFFCURVE",
"1121 -19 CURVE SMOOTH"
);
}
);
width = 1415;
},
{
anchors = (
{
name = btm;
position = "{664, -170}";
},
{
name = top;
position = "{623, 1700}";
}
);
background = {
anchors = (
{
name = btm;
position = "{664, -170}";
},
{
name = top;
position = "{623, 1700}";
}
);
paths = (
{
closed = 1;
nodes = (
"927 -3 OFFCURVE",
"965 -19 OFFCURVE",
"1031 -19 CURVE SMOOTH",
"1102 -19 OFFCURVE",
"1155 -1 OFFCURVE",
"1201 12 CURVE",
"1202 90 LINE",
"1075 90 LINE",
"1075 1137 LINE",
"1029 1161 LINE",
"1027 1161 LINE",
"753 1135 LINE",
"753 1059 LINE",
"910 1023 LINE",
"910 233 LINE",
"846 179 OFFCURVE",
"730 103 OFFCURVE",
"596 103 CURVE SMOOTH",
"406 103 OFFCURVE",
"366 203 OFFCURVE",
"366 446 CURVE SMOOTH",
"366 1137 LINE",
"329 1161 LINE",
"328 1161 LINE",
"80 1135 LINE",
"80 1059 LINE",
"201 1024 LINE",
"201 422 LINE",
"201 111 OFFCURVE",
"293 -23 OFFCURVE",
"545 -23 CURVE SMOOTH",
"697 -23 OFFCURVE",
"846 73 OFFCURVE",
"927 148 CURVE",
"927 68 LINE"
);
}
);
};
layerId = "6D8A9A52-7D7D-4498-B039-FDF10F245A16";
name = Light;
paths = (
{
closed = 1;
nodes = (
"737 -23 OFFCURVE",
"859 69 OFFCURVE",
"956 180 CURVE",
"936 245 LINE",
"842 147 OFFCURVE",
"729 103 OFFCURVE",
"604 103 CURVE SMOOTH",
"415 103 OFFCURVE",
"366 212 OFFCURVE",
"366 436 CURVE SMOOTH",
"366 1133 LINE",
"340 1161 LINE",
"239 1157 OFFCURVE",
"117 1144 OFFCURVE",
"16 1113 CURVE",
"16 1031 LINE",
"146 1011 LINE SMOOTH",
"184 1005 OFFCURVE",
"201 983 OFFCURVE",
"201 947 CURVE SMOOTH",
"201 402 LINE SMOOTH",
"201 116 OFFCURVE",
"302 -23 OFFCURVE",
"557 -23 CURVE SMOOTH"
);
},
{
closed = 1;
nodes = (
"1134 -16 OFFCURVE",
"1212 3 OFFCURVE",
"1255 19 CURVE",
"1255 100 LINE",
"1135 110 LINE SMOOTH",
"1100 113 OFFCURVE",
"1075 127 OFFCURVE",
"1075 176 CURVE SMOOTH",
"1075 1133 LINE",
"1049 1161 LINE",
"944 1161 OFFCURVE",
"799 1143 OFFCURVE",
"694 1116 CURVE",
"694 1034 LINE",
"855 1011 LINE SMOOTH",
"891 1006 OFFCURVE",
"910 984 OFFCURVE",
"910 947 CURVE SMOOTH",
"910 172 LINE",
"918 74 OFFCURVE",
"960 -16 OFFCURVE",
"1078 -16 CURVE SMOOTH"
);
}
);
width = 1286;
}
);
unicode = 0075;
},
{
color = 9;
glyphname = v;
lastChange = "2015-09-19 13:20:28 +0000";
layers = (
{
anchors = (
{
name = btm;
position = "{635, -170}";
},
{
name = top;
position = "{635, 1700}";
}
);
background = {
anchors = (
{
name = btm;
position = "{635, -170}";
},
{
name = top;
position = "{635, 1700}";
}
);
paths = (
{
closed = 1;
nodes = (
"517 -16 LINE",
"839 -16 LINE",
"1222 1020 LINE",
"1159 958 LINE",
"1311 991 LINE",
"1311 1138 LINE",
"806 1138 LINE",
"806 991 LINE",
"962 960 LINE",
"942 1020 LINE",
"774 451 LINE",
"727 203 LINE",
"768 203 LINE",
"711 451 LINE",
"539 1020 LINE",
"507 957 LINE",
"674 991 LINE",
"674 1138 LINE",
"40 1138 LINE",
"40 991 LINE",
"151 956 LINE",
"96 1015 LINE"
);
}
);
};
layerId = "6AFE116F-39E0-4FF2-A27B-879B4E5E3272";
name = Bold;
paths = (
{
closed = 1;
nodes = (
"669 -16 LINE",
"846 -16 LINE",
"1177 918 LINE SMOOTH",
"1186 944 OFFCURVE",
"1204 955 OFFCURVE",
"1229 963 CURVE SMOOTH",
"1304 987 LINE",
"1304 1138 LINE",
"849 1138 LINE",
"849 984 LINE",
"986 953 LINE"
);
},
{
closed = 1;
nodes = (
"825 139 LINE",
"559 953 LINE",
"698 984 LINE",
"698 1138 LINE",
"10 1138 LINE",
"10 987 LINE",
"85 963 LINE SMOOTH",
"109 955 OFFCURVE",
"125 942 OFFCURVE",
"135 917 CURVE SMOOTH",
"504 -16 LINE",
"772 -16 LINE"
);
}
);
width = 1351;
},
{
anchors = (
{
name = btm;
position = "{648, -170}";
},
{
name = top;
position = "{648, 1700}";
}
);
background = {
anchors = (
{
name = btm;
position = "{648, -170}";
},
{
name = top;
position = "{648, 1700}";
}
);
paths = (
{
closed = 1;
nodes = (
"580 -17 LINE",
"718 -17 LINE",
"1139 1076 LINE",
"1073 1015 LINE",
"1225 1052 LINE",
"1225 1136 LINE",
"833 1136 LINE",
"833 1052 LINE",
"997 1024 LINE",
"994 1075 LINE",
"759 407 LINE",
"655 68 LINE",
"694 68 LINE",
"571 418 LINE",
"335 1076 LINE",
"310 1021 LINE",
"505 1052 LINE",
"505 1136 LINE",
"70 1136 LINE",
"70 1052 LINE",
"206 1017 LINE",
"149 1071 LINE"
);
}
);
};
layerId = "6D8A9A52-7D7D-4498-B039-FDF10F245A16";
name = Light;
paths = (
{
closed = 1;
nodes = (
"618 -17 LINE",
"726 -17 LINE",
"1088 978 LINE SMOOTH",
"1099 1008 OFFCURVE",
"1119 1024 OFFCURVE",
"1150 1032 CURVE SMOOTH",
"1225 1052 LINE",
"1225 1136 LINE",
"797 1136 LINE",
"797 1052 LINE",
"977 1022 LINE"
);
},
{
closed = 1;
nodes = (
"721 58 LINE",
"368 1023 LINE",
"551 1052 LINE",
"551 1136 LINE",
"56 1136 LINE",
"56 1052 LINE",
"131 1031 LINE SMOOTH",
"162 1022 OFFCURVE",
"181 1005 OFFCURVE",
"192 976 CURVE SMOOTH",
"580 -17 LINE",
"690 -17 LINE"
);
}
);
width = 1275;
}
);
unicode = 0076;
},
{
color = 9;
glyphname = w;
lastChange = "2015-09-30 13:07:41 +0000";
layers = (
{
anchors = (
{
name = btm;
position = "{910, -170}";
},
{
name = top;
position = "{997, 1700}";
}
);
background = {
anchors = (
{
name = btm;
position = "{910, -170}";
},
{
name = top;
position = "{997, 1700}";
}
);
paths = (
{
closed = 1;
nodes = (
"457 -16 LINE",
"759 -16 LINE",
"930 564 LINE",
"980 1011 LINE",
"920 1011 LINE",
"993 564 LINE",
"1187 -16 LINE",
"1480 -16 LINE",
"1815 1056 LINE",
"1740 959 LINE",
"1883 991 LINE",
"1883 1137 LINE",
"1413 1137 LINE",
"1413 991 LINE",
"1579 964 LINE",
"1576 1050 LINE",
"1445 503 LINE",
"1384 149 LINE",
"1452 149 LINE",
"1383 504 LINE",
"1180 1137 LINE",
"864 1137 LINE",
"699 503 LINE",
"645 149 LINE",
"709 149 LINE",
"639 504 LINE",
"493 1056 LINE",
"487 963 LINE",
"643 991 LINE",
"643 1137 LINE",
"40 1137 LINE",
"40 991 LINE",
"195 955 LINE",
"121 998 LINE"
);
}
);
};
layerId = "6AFE116F-39E0-4FF2-A27B-879B4E5E3272";
name = Bold;
paths = (
{
closed = 1;
nodes = (
"1316 -16 LINE",
"1481 -16 LINE",
"1764 916 LINE SMOOTH",
"1772 943 OFFCURVE",
"1789 955 OFFCURVE",
"1815 963 CURVE SMOOTH",
"1889 987 LINE",
"1889 1138 LINE",
"1427 1138 LINE",
"1427 984 LINE",
"1570 953 LINE"
);
},
{
closed = 1;
nodes = (
"737 159 LINE",
"518 953 LINE",
"653 984 LINE",
"653 1138 LINE",
"17 1138 LINE",
"17 987 LINE",
"92 963 LINE SMOOTH",
"119 955 OFFCURVE",
"133 943 OFFCURVE",
"142 917 CURVE SMOOTH",
"452 -16 LINE",
"687 -16 LINE"
);
},
{
closed = 1;
nodes = (
"880 950 LINE",
"1178 -16 LINE",
"1419 -16 LINE",
"1468 161 LINE",
"1197 1138 LINE",
"949 1138 LINE"
);
},
{
closed = 1;
nodes = (
"1069 1138 LINE",
"886 1138 LINE",
"586 -16 LINE",
"761 -16 LINE"
);
}
);
width = 1923;
},
{
anchors = (
{
name = btm;
position = "{852, -170}";
},
{
name = top;
position = "{869, 1700}";
}
);
background = {
anchors = (
{
name = btm;
position = "{852, -170}";
},
{
name = top;
position = "{869, 1700}";
}
);
paths = (
{
closed = 1;
nodes = (
"431 -17 LINE",
"591 -17 LINE",
"806 746 LINE",
"878 1114 LINE",
"832 1114 LINE",
"914 746 LINE",
"1136 -17 LINE",
"1303 -17 LINE",
"1634 1069 LINE",
"1586 1020 LINE",
"1734 1052 LINE",
"1734 1136 LINE",
"1333 1136 LINE",
"1333 1052 LINE",
"1529 1020 LINE",
"1502 1064 LINE",
"1311 391 LINE",
"1224 47 LINE",
"1252 47 LINE",
"1172 394 LINE",
"967 1136 LINE",
"797 1136 LINE",
"592 393 LINE",
"511 44 LINE",
"541 44 LINE",
"457 391 LINE",
"263 1069 LINE",
"242 1023 LINE",
"438 1052 LINE",
"438 1136 LINE",
"-6 1136 LINE",
"-6 1052 LINE",
"134 1021 LINE",
"92 1060 LINE"
);
}
);
};
layerId = "6D8A9A52-7D7D-4498-B039-FDF10F245A16";
name = Light;
paths = (
{
closed = 1;
nodes = (
"1186 -17 LINE",
"1292 -17 LINE",
"1596 979 LINE SMOOTH",
"1605 1010 OFFCURVE",
"1625 1027 OFFCURVE",
"1657 1035 CURVE SMOOTH",
"1723 1052 LINE",
"1723 1136 LINE",
"1324 1136 LINE",
"1324 1052 LINE",
"1484 1022 LINE"
);
},
{
closed = 1;
nodes = (
"568 39 LINE",
"281 1023 LINE",
"441 1052 LINE",
"441 1136 LINE",
"-6 1136 LINE",
"-6 1052 LINE",
"55 1035 LINE SMOOTH",
"87 1026 OFFCURVE",
"106 1011 OFFCURVE",
"116 980 CURVE SMOOTH",
"432 -17 LINE",
"554 -17 LINE"
);
},
{
closed = 1;
nodes = (
"824 1056 LINE",
"1141 -17 LINE",
"1261 -17 LINE",
"1275 39 LINE",
"973 1136 LINE",
"844 1136 LINE"
);
},
{
closed = 1;
nodes = (
"918 1135 LINE",
"803 1136 LINE",
"478 -17 LINE",
"586 -17 LINE"
);
}
);
width = 1717;
}
);
unicode = 0077;
},
